<?xml version="1.0" encoding="UTF-8"?>
<!-- Generator: visioncortex VTracer 0.6.1 -->
<svg xmlns="http://www.w3.org/2000/svg" viewBox="0 0 1200 1200">
<path d="M0 0 C6.9 -0.2 13.7 -0.1 20.6 0.1 C20.9 0.1 20.9 0.1 22.6 0.2 C64.7 1.5 106.1 7.5 146.6 19.1 C147.3 19.3 148.0 19.5 148.7 19.7 C165.2 24.3 181.4 29.4 197.0 36.5 C200.3 38.0 203.7 39.3 207.1 40.5 C221.8 46.1 235.8 53.6 249.6 61.1 C250.4 61.5 251.1 61.9 251.9 62.3 C272.8 73.6 292.8 86.7 311.6 101.1 C312.3 101.6 313.0 102.1 313.7 102.7 C318.7 106.5 323.6 110.3 328.6 114.1 C329.2 114.5 329.8 115.0 330.4 115.4 C331.8 116.6 333.2 117.7 334.7 118.8 C335.5 119.4 336.2 120.0 337.0 120.6 C337.3 120.9 337.3 120.9 338.6 122.1 C338.6 122.8 338.6 123.4 338.6 124.1 C338.9 124.2 338.9 124.2 340.4 124.9 C342.6 126.1 344.2 127.4 346.0 129.1 C346.6 129.7 347.3 130.3 347.9 130.9 C348.6 131.5 349.2 132.2 349.9 132.8 C351.2 134.1 352.5 135.3 353.9 136.6 C354.2 136.9 354.2 136.9 355.8 138.4 C358.6 141.0 361.5 143.5 364.4 145.9 C365.6 147.1 365.6 147.1 365.6 149.1 C366.3 149.1 366.9 149.1 367.6 149.1 C367.6 149.8 367.6 150.4 367.6 151.1 C368.6 151.4 369.6 151.8 370.6 152.1 C370.6 152.8 370.6 153.4 370.6 154.1 C371.3 154.1 371.9 154.1 372.6 154.1 C373.9 155.4 373.9 155.4 375.4 157.2 C377.9 160.1 380.4 162.9 383.0 165.7 C383.6 166.3 384.1 166.9 384.8 167.6 C386.0 168.8 387.1 170.1 388.4 171.4 C388.6 171.6 388.6 171.6 390.0 173.1 C390.5 173.7 391.0 174.2 391.5 174.7 C392.6 176.1 392.6 176.1 392.6 178.1 C393.3 178.1 393.9 178.1 394.6 178.1 C396.0 179.6 397.3 181.2 398.6 182.8 C399.0 183.3 399.4 183.8 399.8 184.3 C401.1 185.9 402.4 187.5 403.6 189.1 C404.0 189.6 404.4 190.1 404.8 190.6 C442.7 238.7 473.7 293.5 492.0 352.1 C492.5 353.6 492.9 355.0 493.4 356.5 C498.2 371.2 501.8 386.0 505.0 401.1 C505.5 403.6 506.1 406.2 506.7 408.7 C509.3 419.7 510.8 430.8 512.3 442.0 C512.4 442.8 512.5 443.6 512.6 444.4 C515.4 464.5 515.8 484.5 515.8 504.8 C515.7 508.1 515.7 511.5 515.8 514.8 C515.8 534.5 515.1 553.9 512.5 573.4 C512.4 574.2 512.3 575.0 512.2 575.9 C507.9 607.4 500.5 639.1 489.6 669.1 C489.4 669.8 489.1 670.5 488.8 671.3 C483.4 686.6 477.4 701.6 470.5 716.3 C469.5 718.3 468.6 720.4 467.6 722.5 C457.2 745.0 444.8 766.8 430.6 787.1 C430.2 787.7 429.7 788.4 429.3 789.0 C422.4 799.0 415.2 808.7 407.6 818.1 C407.2 818.6 406.8 819.1 406.4 819.6 C395.6 833.1 384.4 846.5 372.1 858.6 C369.9 860.8 367.9 862.9 366.0 865.3 C363.5 868.4 360.6 870.8 357.7 873.3 C355.7 875.0 353.9 876.8 352.1 878.6 C348.5 882.3 344.6 885.7 340.6 889.1 C339.7 889.9 338.8 890.7 337.8 891.5 C329.0 899.1 319.9 906.1 310.6 913.1 C309.9 913.6 309.3 914.1 308.6 914.6 C304.2 917.9 299.9 921.1 295.4 924.2 C294.7 924.6 294.0 925.1 293.3 925.6 C269.2 942.0 269.2 942.0 258.1 947.8 C255.3 949.3 252.7 950.9 250.0 952.5 C244.6 955.7 238.9 958.4 233.2 961.1 C229.0 963.0 225.0 964.9 220.9 967.0 C204.3 975.6 186.7 982.4 168.9 988.3 C166.8 989.0 164.7 989.8 162.6 990.6 C139.4 998.8 114.7 1004.8 90.3 1008.5 C87.8 1008.9 85.2 1009.3 82.7 1009.8 C34.5 1018.1 -19.3 1018.0 -67.4 1009.5 C-69.3 1009.1 -71.3 1008.8 -73.2 1008.5 C-80.6 1007.2 -88.0 1005.7 -95.4 1004.1 C-96.3 1003.9 -97.2 1003.7 -98.1 1003.5 C-113.1 1000.3 -127.7 995.8 -142.4 991.1 C-142.8 991.0 -142.8 991.0 -145.2 990.2 C-163.8 984.3 -182.0 977.5 -199.6 969.0 C-201.5 968.1 -203.4 967.2 -205.3 966.4 C-216.9 961.1 -227.8 954.9 -238.8 948.6 C-240.9 947.4 -243.0 946.2 -245.1 945.1 C-267.4 932.8 -288.9 917.5 -308.4 901.1 C-309.3 900.4 -310.2 899.6 -311.1 898.9 C-316.5 894.5 -321.7 890.1 -326.8 885.4 C-328.2 884.2 -329.6 883.0 -331.0 881.8 C-337.5 876.2 -343.5 870.1 -349.6 864.1 C-351.4 862.2 -353.3 860.3 -355.2 858.4 C-361.1 852.5 -367.0 846.5 -372.4 840.1 C-373.4 839.0 -374.3 837.9 -375.3 836.8 C-391.3 818.3 -406.1 798.7 -419.4 778.1 C-419.9 777.3 -420.4 776.6 -420.9 775.8 C-426.7 766.7 -432.4 757.7 -437.4 748.1 C-438.1 746.8 -438.7 745.6 -439.4 744.3 C-447.7 729.0 -455.0 713.4 -461.5 697.3 C-462.1 695.7 -462.8 694.1 -463.5 692.5 C-467.1 684.1 -470.0 675.6 -472.9 667.0 C-473.1 666.3 -473.4 665.5 -473.6 664.8 C-477.0 654.6 -480.2 644.4 -482.9 633.9 C-483.4 632.2 -483.9 630.4 -484.4 628.6 C-493.3 597.5 -498.2 563.3 -498.4 531.0 C-498.4 528.9 -498.4 526.7 -498.4 524.5 C-498.5 513.1 -498.5 501.7 -498.4 490.3 C-498.4 488.4 -498.4 486.4 -498.4 484.4 C-498.3 452.8 -492.5 420.8 -485.4 390.1 C-485.2 389.2 -485.0 388.3 -484.8 387.4 C-481.5 373.0 -477.1 359.0 -472.4 345.1 C-472.0 344.1 -471.7 343.0 -471.3 342.0 C-465.6 325.2 -458.8 309.2 -451.4 293.1 C-450.6 291.4 -449.8 289.7 -449.0 288.0 C-446.0 281.2 -442.7 274.7 -438.8 268.4 C-437.3 266.0 -436.0 263.5 -434.6 261.0 C-428.1 249.0 -421.2 237.3 -413.4 226.1 C-413.2 225.8 -413.2 225.8 -412.1 224.2 C-399.5 206.2 -386.4 188.8 -371.6 172.6 C-370.4 171.3 -369.2 169.9 -368.0 168.5 C-362.5 162.0 -356.4 156.0 -350.3 149.9 C-348.4 148.0 -346.6 146.2 -344.7 144.3 C-338.8 138.3 -332.8 132.5 -326.4 127.1 C-325.2 126.1 -324.0 125.0 -322.8 124.0 C-316.6 118.5 -310.3 113.2 -303.8 108.0 C-303.3 107.6 -302.7 107.2 -302.1 106.7 C-299.1 104.4 -296.1 102.2 -292.9 100.1 C-290.7 98.6 -288.5 97.0 -286.4 95.4 C-273.6 85.8 -260.1 77.4 -246.3 69.2 C-244.3 68.0 -242.3 66.8 -240.2 65.6 C-225.2 56.6 -209.6 49.2 -193.5 42.1 C-190.9 40.9 -188.3 39.7 -185.7 38.4 C-179.4 35.6 -172.9 33.3 -166.3 31.1 C-164.2 30.4 -162.0 29.6 -159.8 28.9 C-140.9 22.3 -122.0 16.6 -102.4 12.1 C-101.4 11.9 -100.4 11.6 -99.4 11.4 C-66.7 3.7 -33.5 1.0 0 0 Z M-197.4 49.1 C-198.4 49.6 -199.4 50.1 -200.5 50.5 C-214.1 56.9 -227.4 63.6 -240.4 71.1 C-241.0 71.5 -241.7 71.9 -242.4 72.2 C-251.3 77.5 -260.0 83.1 -268.6 88.9 C-270.3 90.0 -271.9 91.1 -273.6 92.2 C-280.7 96.9 -287.6 101.9 -294.4 107.1 C-294.7 107.3 -294.7 107.3 -296.0 108.4 C-308.3 117.8 -320.0 127.7 -331.2 138.3 C-331.7 138.7 -332.2 139.2 -332.7 139.7 C-333.2 140.1 -333.6 140.5 -334.1 141.0 C-335.4 142.1 -335.4 142.1 -337.0 143.1 C-337.5 143.5 -337.9 143.8 -338.4 144.1 C-338.4 144.8 -338.4 145.4 -338.4 146.1 C-338.9 146.3 -339.5 146.5 -340.0 146.7 C-343.3 148.6 -346.0 151.2 -348.4 154.1 C-348.4 154.8 -348.4 155.4 -348.4 156.1 C-349.0 156.1 -349.7 156.1 -350.4 156.1 C-352.0 157.5 -352.0 157.5 -353.4 159.1 C-353.4 159.8 -353.4 160.4 -353.4 161.1 C-354.0 161.1 -354.7 161.1 -355.4 161.1 C-356.7 162.4 -356.7 162.4 -358.3 164.3 C-361.0 167.5 -363.7 170.6 -366.6 173.6 C-372.9 180.3 -378.6 187.3 -384.2 194.6 C-385.8 196.6 -387.4 198.6 -388.9 200.7 C-389.5 201.4 -390.0 202.1 -390.6 202.8 C-392.0 204.6 -393.4 206.3 -394.7 208.1 C-399.8 214.6 -404.7 221.2 -409.1 228.2 C-410.1 229.6 -411.0 231.0 -411.9 232.4 C-420.2 245.2 -427.9 258.1 -435.0 271.6 C-436.3 274.0 -437.6 276.3 -438.9 278.7 C-443.3 286.8 -447.2 294.9 -450.8 303.3 C-452.2 306.8 -453.8 310.2 -455.4 313.5 C-458.6 320.3 -461.0 327.2 -463.4 334.2 C-464.1 336.4 -464.9 338.5 -465.6 340.6 C-477.1 373.8 -485.8 407.4 -490.0 442.3 C-490.3 444.3 -490.6 446.3 -490.9 448.3 C-502.5 526.6 -490.6 611.7 -455.3 700.4 C-455.0 701.1 -454.7 701.8 -454.4 702.5 C-450.4 711.9 -446.0 721.2 -441.3 730.4 C-440.1 732.7 -438.9 735.1 -437.7 737.4 C-419.0 774.3 -394.3 808.6 -366.4 839.1 C-365.2 840.5 -364.0 841.9 -362.8 843.2 C-362.2 843.9 -361.6 844.5 -361.1 845.1 C-359.9 846.5 -358.7 848.0 -357.5 849.4 C-357.1 849.7 -357.1 849.7 -355.6 851.6 C-355.3 851.9 -355.3 851.9 -353.9 853.6 C-352.4 855.1 -352.4 855.1 -350.4 855.1 C-350.1 855.7 -349.9 856.2 -349.6 856.8 C-348.2 859.5 -346.5 861.3 -344.4 863.4 C-344.0 863.7 -344.0 863.7 -342.3 865.5 C-340.4 867.1 -340.4 867.1 -338.4 867.1 C-338.1 868.1 -337.7 869.1 -337.4 870.1 C-335.9 871.6 -335.9 871.6 -334.0 873.2 C-331.4 875.3 -328.9 877.5 -326.5 879.8 C-326.2 880.0 -326.2 880.0 -325.0 881.2 C-324.0 882.1 -323.0 883.0 -322.1 883.9 C-318.6 887.1 -318.6 887.1 -316.4 887.1 C-316.4 887.8 -316.4 888.4 -316.4 889.1 C-314.9 890.5 -313.3 891.8 -311.7 893.1 C-311.4 893.3 -311.4 893.3 -310.2 894.3 C-304.8 898.6 -299.3 902.8 -293.8 907.0 C-292.6 907.9 -291.5 908.8 -290.3 909.7 C-264.2 929.7 -235.2 947.0 -205.4 961.1 C-204.5 961.5 -203.6 962.0 -202.6 962.4 C-191.0 967.9 -179.4 973.1 -167.3 977.4 C-165.1 978.2 -162.9 979.1 -160.7 980.0 C-155.0 982.3 -149.2 984.2 -143.4 986.0 C-142.3 986.4 -141.2 986.7 -140.1 987.1 C-131.5 989.8 -123.0 992.3 -114.3 994.6 C-112.5 995.1 -110.7 995.6 -108.9 996.1 C-74.4 1006.1 -37.2 1009.9 -1.4 1010.1 C0.4 1010.1 2.1 1010.2 3.8 1010.2 C7.8 1010.2 11.8 1010.2 15.8 1010.1 C17.8 1010.1 19.8 1010.1 21.8 1010.1 C72.6 1009.7 123.0 999.5 170.9 983.0 C171.8 982.7 172.7 982.4 173.6 982.0 C193.7 974.9 213.7 966.0 232.6 956.2 C234.9 955.0 237.2 953.8 239.5 952.6 C254.1 945.1 254.1 945.1 260.6 940.5 C263.1 938.8 265.7 937.4 268.4 936.0 C272.1 934.0 275.3 931.8 278.6 929.1 C279.7 928.5 280.7 927.9 281.8 927.3 C285.9 925.0 289.8 922.3 293.7 919.5 C294.5 919.0 295.2 918.4 296.0 917.9 C311.9 906.5 327.2 894.3 341.6 881.1 C343.0 879.9 344.4 878.6 345.9 877.4 C346.5 876.8 347.1 876.2 347.8 875.7 C349.5 874.2 351.3 872.7 353.1 871.3 C353.9 870.6 354.8 869.8 355.6 869.1 C355.6 868.4 355.6 867.8 355.6 867.1 C356.2 866.9 356.8 866.6 357.4 866.4 C360.0 864.9 361.8 863.2 363.9 861.1 C364.6 860.4 365.3 859.7 366.0 859.0 C367.6 857.1 367.6 857.1 367.6 855.1 C368.6 854.8 369.6 854.4 370.6 854.1 C372.1 852.6 372.1 852.6 373.7 850.7 C375.8 848.2 378.0 845.7 380.3 843.2 C380.5 843.0 380.5 843.0 381.7 841.7 C382.6 840.7 383.5 839.8 384.4 838.8 C387.6 835.3 387.6 835.3 387.6 833.1 C388.3 833.1 388.9 833.1 389.6 833.1 C391.3 831.3 391.3 831.3 393.4 828.7 C393.8 828.2 394.1 827.8 394.5 827.3 C395.9 825.6 397.3 823.8 398.6 822.1 C399.1 821.4 399.7 820.8 400.2 820.1 C453.3 753.0 491.9 673.8 507.4 574.8 C507.5 574.1 507.6 573.3 507.7 572.6 C510.6 552.4 510.8 532.2 510.8 511.9 C510.8 509.4 510.8 506.9 510.8 504.3 C511.0 480.6 510.2 457.0 506.4 433.6 C506.3 433.3 506.3 433.3 506.0 431.6 C503.8 417.3 501.0 403.2 497.6 389.1 C497.5 388.5 497.3 387.9 497.2 387.3 C492.7 368.7 487.0 350.6 480.2 332.7 C479.6 331.1 479.0 329.5 478.4 327.9 C472.2 311.4 465.1 295.7 456.7 280.1 C455.0 276.8 453.3 273.5 451.7 270.1 C441.5 249.6 428.5 230.2 414.8 211.8 C413.6 210.1 413.6 210.1 412.6 208.4 C412.3 208.0 411.9 207.5 411.6 207.1 C411.0 207.1 410.3 207.1 409.6 207.1 C409.5 206.6 409.5 206.0 409.4 205.5 C408.3 202.2 406.3 200.0 404.1 197.5 C403.2 196.5 402.3 195.4 401.4 194.3 C400.9 193.8 400.4 193.2 400.0 192.7 C398.0 190.4 396.1 188.0 394.2 185.7 C389.5 179.8 384.4 174.4 379.3 168.9 C377.5 167.0 375.7 165.1 374.0 163.2 C372.7 161.8 371.5 160.5 370.2 159.2 C369.7 158.6 369.1 157.9 368.5 157.3 C366.9 155.6 365.3 153.8 363.6 152.1 C363.3 151.8 363.3 151.8 361.9 150.3 C361.4 149.8 360.9 149.2 360.3 148.7 C360.1 148.4 360.1 148.4 358.9 147.2 C357.6 146.1 357.6 146.1 355.6 146.1 C355.6 145.4 355.6 144.8 355.6 144.1 C354.3 142.8 354.3 142.8 352.4 141.2 C349.2 138.5 346.1 135.7 343.0 132.8 C336.7 126.9 330.4 121.4 323.6 116.1 C323.1 115.7 322.6 115.3 322.0 114.8 C320.4 113.6 318.7 112.3 317.1 111.0 C316.5 110.6 316.0 110.3 315.5 109.8 C311.9 107.1 311.9 107.1 309.6 107.1 C309.6 106.4 309.6 105.8 309.6 105.1 C308.4 104.0 308.4 104.0 306.6 102.7 C305.9 102.3 305.3 101.8 304.6 101.3 C304.2 101.1 304.2 101.1 302.4 99.8 C301.6 99.3 300.8 98.7 300.1 98.2 C285.9 88.4 271.4 79.1 256.6 70.3 C254.9 69.2 253.1 68.2 251.4 67.1 C212.1 43.3 165.1 27.3 120.6 17.1 C119.6 16.9 118.6 16.7 117.6 16.4 C45.9 0.4 -29.8 0.8 -197.4 49.1 Z " fill="currentColor" transform="translate(591.4,91.9)"/>
<path d="M0 0 C0.3 0.1 0.3 0.1 1.6 0.6 C24.5 9.9 46.4 19.9 68 32 C68.7 32.4 69.4 32.8 70.1 33.2 C78.4 37.7 86.3 42.7 94 48 C94.4 48.3 94.4 48.3 96.4 49.6 C98.4 51.1 100.4 52.5 102.5 53.9 C104.3 55.2 106.1 56.5 107.9 57.7 C116.6 63.8 125.2 70.1 133.4 76.8 C134.9 77.9 136.3 79.0 137.8 80.2 C144.4 85.4 150.5 91.1 156.6 96.9 C157.3 97.6 157.9 98.2 158.6 98.8 C159.2 99.4 159.8 100.0 160.4 100.5 C162 102 162 102 163.7 103.1 C164.1 103.4 164.6 103.7 165 104 C165 104.7 165 105.3 165 106 C165.6 106.2 166.1 106.5 166.7 106.7 C173.4 110.4 178.4 117.4 183.3 123.1 C184.9 124.9 186.6 126.6 188.4 128.3 C192.2 132.1 195.5 136.2 198.8 140.3 C201.2 143.2 203.5 145.9 206.0 148.7 C207 150 207 150 207 152 C207.7 152 208.3 152 209 152 C210.4 153.6 211.6 155.2 212.8 156.9 C213.2 157.4 213.6 157.9 214.0 158.5 C214.8 159.6 215.7 160.8 216.6 162.0 C218.1 164.2 219.7 166.3 221.2 168.4 C226.5 175.6 231.7 182.8 236.3 190.3 C237.6 192.3 238.8 194.2 240.0 196.1 C249.2 210.2 257.7 224.7 264.9 239.8 C266.1 242.2 267.3 244.7 268.5 247.1 C284.5 280.2 296.4 315.3 304.6 351.1 C304.7 351.5 304.7 351.5 305.2 353.7 C308.6 368.6 310.9 383.5 312.6 398.7 C312.7 399.6 312.8 400.6 313.0 401.5 C314.8 417.7 315.9 433.7 316 450 C316.0 451.5 316.1 453.1 316.1 454.6 C316.1 458.7 316.1 462.9 316 467 C316.0 468.0 316.0 468.9 315.9 469.9 C315.6 487.1 314.2 503.9 312 521 C311.9 521.9 311.8 522.8 311.6 523.8 C309.9 537.3 307.1 550.7 304 564 C303.9 564.4 303.9 564.4 303.4 566.5 C300.8 577.6 297.7 588.6 294.4 599.6 C294.2 600.3 294.1 600.9 293.9 601.6 C291.6 609.2 289.1 616.6 286 624 C285.4 625.6 284.7 627.1 284.1 628.7 C265.4 675.4 241.0 719.1 209.3 758.4 C208.1 759.9 206.9 761.4 205.7 762.9 C200.8 769.0 195.6 774.8 190.2 780.6 C187.7 783.3 185.2 786.0 182.8 788.7 C178.3 793.8 173.6 798.6 168.8 803.3 C167.4 804.7 166.1 806.1 164.7 807.4 C159.7 812.5 154.4 817.3 149 822 C148.1 822.8 147.2 823.6 146.3 824.4 C145.6 825.1 144.9 825.8 144.1 826.4 C143.4 827.1 142.6 827.8 141.9 828.5 C140 830 140 830 138 830 C138 830.7 138 831.3 138 832 C136.5 833.3 136.5 833.3 134.6 834.6 C134.3 834.8 134.3 834.8 132.7 836.0 C131 837 131 837 129 837 C129 837.7 129 838.3 129 839 C127.4 840.4 125.8 841.6 124.1 842.9 C123.5 843.3 123.0 843.7 122.5 844.1 C115.7 849.0 108.9 853.8 102.1 858.6 C100.1 859.9 98.2 861.3 96.3 862.6 C95.1 863.4 94.0 864.2 92.9 865 C92.6 865.2 92.6 865.2 91.4 866.1 C88.3 868.2 85.2 870.1 81.9 871.9 C79.8 873.1 77.7 874.3 75.6 875.6 C73.1 877.0 70.7 878.4 68.3 879.8 C61.1 883.9 61.1 883.9 57.8 885.9 C43.1 894.9 27.1 901.5 11.2 908.1 C8.9 909.0 6.7 910.0 4.5 911.0 C0.4 912.9 -3.8 914.4 -8 915.9 C-9.5 916.4 -11.0 916.9 -12.5 917.4 C-12.9 917.6 -12.9 917.6 -14.8 918.2 C-16.8 918.9 -18.9 919.7 -20.9 920.5 C-33.0 925.0 -45.3 928.1 -57.8 931.2 C-59.9 931.7 -62.1 932.3 -64.2 932.8 C-69.8 934.3 -75.4 935.5 -81.2 936.4 C-81.9 936.6 -82.7 936.7 -83.4 936.8 C-85.1 937.1 -86.7 937.3 -88.3 937.6 C-91.2 938.0 -94.1 938.5 -97.0 939.0 C-106.7 940.6 -116.3 942.2 -126.1 943.2 C-126.4 943.2 -126.4 943.2 -128.1 943.4 C-130.4 943.6 -132.7 943.8 -135 944 C-136.1 944.1 -137.3 944.2 -138.4 944.3 C-148.4 945.0 -158.4 945.2 -168.4 945.1 C-170.9 945.1 -173.5 945.1 -176.1 945.1 C-192.4 945.1 -208.5 944.1 -224.8 942.2 C-225.5 942.1 -226.2 942.0 -227.0 941.9 C-238.4 940.6 -249.8 938.8 -261.1 936.4 C-263.5 935.9 -266.1 935.5 -268.6 935.1 C-305.1 928.5 -342.8 915.3 -376.1 898.9 C-377.5 898.3 -378.8 897.6 -380.2 896.9 C-399.2 887.8 -417.3 877.4 -435 866 C-435.5 865.7 -436.0 865.3 -436.6 865.0 C-450.7 855.9 -463.9 845.5 -477 835 C-477.2 834.8 -477.2 834.8 -478.5 833.8 C-484.3 829.2 -489.9 824.3 -495.4 819.3 C-497.1 817.7 -498.8 816.1 -500.8 814.8 C-501.2 814.6 -501.6 814.3 -502 814 C-502 813.3 -502 812.7 -502 812 C-502.6 811.8 -503.1 811.5 -503.7 811.3 C-506.6 809.6 -508.8 807.4 -511.2 805.1 C-511.7 804.6 -512.2 804.1 -512.7 803.6 C-513.7 802.5 -514.7 801.5 -515.7 800.5 C-517.3 798.9 -518.8 797.3 -520.4 795.8 C-525.8 790.4 -531.0 784.8 -536 779 C-536.9 777.9 -537.9 776.8 -538.9 775.7 C-541.9 772.2 -545.0 768.6 -548 765 C-548.5 764.4 -549.1 763.8 -549.6 763.1 C-557.4 753.8 -564.5 744.2 -571.2 734.1 C-572.7 731.8 -574.2 729.7 -575.9 727.6 C-579.3 723.4 -582.0 718.8 -584.9 714.2 C-585.0 714.0 -585.0 714.0 -585.9 712.7 C-602.2 686.4 -616.1 659.1 -627.1 630.2 C-628.0 627.9 -629.0 625.6 -629.9 623.3 C-632.3 617.3 -634.4 611.1 -636.4 605 C-636.6 604.4 -636.8 603.8 -637.0 603.2 C-640.3 593.2 -643.4 583.2 -646 573 C-646.1 572.5 -646.1 572.5 -646.7 570.2 C-649.6 558.9 -651.8 547.6 -653.7 536.1 C-654.0 534.0 -654.4 531.9 -654.7 529.9 C-663.1 481.0 -662.1 427.9 -654 379 C-653.8 377.6 -653.6 376.2 -653.3 374.9 C-651.5 363.4 -649.3 352.0 -646.1 340.8 C-645.2 337.9 -644.5 335.0 -643.8 332.0 C-641.0 320.7 -637.7 309.8 -633.9 298.8 C-633.7 298.2 -633.5 297.6 -633.3 297.0 C-630.5 288.9 -627.4 280.9 -624 273 C-623.6 272.1 -623.2 271.1 -622.8 270.2 C-615.9 254.0 -608.7 238.4 -599.9 223.2 C-598.2 220.4 -596.7 217.6 -595.2 214.8 C-590.6 206.3 -585.3 198.2 -580 190 C-579.6 189.4 -579.2 188.8 -578.9 188.2 C-569.5 173.8 -559.0 160.2 -548 147 C-547.5 146.4 -547.0 145.8 -546.5 145.2 C-537.2 134.0 -527.4 123.2 -517 113 C-514.2 110.2 -511.4 107.4 -508.6 104.5 C-489.6 85.2 -489.6 85.2 -483 83 C-483 82.3 -483 81.7 -483 81 C-482.2 80.7 -481.4 80.5 -480.6 80.2 C-479.7 79.8 -478.9 79.4 -478 79 C-477.7 78.0 -477.3 77.0 -477 76 C-475.5 74.6 -475.5 74.6 -473.4 73.1 C-472.7 72.6 -471.9 72.0 -471.2 71.5 C-470.4 70.9 -469.5 70.3 -468.7 69.7 C-467.8 69.1 -467.0 68.5 -466.1 67.8 C-463.4 65.9 -460.7 63.9 -458 62 C-457.2 61.4 -456.3 60.8 -455.4 60.2 C-444.6 52.4 -433.6 45.1 -422.2 38.3 C-420.0 37.0 -417.9 35.7 -415.7 34.4 C-378.1 11.9 -336.6 -5.6 -294 -16 C-293.4 -16.1 -292.8 -16.3 -292.2 -16.4 C-268.7 -22.2 -245.1 -26.4 -221 -29 C-220.4 -29.1 -219.8 -29.1 -219.1 -29.2 C-146.5 -37.0 -67.8 -27.6 0 0 Z M-323 -3 C-323.6 -2.8 -324.1 -2.6 -324.7 -2.4 C-348.7 5.5 -348.7 5.5 -359.2 10.6 C-361.7 11.9 -364.3 13.0 -367.0 14.1 C-373.7 16.9 -380.1 20.1 -386.5 23.5 C-391.4 26.2 -396.4 28.7 -401.4 31.1 C-407.0 33.9 -412.3 36.9 -417.6 40.4 C-419.8 41.9 -422.2 43.2 -424.6 44.5 C-428.6 46.7 -432.3 49.2 -436.1 51.9 C-439.0 54.0 -441.9 56.0 -444.8 58.0 C-465.7 72.2 -486.3 87.8 -504.0 106.0 C-506.6 108.6 -509.4 111.0 -512.2 113.5 C-517.2 117.8 -521.5 122.8 -525.9 127.7 C-528 130 -528 130 -529.8 131.7 C-531 133 -531 133 -531 135 C-531.7 135 -532.3 135 -533 135 C-534.4 136.5 -535.7 138.1 -536.9 139.7 C-537.7 140.7 -538.6 141.7 -539.4 142.7 C-539.8 143.3 -540.2 143.8 -540.7 144.4 C-542.4 146.5 -544.3 148.7 -546.1 150.8 C-555.9 162.3 -564.6 174.5 -573 187 C-573.6 187.9 -574.2 188.8 -574.8 189.7 C-579.8 197.1 -584.5 204.6 -589 212.3 C-589.2 212.6 -589.2 212.6 -590.1 214.1 C-604.4 238.4 -616.2 263.6 -626 290 C-626.3 290.7 -626.5 291.4 -626.8 292.1 C-628.2 296.1 -629.6 300.0 -631 304 C-631.2 304.6 -631.4 305.1 -631.6 305.7 C-635.1 315.6 -637.9 325.7 -640.5 335.9 C-640.9 337.7 -641.4 339.5 -641.9 341.3 C-644.0 349.5 -645.5 357.7 -647 366 C-647.1 366.7 -647.2 367.4 -647.4 368.1 C-648.1 372.2 -648.8 376.2 -649.5 380.3 C-649.9 382.5 -650.3 384.6 -650.7 386.7 C-652.6 396.6 -653.7 406.3 -654.2 416.3 C-654.2 417.1 -654.3 417.8 -654.3 418.6 C-656.2 454.6 -658.1 493.5 -650.4 528.9 C-649.9 531.3 -649.5 533.7 -649.2 536.1 C-645.2 560.7 -639.3 584.6 -631.0 608.1 C-630.1 610.6 -629.3 613.1 -628.4 615.6 C-622.6 633.0 -615.4 649.9 -606.9 666.2 C-606.0 668.0 -605.1 669.9 -604.2 671.7 C-601.2 677.9 -598.0 683.8 -594.5 689.6 C-592.9 692.2 -591.4 694.8 -590 697.5 C-585.7 705.5 -581.0 713.1 -575.8 720.4 C-573.9 723.1 -572.3 725.8 -570.6 728.5 C-567.6 733.1 -564.4 737.3 -560.9 741.6 C-558.5 744.7 -556.3 748.0 -554.2 751.4 C-554.0 751.6 -554.0 751.6 -553 753 C-552.3 753 -551.7 753 -551 753 C-550.0 755.0 -549.0 757.0 -548 759 C-547.3 759 -546.7 759 -546 759 C-545.7 759.6 -545.5 760.1 -545.2 760.7 C-537.0 776.1 -521.1 789.0 -508.9 801.3 C-507.8 802.4 -506.7 803.5 -505.7 804.6 C-498.8 811.5 -491.7 817.9 -484 824 C-481.6 826.0 -479.2 828.1 -476.9 830.1 C-464.6 840.7 -451.6 850.1 -438.1 859.0 C-435.9 860.4 -433.8 861.8 -431.7 863.3 C-417.4 873.1 -402.3 881.6 -386.7 889.2 C-384.8 890.1 -383.0 891.0 -381.1 892.0 C-372.8 896.3 -364.4 900.0 -355.7 903.3 C-353.1 904.3 -350.6 905.4 -348 906.5 C-346.0 907.3 -344.0 908.2 -342 909 C-341.5 909.2 -340.9 909.5 -340.4 909.7 C-331.0 913.5 -321.6 916.9 -311.9 919.9 C-311.3 920.1 -310.6 920.4 -309.9 920.6 C-289.8 926.8 -269.6 931.4 -248.9 934.9 C-248.3 935.0 -247.6 935.1 -247.0 935.2 C-239.8 936.4 -232.7 937.3 -225.4 937.8 C-223 938 -223 938 -220 939 C-217.2 939.3 -214.4 939.4 -211.6 939.6 C-210.8 939.6 -209.9 939.6 -209.0 939.7 C-197.6 940.2 -186.2 940.2 -174.8 940.1 C-171.6 940.1 -168.4 940.1 -165.2 940.1 C-128.0 940.2 -128.0 940.2 -113.3 937.7 C-112.5 937.6 -111.7 937.4 -110.8 937.3 C-109.1 937.0 -107.4 936.7 -105.7 936.4 C-102.9 936.0 -100.2 935.6 -97.5 935.2 C-69.4 930.8 -42.3 923.6 -15.5 914.4 C-15.0 914.3 -15.0 914.3 -12.3 913.3 C15.2 903.8 41.9 890.7 67 876 C67.6 875.6 68.2 875.3 68.9 874.9 C92.9 860.9 116.0 844.6 137.1 826.3 C140.8 823.1 140.8 823.1 143 822 C143 821.3 143 820.7 143 820 C143.5 819.8 144.1 819.6 144.6 819.4 C148.0 817.5 150.5 815.0 153.3 812.3 C153.9 811.7 154.6 811.1 155.2 810.5 C161.0 805.0 166.7 799.4 172.4 793.8 C173.4 792.8 174.3 791.8 175.3 790.9 C181.3 785.0 186.8 779.0 192.0 772.5 C194.7 769.1 197.6 766.0 200.6 762.8 C202 761.0 202 761.0 202 759 C202.7 759 203.3 759 204 759 C205.6 757.2 207.0 755.4 208.4 753.6 C208.8 753.0 209.2 752.4 209.7 751.8 C221.3 736.4 232.1 720.5 242.1 704.1 C243.9 701.1 245.8 698.3 247.6 695.4 C250.6 690.8 253.0 686.1 255.4 681.2 C256.5 679.0 257.6 677.0 258.7 674.9 C265.3 663.1 270.4 650.7 275.6 638.3 C276.8 635.5 278.0 632.7 279.2 629.9 C293.0 597.1 301.1 562.0 307 527 C307.2 526.0 307.4 524.9 307.5 523.9 C308.9 515.5 309.6 507.3 310.1 498.9 C310.2 498.2 310.2 497.5 310.3 496.7 C311.4 476.8 311.3 456.9 311 437 C311.0 436.3 311.0 435.7 311.0 435.0 C310.7 419.2 309.2 403.7 307 388 C306.9 387.2 306.8 386.4 306.7 385.6 C304.6 369.5 300.8 353.7 297 338 C296.8 337.1 296.6 336.1 296.3 335.1 C290.0 308.8 280.9 282.2 268.9 257.8 C268.0 255.9 267.1 254.0 266.2 252.1 C245.7 207.1 217.1 165.7 183.4 129.5 C181.9 127.9 180.4 126.3 179.0 124.7 C171.2 116.2 163.5 107.9 154.7 100.5 C153.0 99.0 153.0 99.0 151.4 97.3 C150 96 150 96 148 96 C148 95.3 148 94.7 148 94 C146.3 92.5 144.7 91.1 142.9 89.8 C141.9 88.9 140.9 88.1 139.9 87.3 C139.4 86.9 138.9 86.5 138.4 86.1 C136.0 84.2 133.7 82.1 131.3 80.0 C130 79 130 79 128 79 C128 78.3 128 77.7 128 77 C126.6 76.0 125.2 75.0 123.7 74.1 C121.1 72.4 118.7 70.6 116.2 68.7 C110.9 64.7 105.5 60.8 100 57 C99.5 56.6 98.9 56.3 98.3 55.9 C89.1 49.6 79.7 43.6 70 38 C69.4 37.6 68.7 37.2 68.0 36.9 C58.2 31.2 48.2 25.9 38 21 C37.3 20.7 36.6 20.3 35.9 20.0 C26.6 15.5 17.2 11.4 7.6 7.6 C5.3 6.7 3.0 5.8 0.7 4.9 C-0.0 4.6 -0.8 4.3 -1.5 4.0 C-3.1 3.4 -4.7 2.7 -6.2 2.1 C-36.1 -10.2 -68.1 -17.0 -100.0 -21.7 C-101.8 -22.0 -103.6 -22.3 -105.3 -22.6 C-125.6 -25.9 -145.7 -26.3 -166.2 -26.3 C-169.3 -26.3 -172.4 -26.3 -175.5 -26.3 C-226.0 -26.6 -275.0 -18.9 -323 -3 Z " fill="currentColor" transform="translate(772,142)"/>
<path d="M0 0 C3.8 0.0 7.7 0.0 11.5 -0.0 C29.4 -0.1 46.8 0.7 64.5 3.0 C67.6 3.5 70.8 3.8 73.9 4.1 C81.0 4.9 87.7 6.4 94.5 8.2 C97.9 9.1 101.2 9.9 104.6 10.6 C135.8 17.1 167.2 27.7 195.4 42.5 C197.2 43.4 198.9 44.3 200.7 45.1 C218.2 53.6 235.2 63.2 251.1 74.4 C251.7 74.8 252.3 75.2 252.9 75.6 C267.6 86.0 281.9 96.9 295.6 108.5 C296.1 109.0 296.6 109.4 297.1 109.9 C297.4 110.1 297.4 110.1 298.6 111.2 C300.1 112.4 301.5 113.5 303.0 114.6 C303.3 114.9 303.3 114.9 305.1 116.4 C305.1 117.1 305.1 117.7 305.1 118.4 C305.7 118.6 306.2 118.9 306.8 119.1 C309.7 120.7 311.8 122.8 314.1 125.1 C314.3 125.4 314.3 125.4 315.5 126.5 C316.5 127.5 317.4 128.5 318.4 129.5 C319.9 131.0 321.4 132.5 322.9 134.0 C328.2 139.3 333.3 144.7 338.1 150.4 C339.1 151.5 340.0 152.6 341.0 153.6 C357.8 172.9 372.5 193.8 386.1 215.4 C386.5 216.0 386.9 216.7 387.3 217.3 C392.4 225.5 397.0 233.9 401.2 242.5 C403.5 247.2 406.0 251.8 408.6 256.4 C410.3 259.7 411.7 263.0 413.1 266.4 C413.9 268.2 414.6 270.0 415.4 271.8 C419.9 282.3 424.1 292.7 427.5 303.6 C428.1 305.5 428.8 307.3 429.5 309.2 C437.2 330.9 442.4 353.7 445.8 376.4 C446.1 378.4 446.1 378.4 447.1 381.4 C447.3 382.7 447.5 383.9 447.6 385.2 C447.7 386.0 447.7 386.7 447.8 387.5 C447.9 388.4 448.0 389.3 448.0 390.1 C448.1 391.1 448.2 392.0 448.3 392.9 C451.1 424.7 451.7 455.9 449.2 487.7 C449.1 489.3 449.0 490.8 448.9 492.4 C448.0 504.0 446.2 515.2 443.7 526.6 C443.0 529.7 442.4 532.8 441.7 535.9 C425.6 611.6 390.0 683.8 337.3 741.0 C336.1 742.3 334.9 743.7 333.7 745.0 C328.7 750.9 323.3 756.4 317.8 761.9 C316.2 763.5 314.6 765.0 313.0 766.6 C307.5 772.1 302.0 777.4 296.1 782.4 C295.0 783.4 293.9 784.4 292.7 785.3 C274.2 801.4 254.3 815.6 233.2 828.2 C231.3 829.3 229.4 830.4 227.5 831.6 C204.7 845.8 180.1 857.6 154.7 866.1 C152.4 866.9 150.1 867.8 147.9 868.8 C115.1 883.1 74.7 890.1 39.2 891.2 C37.1 891.4 37.1 891.4 34.1 891.9 C28.9 892.7 23.7 892.5 18.5 892.5 C18.0 892.5 18.0 892.5 15.2 892.5 C12.8 892.5 10.5 892.5 8.2 892.5 C5.2 892.5 2.2 892.5 -0.7 892.5 C-3.6 892.5 -6.4 892.5 -9.3 892.5 C-9.8 892.5 -9.8 892.5 -12.5 892.5 C-17.7 892.5 -22.7 892.3 -27.9 891.4 C-29.2 891.3 -30.4 891.2 -31.7 891.2 C-72.1 889.6 -113.1 879.4 -150.7 864.6 C-152.8 863.8 -154.9 863.0 -157.1 862.2 C-171.1 857.0 -184.5 850.2 -197.9 843.4 C-198.6 843.0 -199.3 842.7 -200.0 842.3 C-220.6 831.8 -240.3 819.3 -258.9 805.4 C-259.4 805.0 -259.9 804.6 -260.4 804.3 C-268.0 798.6 -275.3 792.6 -282.4 786.4 C-284.6 784.5 -286.7 782.7 -289.0 780.9 C-297.5 773.9 -305.4 766.1 -313.2 758.3 C-313.8 757.8 -314.3 757.2 -314.9 756.6 C-322.0 749.6 -328.6 742.3 -334.9 734.4 C-335.8 733.3 -336.8 732.1 -337.8 731.0 C-364.6 700.0 -386.2 664.5 -403.6 627.5 C-403.9 626.9 -404.2 626.4 -404.5 625.8 C-406.8 620.7 -408.8 615.6 -410.9 610.4 C-411.0 610.0 -411.0 610.0 -411.8 608.0 C-424.1 577.3 -433.0 545.1 -437.9 512.4 C-438.0 511.5 -438.2 510.6 -438.3 509.7 C-442.4 482.5 -443.7 454.8 -442.1 427.4 C-441.9 424.4 -441.8 421.5 -441.7 418.5 C-439.9 369.2 -428.4 318.8 -407.9 273.7 C-406.8 271.1 -405.6 268.5 -404.5 265.9 C-399.8 255.3 -394.7 245.1 -388.9 235.1 C-387.5 232.7 -386.2 230.3 -384.9 227.8 C-379.7 218.4 -374.3 209.1 -368.0 200.3 C-366.2 197.9 -364.6 195.4 -362.9 193.0 C-357.3 184.7 -351.7 176.6 -345.1 169.0 C-343.0 166.5 -341.0 164.0 -339.0 161.5 C-334.9 156.2 -330.4 151.4 -325.8 146.6 C-323.3 143.8 -320.8 141.0 -318.3 138.2 C-315.1 134.6 -311.8 131.2 -308.5 127.8 C-308.0 127.3 -307.6 126.9 -307.2 126.4 C-306.1 125.4 -305.0 124.4 -303.9 123.4 C-303.2 123.4 -302.6 123.4 -301.9 123.4 C-301.6 122.4 -301.2 121.4 -300.9 120.4 C-299.4 118.8 -299.4 118.8 -297.4 117.2 C-293.4 113.9 -289.6 110.4 -285.8 106.9 C-283.9 105.4 -283.9 105.4 -281.9 105.4 C-281.9 104.7 -281.9 104.1 -281.9 103.4 C-280.1 101.8 -278.3 100.4 -276.4 99.0 C-275.8 98.6 -275.2 98.1 -274.6 97.7 C-273.4 96.7 -272.1 95.8 -270.9 94.9 C-268.9 93.4 -267.0 91.9 -265.0 90.4 C-255.8 83.5 -246.5 76.8 -236.9 70.4 C-236.2 69.9 -235.5 69.4 -234.7 69.0 C-222.2 60.6 -209.2 53.7 -195.8 46.9 C-192.9 45.4 -190.0 43.8 -187.1 42.2 C-183.1 40.0 -179.1 38.1 -174.9 36.4 C-173.6 35.9 -172.4 35.3 -171.1 34.8 C-161.1 30.6 -151.1 26.9 -140.9 23.4 C-140.2 23.1 -139.4 22.9 -138.7 22.6 C-121.6 16.7 -104.5 12.2 -86.8 8.4 C-86.3 8.2 -86.3 8.2 -83.5 7.6 C-82.5 7.4 -81.5 7.2 -80.4 7.0 C-77.9 6.4 -77.9 6.4 -74.9 5.4 C-71.8 5.0 -68.8 4.6 -65.7 4.3 C-61.2 3.8 -56.7 3.2 -52.3 2.6 C-34.8 0.4 -17.6 -0.1 0 0 Z M-13.0 4.4 C-55.5 5.4 -98.9 13.0 -138.9 27.4 C-139.7 27.7 -140.6 28.0 -141.5 28.3 C-163.8 36.3 -185.1 46.0 -205.9 57.4 C-206.2 57.6 -206.2 57.6 -207.9 58.5 C-232.2 71.6 -254.8 87.7 -275.9 105.4 C-276.2 105.6 -276.2 105.6 -277.7 107.0 C-281.8 110.4 -285.9 113.9 -289.9 117.4 C-290.4 117.8 -290.9 118.2 -291.4 118.7 C-298.1 124.6 -304.5 130.8 -310.8 137.1 C-311.7 138.0 -312.6 138.9 -313.5 139.7 C-314.7 141.0 -315.9 142.2 -317.2 143.4 C-317.5 143.8 -317.5 143.8 -319.3 145.6 C-320.9 147.4 -320.9 147.4 -320.9 149.4 C-321.5 149.4 -322.2 149.4 -322.9 149.4 C-324.2 150.9 -325.5 152.4 -326.8 154.0 C-329.8 157.8 -332.9 161.6 -336.1 165.3 C-343.7 173.9 -350.3 183.0 -356.9 192.4 C-357.7 193.5 -358.5 194.6 -359.3 195.8 C-383.6 230.1 -401.8 267.8 -415.9 307.4 C-416.1 308.1 -416.4 308.8 -416.7 309.6 C-424.6 331.7 -429.8 355.1 -432.9 378.4 C-433.1 380.0 -433.4 381.6 -433.6 383.3 C-434.4 389.0 -435.2 394.7 -435.9 400.4 C-436.0 401.2 -436.1 402.1 -436.2 402.9 C-440.0 433.2 -446.1 486.9 -431.9 515.4 C-431.6 517.5 -431.3 519.7 -431.1 521.8 C-429.4 535.3 -426.4 548.4 -422.5 561.4 C-421.8 563.7 -421.2 566.0 -420.5 568.3 C-416.3 583.8 -411.2 599.0 -404.2 613.6 C-403.0 616.1 -402.0 618.6 -401.0 621.3 C-396.3 633.1 -390.4 644.2 -384.1 655.3 C-382.7 657.7 -381.4 660.2 -380.0 662.7 C-377.0 668.3 -373.7 673.7 -370.3 679.0 C-369.7 680.0 -369.1 680.9 -368.4 681.9 C-360.9 693.6 -353.1 705.0 -344.1 715.7 C-342.5 717.6 -340.9 719.6 -339.4 721.6 C-333.3 729.5 -326.9 736.8 -320.1 744.0 C-317.6 746.6 -315.3 749.2 -313.0 751.9 C-310.2 755.2 -307.0 758.0 -303.7 760.8 C-301.3 762.9 -299.1 765.1 -296.9 767.4 C-292.1 772.3 -287.1 776.9 -281.9 781.4 C-280.9 782.2 -280.0 783.0 -279.1 783.9 C-266.7 794.6 -253.5 804.3 -239.9 813.4 C-239.1 813.9 -238.4 814.4 -237.6 814.9 C-223.4 824.3 -208.9 832.6 -193.9 840.4 C-193.1 840.8 -192.4 841.2 -191.6 841.6 C-177.4 849.0 -162.6 855.2 -147.6 860.7 C-145.7 861.5 -143.7 862.2 -141.7 863.0 C-122.4 870.5 -102.5 875.4 -82.3 879.7 C-81.9 879.8 -81.9 879.8 -79.8 880.2 C-66.1 883.1 -52.3 885.2 -38.3 886.5 C-37.4 886.5 -36.5 886.6 -35.5 886.7 C-19.0 888.1 -2.5 888.7 14.1 888.4 C14.5 888.4 14.5 888.4 16.5 888.4 C40.8 887.9 65.9 885.5 89.6 880.0 C92.5 879.3 95.3 878.7 98.1 878.1 C109.8 875.5 121.2 872.6 132.6 869.3 C133.7 868.9 134.8 868.6 136.0 868.3 C141.7 866.5 147.3 864.6 152.8 862.3 C154.9 861.5 157.0 860.7 159.1 859.9 C168.3 856.6 177.2 852.7 186.1 848.4 C186.7 848.1 187.3 847.8 187.9 847.5 C208.7 837.5 229.0 826.5 248.1 813.4 C248.9 812.9 249.6 812.4 250.4 811.8 C265.4 801.6 279.4 790.3 293.1 778.4 C293.9 777.7 294.7 777.1 295.5 776.4 C296.7 775.3 298.0 774.2 299.2 773.1 C300.7 771.8 302.1 770.5 303.6 769.3 C304.0 768.9 304.0 768.9 306.1 767.1 C306.9 766.4 307.6 765.8 308.4 765.1 C310.1 763.4 310.1 763.4 310.1 761.4 C310.8 761.1 311.4 760.9 312.0 760.6 C314.1 759.4 314.1 759.4 315.1 756.4 C316.4 755.7 317.8 755.1 319.1 754.4 C319.4 753.4 319.8 752.4 320.1 751.4 C321.4 750.7 322.8 750.0 324.1 749.4 C325.7 747.8 325.7 747.8 327.2 746.0 C330.6 742.0 334.1 738.1 337.6 734.2 C344.1 727.2 344.1 727.2 344.1 724.4 C344.8 724.4 345.4 724.4 346.1 724.4 C347.2 723.2 347.2 723.2 348.5 721.5 C348.9 720.9 349.4 720.3 349.9 719.6 C350.4 718.9 350.9 718.2 351.4 717.5 C352.0 716.8 352.5 716.1 353.0 715.3 C354.2 713.8 355.3 712.3 356.4 710.7 C358.1 708.5 359.7 706.2 361.4 704.0 C368.7 694.1 375.4 683.9 381.8 673.4 C382.9 671.7 384.0 670.0 385.2 668.2 C389.0 662.4 392.2 656.4 395.3 650.1 C397.2 646.2 399.2 642.5 401.2 638.7 C415.1 613.0 426.0 583.9 432.2 555.4 C433.1 551.4 434.1 547.4 435.2 543.5 C437.5 535.0 439.2 526.9 439.8 518.1 C440.1 515.4 440.1 515.4 441.0 512.4 C442.8 506.5 443.1 500.3 443.7 494.1 C443.8 492.9 443.9 491.6 444.1 490.3 C444.3 487.8 444.5 485.3 444.8 482.8 C445.0 480.8 445.2 478.8 445.4 476.8 C446.5 467.0 446.4 457.1 446.4 447.3 C446.4 446.8 446.4 446.8 446.4 444.3 C446.4 421.0 445.0 397.9 440.4 375.1 C439.9 372.4 439.6 369.6 439.3 366.9 C435.2 337.7 426.0 306.9 413.8 280.0 C413.1 278.4 412.4 276.7 411.7 275.0 C408.2 266.7 404.4 258.6 400.3 250.6 C399.1 248.3 397.9 245.9 396.7 243.6 C386.3 223.0 373.9 203.8 360.1 185.4 C359.2 184.2 358.4 183.0 357.5 181.9 C356.0 179.9 354.5 177.9 353.0 175.9 C351.3 173.7 349.7 171.4 348.2 169.1 C347.5 168.2 346.8 167.3 346.1 166.4 C345.5 166.4 344.8 166.4 344.1 166.4 C343.9 165.8 343.6 165.3 343.4 164.7 C341.8 161.9 339.8 159.7 337.6 157.3 C333.3 152.7 333.3 152.7 332.0 150.6 C331.8 150.4 331.8 150.4 331.1 149.4 C330.5 149.4 329.8 149.4 329.1 149.4 C329.0 149.1 329.0 149.1 328.3 147.6 C327.0 145.1 325.4 143.5 323.4 141.6 C320.8 139.1 318.4 136.6 316.1 133.8 C314.0 131.3 311.9 129.2 309.4 127.1 C306.0 124.2 302.7 121.1 299.4 118.0 C292.5 111.3 285.4 105.2 277.7 99.5 C276.1 98.4 274.6 97.2 273.1 96.0 C248.4 76.6 221.4 60.1 193.1 46.4 C192.5 46.1 191.9 45.8 191.3 45.5 C172.2 36.2 152.3 28.1 131.8 22.4 C128.4 21.5 125.0 20.5 121.6 19.5 C77.7 6.8 32.5 3.6 -13.0 4.4 Z " fill="currentColor" transform="translate(595.9,154.6)"/>
<path d="M0 0 C1.0 0.3 2.0 0.7 3 1 C4.7 1.1 6.3 1.1 8 1.1 C8.4 1.1 8.4 1.1 10.6 1.1 C13 1 13 1 16 0 C16.8 0.3 17.5 0.6 18.3 0.9 C22.1 2.4 25.3 2.5 29.2 1.4 C29.8 1.3 30.4 1.1 31 1 C31.2 1.2 31.2 1.2 32.3 2.0 C34.5 3.3 36.0 3.2 38.6 3.2 C39.3 3.2 40.1 3.2 40.9 3.2 C43 3 43 3 45 2 C45.4 2.3 45.8 2.6 46.2 3.0 C48.4 4.2 49.9 4.4 52.4 4.6 C54.8 4.8 57.1 5.0 59.4 5.5 C62.0 6.0 64.4 6.3 67 6.5 C70.4 6.8 73.7 7.2 77 8 C78.5 8.3 80.0 8.7 81.5 9 C82.3 9.2 83.1 9.4 83.9 9.5 C85.5 9.9 87.2 10.2 88.8 10.5 C91 11 91 11 92.8 12.1 C95.7 13.3 98.1 13.1 101.2 13.0 C103 13 103 13 105 14 C105 14.7 105 15.3 105 16 C105.9 16.0 106.8 16.1 107.7 16.1 C108.8 16.1 110.0 16.2 111.2 16.2 C111.8 16.3 111.8 16.3 114.7 16.4 C118.5 17.1 120.0 18.5 123 21 C125.5 21.5 125.5 21.5 128.1 21.5 C132.7 21.8 133.8 22.7 137 26 C140.3 26.9 143.6 27.5 147 28 C147.3 29.0 147.7 30.0 148 31 C148.3 31.0 148.3 31.0 149.8 31.2 C156.2 32.2 161.0 34.4 166.5 37.6 C169.0 39.0 169.0 39.0 172.2 40.1 C174.9 41.0 176.3 41.9 178.4 43.5 C180.8 45.3 182.8 46.4 185.7 47.1 C189.4 48.1 190.3 49.3 193 52 C195.2 53.1 197.5 54.0 199.8 55.0 C202.7 56.3 204.7 57.9 207 60 C209.0 61.6 210.3 62.1 212.9 62.8 C215.8 63.9 216.6 64.4 218.6 66.5 C221.1 69.1 222.7 69.9 226 71 C229.8 72.5 229.8 72.5 230.8 74.9 C233.1 78.9 237.7 80.6 242 82 C243.0 83.5 243.9 85.0 244.8 86.4 C247.4 89.9 251.0 91.7 255 93 C256.0 94.7 257.0 96.3 258 98 C260.1 99.9 261.7 100.9 264.5 101.8 C267.5 103.3 268.3 104.7 270.0 107.5 C271.6 109.8 273.7 111.3 276 113 C278.9 115.7 281.7 118.7 284 122 C284 122.7 284 123.3 284 124 C284.7 124 285.4 124 286.2 124 C290.0 125.4 290.9 127.5 292.8 131.0 C294.8 134.3 296.3 135.8 300 137 C300.7 138.7 301.3 140.4 302.0 142.1 C303.2 144.3 304.5 145.4 306.4 146.9 C309.9 149.6 311.2 152.2 313.0 156.1 C314.1 158.2 315.1 159.1 317 160.4 C320.5 163.0 321.5 166.0 323.0 169.9 C324.4 172.8 326.5 174.1 329 176 C330.1 179.0 330.1 179.0 331 182 C332.0 183.4 333.0 184.7 334 186 C334 186.7 334 187.3 334 188 C335.0 188.3 336.0 188.7 337 189 C337.8 190.7 337.8 190.7 338.4 192.8 C339.6 196.3 341.0 198.1 343.8 200.6 C345.8 203.0 346.3 205.9 347.2 208.8 C348.0 211.1 348.9 212.3 350.6 214.1 C353.2 216.9 353.8 219.5 354.6 223.2 C355.2 226.1 356.2 228.3 358.5 230.2 C360.2 232.2 360.4 233.3 360.9 235.8 C361.6 238.7 362.2 240.6 364 242.9 C366.3 246.1 366.8 249.2 367.5 252.9 C368.0 255.0 368.0 255.0 369.5 257.5 C371.3 260.5 371.8 263.2 372.5 266.6 C374.5 275.5 374.5 275.5 377 278 C377.5 281.0 377.9 284.1 378.3 287.1 C379.1 290.2 379.8 290.9 382 293 C382.2 294.8 382.2 294.8 382 296.7 C381.9 299.9 382.2 302.0 383.5 305 C385.0 308.5 385.2 311.1 384.9 314.8 C385.0 317.4 385.7 319.6 386.5 322.1 C387.4 325.4 387.7 328.7 388.1 332.1 C388.9 339.5 388.9 339.5 389.6 342.8 C390.1 345.3 390.0 347.6 389.8 350.2 C390 352 390 352 391 354.2 C392.2 357.5 392.2 360.3 392.2 363.7 C392.2 364.1 392.2 364.1 392.1 365.7 C392.1 367.7 392.1 369.7 392.1 371.8 C392.0 374.4 392.0 377.1 392.0 379.7 C392.0 380.4 392.0 381.0 392.0 381.7 C391.9 385.9 392.2 390.0 392.9 394.2 C393.0 396.3 392.6 397.9 392 400 C392.0 402.3 392.0 404.5 392.1 406.8 C392.1 411.5 391.8 415.6 390.4 420.1 C389.7 423.3 390.0 426.4 390.1 429.7 C390.0 432.7 389.0 435.2 388 438 C387.9 440.3 388.0 442.6 388.1 444.9 C388 447 388 447 387.0 448.9 C385.7 451.6 385.9 453.4 386.1 456.3 C386.2 460.7 385.7 463.4 383.7 467.2 C382.8 469.5 382.7 471.6 382.5 474.1 C382.2 478.3 381.2 480.4 379 484 C378.7 486.5 378.5 489.0 378.4 491.5 C378 494 378 494 376.6 496.4 C374.4 500.1 373.9 503.8 373.2 508.0 C372.5 511.7 371.7 513.5 369 516 C368.4 518.2 368.4 518.2 368.1 520.8 C367.3 524.9 366.2 527.7 364.0 531.2 C362.9 533.3 362.2 535.3 361.5 537.5 C360.4 541.1 358.9 544.1 357.0 547.3 C355.9 549.1 355.3 550.9 354.6 552.9 C353.2 556.7 351.3 559.8 349.1 563.1 C347.6 565.6 346.9 568.2 346 571 C345.5 571.5 345.1 571.9 344.6 572.4 C342.2 574.9 341.3 577.9 340.1 581.0 C339 583 339 583 336 584 C335.0 586.1 335.0 586.1 334 589 C332.3 593.7 330.6 596.4 327 600 C326.2 601.4 325.4 602.9 324.6 604.3 C322.6 608.2 320.2 611.2 317.3 614.4 C316.0 616.0 316.0 616.0 315 618.6 C313.9 621.1 313.3 621.7 311.2 623.3 C307.9 625.8 306.3 628.6 304.2 632.1 C302.6 634.6 300.3 636.2 298 638 C297.7 638.8 297.4 639.6 297.1 640.5 C295.8 643.5 294.2 644.2 291.5 645.8 C289.3 647.6 288.3 649.8 287.2 652.3 C286 654 286 654 283.6 655.4 C280.7 657.2 279.3 659.0 277.2 661.8 C273.9 666.1 270.4 669.3 266.0 672.5 C264 674 264 674 262 676.6 C259.5 679.7 256.5 681.4 253.1 683.5 C250.5 685.3 248.9 687.5 247 690 C245.3 691.1 243.6 692.0 241.8 693.0 C239.5 694.3 237.6 696.0 235.6 697.7 C233.8 699.2 231.8 700.4 229.8 701.6 C227.5 703.0 226.1 703.8 224.5 706.1 C222.4 708.7 219.9 709.6 216.9 711.0 C215.0 712.0 215.0 712.0 213.1 713.9 C209.7 717.3 203.9 721 199 721 C198.7 722.0 198.3 723.0 198 724 C196.1 725.0 196.1 725.0 193.8 725.9 C190.9 727.1 189.0 728.0 186.6 730 C183.3 732.5 180.0 733.6 176.2 734.9 C173.6 736.2 173.0 737.3 172 740 C171.1 739.9 170.3 739.8 169.4 739.8 C164.9 740.1 162.2 741.8 159 745 C157.6 745.3 156.1 745.6 154.7 745.9 C151.0 746.7 149.0 747.7 146 750 C144.0 750.6 142.1 751.0 140.1 751.5 C137.5 752.1 135.3 753.1 132.9 754.2 C130.0 755.4 127.1 756.3 124.1 757.3 C122.0 758.0 122.0 758.0 120.0 759.0 C117.9 760.1 116.0 760.5 113.6 760.9 C110.7 761.5 108.8 762.1 106.1 763.6 C102.4 765.3 99.4 765.5 95.4 765.7 C92.8 766.0 91.3 766.8 89 768 C87.2 768.4 85.5 768.7 83.7 768.9 C79.2 769.6 74.8 770.5 70.4 771.4 C61.8 773.3 52.9 774.1 44.1 775.0 C43.5 775.1 43.5 775.1 40.7 775.4 C39.7 775.5 38.6 775.6 37.6 775.7 C35.0 776 35.0 776 32 777 C21.0 778.1 9.8 778.1 -1.2 778.1 C-1.9 778.1 -2.5 778.1 -3.1 778.1 C-26.4 778.2 -26.4 778.2 -33 776 C-35.7 776.0 -38.4 776.1 -41.1 776.2 C-43.8 776.0 -45.7 775.4 -48.2 774.5 C-52.3 773.3 -56.7 773.0 -61 772.5 C-66.9 771.8 -72.4 771.0 -78 769 C-80.6 768.7 -83.1 768.5 -85.7 768.3 C-88 768 -88 768 -89.4 767.1 C-91.9 765.4 -94.5 765.1 -97.4 764.5 C-101.5 763.6 -105.1 762.6 -109 761 C-110.3 760.7 -111.6 760.3 -112.9 760.1 C-115.5 759.4 -117.9 758.7 -120.4 757.6 C-123.1 756.3 -125.8 755.4 -128.6 754.6 C-134.9 752.8 -140.9 750.4 -147 748 C-147.9 747.6 -148.9 747.3 -149.8 746.9 C-154.3 745.2 -158.3 743.3 -162.4 740.9 C-164 740 -164 740 -166.9 739.1 C-170.4 737.9 -173.0 736.2 -176.1 734.2 C-178.0 733.0 -178.0 733.0 -181.1 731.4 C-183.8 730.1 -186.1 728.6 -188.5 727.0 C-190 726 -190 726 -193 724.5 C-195.2 723.4 -197.0 722.4 -198.9 721 C-201.1 719.5 -203.2 718.5 -205.6 717.5 C-208.8 716.2 -210.5 714.5 -213 712 C-214.5 711.2 -215.9 710.3 -217.4 709.6 C-220.7 707.8 -223.1 706.1 -225.6 703.3 C-228.2 700.9 -231.2 699.2 -234.2 697.3 C-234.8 696.9 -235.4 696.5 -236 696 C-236 695.3 -236 694.7 -236 694 C-236.5 693.7 -237.1 693.5 -237.6 693.2 C-238.0 693.0 -238.0 693.0 -240 692 C-240.5 691.8 -240.5 691.8 -242.9 690.8 C-246.0 689.2 -247.5 687.2 -249.6 684.5 C-251.8 682.2 -254.5 680.8 -257.3 679.3 C-259.4 677.7 -259.5 676.5 -260 674 C-261.7 673 -261.7 673 -264 672 C-268.1 669.6 -270.2 667.9 -272.7 663.7 C-274.4 661.5 -276.3 659.9 -278.4 658.1 C-281.9 655.1 -284.5 652.3 -286.8 648.4 C-288 647 -288 647 -290.0 646.1 C-292.6 644.7 -293.4 643.2 -294.9 640.6 C-296.8 637.6 -298.3 635.5 -301.3 633.7 C-304 632.0 -304 632.0 -304.7 630 C-304.8 629.3 -304.9 628.7 -305 628 C-306.9 625.0 -307.5 624.2 -311 623 C-312.2 620.9 -312.2 620.9 -313.4 618.2 C-315.4 613.9 -317.3 612.0 -321 609 C-322.1 606.7 -323.1 604.4 -324.0 602.1 C-325.2 599.5 -327.0 598.0 -329 596 C-329.5 594.9 -330.0 593.8 -330.4 592.6 C-331.5 590.0 -332.5 588.2 -334.4 586.1 C-337.2 583.1 -338.5 579.8 -340.0 576.0 C-341 574 -341 574 -343.1 572.1 C-346.2 568.7 -346.9 564.4 -348 560 C-348.2 559.5 -348.2 559.5 -349 557 C-350.0 556.7 -351.0 556.3 -352 556 C-352.6 554.5 -352.6 554.5 -352.9 552.5 C-353.8 548.2 -355.6 545.0 -357.8 541.3 C-359.4 538.3 -360.3 535.2 -361.2 531.8 C-362 530 -362 530 -363.6 529.0 C-365 528 -365 528 -365.4 526.2 C-365.5 525.6 -365.5 524.9 -365.6 524.2 C-365.9 520.3 -366.5 516.9 -369.0 513.8 C-371.0 510.3 -371.3 506.1 -372.1 502.2 C-373 499 -373 499 -374.6 496.4 C-376.2 493.7 -376.4 492.1 -376.5 489 C-376.8 484.3 -376.8 484.3 -378.5 481.6 C-380.6 478.0 -380.5 474.7 -380.7 470.6 C-381 468 -381 468 -382.0 466.1 C-383.4 463.3 -383.4 460.8 -383.5 457.8 C-383.8 453.3 -384.3 449.2 -385.5 445.0 C-386.3 441.7 -386.5 438.4 -386.8 435.0 C-387 433 -387 433 -388 432 C-388.0 430.5 -388.0 429.1 -387.9 427.6 C-387.9 423.8 -388.2 420.3 -389 416.6 C-390.0 411.8 -390.1 407.4 -390.0 402.6 C-390 400 -390 400 -390.5 397.3 C-391.2 393.0 -391.2 388.9 -391.2 384.7 C-391.2 384.3 -391.2 384.3 -391.2 382.3 C-391.2 377.3 -390.7 372.8 -389.4 368.0 C-388.8 365.2 -389.4 362.7 -389.8 359.8 C-390.1 357.0 -388.9 354.7 -388 352 C-388.0 350.2 -388.0 348.3 -388 346.5 C-388.1 342.1 -387.5 339.1 -386 335 C-385.7 332.3 -385.5 329.5 -385.3 326.7 C-385.0 323.6 -384.2 320.8 -383.4 317.8 C-382.9 315.5 -383.1 313.3 -383.2 311.0 C-382.8 307.3 -381.2 304.0 -379.9 300.7 C-378.7 297.2 -378.7 294.6 -379 291 C-378.3 291 -377.7 291 -377 291 C-376.9 290.3 -376.8 289.6 -376.7 288.8 C-375.7 281.7 -373.9 275.6 -371.2 268.9 C-370.2 266.6 -369.5 264.4 -368.9 262.1 C-368 259.0 -368 259.0 -366.5 256.1 C-364.6 252.2 -363.8 248.3 -363 244 C-362.3 244 -361.7 244 -361 244 C-360.8 243.1 -360.7 242.2 -360.5 241.2 C-360.2 240.0 -360.0 238.8 -359.8 237.6 C-359.6 237.0 -359.5 236.4 -359.4 235.8 C-359.0 234.0 -359.0 234.0 -358 231 C-356.7 230.3 -355.3 229.6 -354 229 C-353.1 226.2 -353.1 226.2 -352.5 223 C-351.9 219.8 -351.9 219.8 -351 217 C-349.0 215.8 -349.0 215.8 -347 215 C-345.5 212.2 -344.9 209.7 -344.7 206.5 C-344.3 203.0 -342.9 201.6 -340.3 199.3 C-337.4 196.3 -336.3 191.9 -335 188 C-333.3 186.6 -331.7 185.3 -330 184 C-328.3 182.0 -327.9 180.6 -327.2 178.1 C-326 175 -326 175 -323.6 173.2 C-320.9 170.9 -320.3 169.8 -319.1 166.6 C-317.5 162.5 -315.8 160.8 -312.4 158.3 C-310.2 156.2 -309.7 153.6 -308.8 150.8 C-307.6 148.1 -305.6 147.3 -303 146 C-299.2 141.9 -299.2 141.9 -298.6 138.9 C-297.7 136.0 -295.5 135.5 -293 134 C-291.6 132.4 -290.3 130.7 -289 129 C-287.8 127.8 -286.6 126.6 -285.4 125.5 C-283.1 123.0 -280.9 120.4 -278.6 117.9 C-276.0 114.9 -273.3 112.3 -270 110 C-269.3 110 -268.7 110 -268 110 C-266.8 107.7 -265.8 105.5 -265 103 C-263.3 102.0 -263.3 102.0 -261.2 101.2 C-258.2 99.8 -256.6 98.9 -255 96 C-253.4 93.2 -252.0 92.3 -249.1 91.1 C-245.9 89.6 -244.2 88.3 -242 85.5 C-239.3 82.1 -236.8 80.7 -232.9 79.0 C-230.3 77.6 -229.0 75.7 -227.3 73.4 C-225.4 71.3 -223.2 70.6 -220.6 69.6 C-218.9 68.9 -217.5 68.2 -216 67 C-215.7 66.0 -215.3 65.0 -215 64 C-212.6 63.0 -212.6 63.0 -209.7 62.1 C-204.8 60.5 -203.1 59.0 -200 55 C-197.8 54.1 -195.5 53.5 -193.2 52.8 C-190.4 51.8 -188.7 50.2 -186.5 48.1 C-183.9 46.2 -181.1 45.7 -178 45 C-175.1 44.1 -175.1 44.1 -173 43 C-172.7 42.0 -172.3 41.0 -172 40 C-169.9 39.2 -169.9 39.2 -167.2 38.5 C-164.4 37.8 -162.4 37.3 -160.1 35.5 C-156.6 33.0 -152.7 32.7 -148.6 31.8 C-147.7 31.6 -146.9 31.3 -146 31 C-145.7 30.0 -145.3 29.0 -145 28 C-144.3 27.9 -143.7 27.8 -143.0 27.7 C-135.6 26.4 -135.6 26.4 -132.4 23.9 C-129.3 21.4 -127.1 21.6 -123.2 21.3 C-120.9 21.0 -119.9 20.5 -118.1 19 C-114.6 16.2 -110.7 16.5 -106.4 16.4 C-105.6 16.2 -104.8 16.1 -104 16 C-103.3 15.0 -102.6 14.0 -102 13 C-100.0 12.8 -100.0 12.8 -97.8 13 C-94.4 13.1 -93.2 13.1 -90.1 11.6 C-86.2 9.6 -82.8 9.5 -78.5 9.3 C-75.9 9.0 -75.1 8.4 -73 7 C-71.2 6.9 -71.2 6.9 -69.2 7 C-66.3 7.1 -64.8 6.9 -62 6 C-59.3 5.1 -57.8 4.9 -55 5 C-51.3 5.1 -48.5 4.4 -45 3 C-44.5 2.8 -44.5 2.8 -42 2 C-41.7 2.3 -41.3 2.7 -41 3 C-35.9 3.5 -31.7 3.2 -27 1 C-26.3 1.3 -25.7 1.7 -25 2 C-20.8 2.2 -17.0 1.9 -12.9 1.2 C-9.9 0.9 -6.9 1.0 -3.9 1.1 C-2 1 -2 1 0 0 Z M-80 15 C-80.9 15.2 -81.9 15.4 -82.8 15.6 C-104.1 20.2 -124.8 26.8 -145 35 C-145.9 35.4 -146.7 35.7 -147.6 36.1 C-182.5 50.3 -215.9 70.4 -244.6 94.8 C-246.2 96.2 -247.8 97.5 -249.4 98.9 C-255.8 104.3 -262.0 109.8 -267.8 115.8 C-269.7 117.7 -271.6 119.4 -273.7 121.1 C-276.8 123.7 -279.4 126.6 -282.0 129.7 C-283.5 131.4 -285.0 133.1 -286.5 134.7 C-293.2 141.8 -299.2 149.2 -305 157 C-305.6 157.7 -306.1 158.5 -306.7 159.3 C-313.5 168.3 -320.2 177.3 -326 187 C-326.5 187.8 -326.9 188.6 -327.4 189.4 C-328.4 191.0 -329.4 192.6 -330.3 194.2 C-331.6 196.3 -332.8 198.3 -334.1 200.4 C-363.1 247.6 -378.5 302.0 -383 357 C-383.1 358.1 -383.2 359.3 -383.3 360.5 C-386.4 400.2 -382.8 440.5 -373 479 C-372.9 479.6 -372.7 480.2 -372.6 480.8 C-369.2 494.2 -365.1 507.2 -359.8 520.0 C-359.0 521.9 -358.3 523.8 -357.6 525.8 C-346.9 556.3 -330.1 585.1 -311 611 C-310.3 612.0 -309.5 613.1 -308.8 614.1 C-303.2 621.7 -297.2 628.9 -291 636 C-290.4 636.7 -289.8 637.4 -289.2 638.1 C-271.4 658.8 -271.4 658.8 -265 664 C-264.3 664 -263.7 664 -263 664 C-262.8 664.5 -262.8 664.5 -262 667 C-260.6 668.4 -260.6 668.4 -258.8 669.9 C-258.1 670.5 -257.4 671.2 -256.6 671.8 C-255.8 672.5 -254.9 673.2 -254 674 C-252.9 674.9 -251.9 675.9 -250.8 676.8 C-243.9 682.8 -237.0 688.5 -229.7 693.8 C-227.9 695.1 -226.0 696.5 -224.2 697.8 C-210.8 707.9 -196.5 716.5 -182 725 C-181.6 725.2 -181.6 725.2 -179.7 726.3 C-151.2 742.9 -118.8 753.9 -87 762 C-86.1 762.2 -85.2 762.5 -84.2 762.7 C-67.0 767.1 -49.4 769.0 -31.7 770.8 C-30.2 771.0 -28.7 771.1 -27.2 771.3 C14.1 775.7 57.0 770.5 97 760 C97.8 759.8 98.6 759.6 99.5 759.4 C104.4 758.1 109.2 756.6 114 755 C114.5 754.8 114.5 754.8 117.1 754.0 C132.4 748.8 147.4 743.0 162 736 C162.7 735.7 163.4 735.3 164.1 735.0 C195.5 719.9 225.9 700.8 251.6 677.1 C254.9 674.2 258.2 671.6 261.7 668.9 C263.8 667.2 265.8 665.3 267.7 663.3 C269.0 662.0 270.3 660.7 271.7 659.4 C272.1 659.0 272.5 658.5 273.0 658.1 C273.9 657.2 274.8 656.4 275.7 655.5 C276.8 654.4 277.9 653.2 279 652 C279 651.3 279 650.7 279 650 C280.0 649.7 281.0 649.3 282 649 C283.4 647.6 283.4 647.6 284.9 645.8 C285.5 645.1 286.2 644.4 286.8 643.6 C287.5 642.8 288.2 641.9 289 641 C289.9 639.9 290.9 638.9 291.8 637.8 C297.8 631.0 303.4 624.0 308.7 616.7 C310.2 614.8 311.6 612.8 313.0 610.9 C325.5 594.0 336.2 576.4 345.7 557.6 C346.8 555.3 348.0 553.0 349.2 550.7 C363.6 523.0 372.5 492.4 379 462 C379.1 461.4 379.1 461.4 379.7 458.6 C381.9 448.6 383.2 438.6 384.2 428.5 C384.3 427.6 384.4 426.8 384.4 425.9 C389.5 373.6 384.6 321.0 367.9 271.2 C367.8 270.8 367.8 270.8 367.2 269.0 C355.5 234.2 339.4 200.3 317.3 170.8 C315.9 168.9 314.5 167.0 313.1 165.0 C306.7 156.4 300.1 148.1 293 140 C292.4 139.3 291.7 138.5 291.1 137.8 C289.4 135.8 287.7 133.9 286 132 C285.2 131.1 284.4 130.2 283.6 129.3 C282.8 128.4 282.0 127.4 281.2 126.5 C280.4 125.6 279.7 124.8 278.9 123.9 C277 122 277 122 275 122 C274.8 121.4 274.5 120.8 274.3 120.2 C272.8 117.6 271.0 116.0 268.7 114 C267.8 113.2 266.9 112.4 266.0 111.6 C265.5 111.2 265.0 110.8 264.5 110.3 C263.0 109.0 261.5 107.6 260.0 106.2 C252.1 98.7 243.7 92.0 234.9 85.4 C233.3 84.2 231.6 83.0 230.0 81.7 C216.0 70.7 200.5 61.5 184.8 53.0 C183.1 52.0 181.4 51.1 179.7 50.1 C145.6 30.9 107.0 19.8 68.9 12.5 C67.0 12.2 65.2 11.8 63.3 11.5 C17.0 2.5 -34.1 4.9 -80 15 Z " fill="currentColor" transform="translate(599,214)"/>
<path d="M0 0 C2.2 0.1 2.2 0.1 5 1 C5.6 2.0 6.1 3.0 6.7 4.0 C7.9 5.8 8.5 6.8 10.6 7.6 C12.6 7.9 14.5 8.1 16.6 8.1 C17.3 8.2 18.0 8.2 18.8 8.3 C20.4 8.4 22.0 8.5 23.5 8.6 C26.8 8.7 30.1 9.0 33.4 9.2 C35.1 9.3 36.7 9.4 38.3 9.5 C47.3 10.1 56.1 11.4 65 13 C66.9 13.3 68.7 13.6 70.6 13.9 C72.5 14.3 74.4 14.6 76.3 14.9 C76.7 15.0 76.7 15.0 78.9 15.4 C92.2 17.8 105.1 21.8 117.9 26.1 C118.6 26.4 119.4 26.6 120.1 26.8 C139.0 33.2 157.4 40.6 175 50 C175.9 50.5 176.9 51.0 177.8 51.5 C180.6 52.9 183.3 54.5 186 56 C186.3 56.2 186.3 56.2 187.9 57.1 C198.6 63.2 208.9 69.8 219 77 C219.5 77.4 220.1 77.8 220.7 78.2 C227.3 83.0 233.6 88.1 239.8 93.5 C243.8 96.9 243.8 96.9 246 98 C246 98.7 246 99.3 246 100 C246.5 100.2 247.1 100.5 247.7 100.7 C250.6 102.3 252.9 104.5 255.4 106.8 C255.6 107.0 255.6 107.0 256.9 108.2 C261.1 112.1 265.2 116.1 269.3 120.2 C269.9 120.7 270.4 121.3 271.0 121.9 C291.3 142.2 309.1 166.2 323.4 191.0 C324.8 193.3 325.8 194.9 328.1 196.3 C330.3 198.3 330.4 198.9 330.9 201.7 C331.9 205.8 333.4 209.2 335.3 213.0 C335.9 214.3 336.6 215.6 337.2 216.9 C337.5 217.5 337.9 218.2 338.2 218.9 C343.6 229.7 348.8 240.3 352.3 251.9 C353.1 254.3 353.9 256.8 354.8 259.2 C356.5 264.4 358.3 269.7 360 275 C360.2 275.6 360.4 276.3 360.6 276.9 C363.1 284.8 364.9 292.8 366.6 300.9 C366.8 301.9 367.0 302.9 367.3 303.9 C368.9 311.9 370.0 319.9 371 328 C371.1 328.6 371.1 329.2 371.2 329.8 C377.3 381.2 373.6 432.6 358 482 C357.7 482.8 357.5 483.7 357.2 484.5 C350.5 506.2 341.6 526.9 331 547 C330.8 547.5 330.8 547.5 329.5 549.9 C318.1 571.4 303.9 591.9 288.2 610.5 C287.0 612.0 285.8 613.5 284.5 615.0 C278.0 622.9 271.0 630.2 263.8 637.4 C263.5 637.7 263.5 637.7 262.3 638.9 C256.7 644.5 251.0 649.9 245 655 C244.5 655.4 244.0 655.8 243.6 656.2 C233.1 665.0 222.3 673.3 211 681 C210.4 681.4 209.9 681.8 209.3 682.1 C198.0 689.8 186.6 697.4 174.3 703.4 C171.8 704.6 169.4 705.8 167.0 707.2 C158.5 711.8 150.0 715.9 140.9 719.3 C138.7 720.1 136.5 721.0 134.4 721.9 C128.3 724.3 122.2 726.4 116.1 728.4 C115.5 728.6 114.9 728.8 114.3 729.0 C104.0 732.5 93.6 735.5 83 738 C82.4 738.1 81.8 738.3 81.2 738.4 C71.3 740.9 61.2 742.1 51.0 743.3 C47.0 743.7 43.0 744.3 38.9 745.0 C32.3 746.0 25.8 746.3 19.2 746.4 C18.0 746.4 16.8 746.4 15.6 746.4 C11.7 746.4 7.9 746.4 4.1 746.4 C3.4 746.4 2.8 746.4 2.1 746.4 C-20.0 746.5 -41.4 745.3 -63.2 741.3 C-64.9 741.0 -66.6 740.7 -68.3 740.4 C-103.9 734.1 -143.3 720.7 -173.8 701.4 C-176.3 699.8 -178.9 698.4 -181.4 697.1 C-186.6 694.3 -191.6 691.2 -196.5 688.0 C-198.1 686.9 -199.7 685.9 -201.4 684.8 C-224.7 669.8 -245.6 651.3 -265.3 631.9 C-266.0 631.2 -266.6 630.6 -267.3 629.9 C-267.9 629.3 -268.5 628.7 -269.2 628.1 C-269.7 627.5 -270.3 627.0 -270.8 626.4 C-272 625 -272 625 -272 623 C-272.7 623 -273.3 623 -274 623 C-275.4 621.5 -276.7 619.9 -277.9 618.3 C-278.7 617.3 -279.6 616.3 -280.4 615.2 C-280.8 614.7 -281.2 614.2 -281.7 613.6 C-283.0 612.0 -284.3 610.5 -285.7 608.9 C-292.8 600.7 -299.0 592.1 -305 583 C-305.4 582.4 -305.8 581.8 -306.2 581.2 C-308.9 577.1 -311.4 573.1 -314 569 C-314.4 568.4 -314.7 567.9 -315.1 567.3 C-357.0 500.5 -376.2 419.4 -368 341 C-367.9 340.0 -367.8 338.9 -367.7 337.9 C-364.1 301.5 -356.4 264.0 -340.0 231.0 C-338.2 227.4 -336.5 223.9 -334.8 220.3 C-333.8 218.3 -332.9 216.3 -331.9 214.3 C-329.8 210.0 -327.9 205.8 -326.5 201.1 C-325.1 196.8 -323.3 195.0 -320 192 C-318.6 190.0 -317.4 187.9 -316.1 185.8 C-313.3 181.0 -310.3 176.4 -307.0 171.8 C-305.4 169.6 -303.9 167.4 -302.3 165.1 C-296.1 156.1 -289.6 147.8 -282.4 139.6 C-279.4 136.1 -276.6 132.5 -273.7 128.9 C-273.2 128.3 -272.6 127.7 -272 127 C-271.3 127 -270.7 127 -270 127 C-269.8 126.5 -269.8 126.5 -269 124 C-268.3 124 -267.7 124 -267 124 C-266.8 123.4 -266.5 122.9 -266.3 122.3 C-264.7 119.5 -262.7 117.4 -260.4 115.2 C-259.9 114.7 -259.5 114.3 -259.0 113.9 C-255.8 110.7 -252.5 107.7 -249.0 104.7 C-245.9 102.1 -242.9 99.3 -239.9 96.5 C-238 95 -238 95 -236 95 C-236 94.3 -236 93.7 -236 93 C-232.5 90 -232.5 90 -230 90 C-230 89.3 -230 88.7 -230 88 C-228.0 86.3 -228.0 86.3 -225.2 84.4 C-224.2 83.7 -223.1 82.9 -222.1 82.2 C-221.6 81.8 -221.1 81.5 -220.5 81.1 C-218.3 79.5 -216.0 77.8 -213.8 76.1 C-207.4 71.5 -200.7 67.3 -193.9 63.2 C-192.2 62.1 -190.4 61.0 -188.6 59.9 C-181.1 55.1 -173.3 51.0 -165.2 47.1 C-163.0 46.0 -160.7 44.8 -158.5 43.7 C-137.0 32.8 -113.4 24.6 -90 19 C-89.7 18.9 -89.7 18.9 -87.9 18.5 C-67.2 13.4 -46.2 10.6 -25.0 8.6 C-24.4 8.6 -23.8 8.5 -23.2 8.4 C-20.3 8.2 -17.3 8.0 -14.3 7.8 C-13.7 7.8 -13.1 7.8 -12.5 7.7 C-10.9 7.6 -9.3 7.6 -7.7 7.5 C-4.5 6.9 -3.6 6.0 -1.7 3.4 C-0.6 1.5 -0.6 1.5 0 0 Z M-4 16 C-5.0 17.5 -6.0 19.1 -6.9 20.6 C-7.1 21.1 -7.1 21.1 -8.4 23.3 C-9.0 24.2 -9.5 25.1 -10 26 C-11.0 27.6 -12.0 29.3 -12.9 30.9 C-13.4 31.7 -13.9 32.5 -14.4 33.3 C-21.2 44.6 -27.9 55.9 -35.2 67.0 C-36.8 69.6 -38.3 72.4 -39.8 75.1 C-42.9 81.0 -46.4 86.5 -50 92.1 C-54.5 99.0 -58.8 105.9 -63 113 C-64.9 116.3 -66.9 119.5 -68.8 122.8 C-69.3 123.6 -69.8 124.5 -70.4 125.4 C-72.8 129.4 -75.2 133.4 -77.8 137.3 C-78.3 137.9 -78.7 138.5 -79.1 139.2 C-79.9 140.4 -80.8 141.5 -81.6 142.7 C-82.6 144.2 -82.6 144.2 -84 147 C-83.4 149.1 -83.4 149.1 -82 151 C-80.0 151.7 -80.0 151.7 -77.5 152.0 C-76.6 152.1 -75.6 152.2 -74.6 152.3 C-73.4 152.4 -72.3 152.5 -71.2 152.6 C-70.6 152.7 -70.0 152.7 -69.4 152.8 C-35.9 156.1 -1.8 156.9 31.9 155.1 C34.1 155.0 36.4 154.9 38.7 154.8 C43.5 154.6 48.4 154.3 53.2 154.1 C53.9 154.0 54.7 154.0 55.4 153.9 C60.3 153.7 65.1 153.4 70 153 C70.7 152.9 71.5 152.9 72.3 152.8 C74.5 152.6 76.7 152.4 78.9 152.2 C79.6 152.1 80.3 152.1 81.0 152.0 C83.9 151.7 85.6 151.5 87.6 149.2 C88.2 146.2 87.3 145.1 85.7 142.5 C85.1 141.7 84.6 140.8 84.0 139.9 C83.4 139.0 82.8 138.1 82.2 137.2 C81.0 135.3 79.7 133.4 78.5 131.4 C77.9 130.5 77.3 129.6 76.7 128.6 C74.6 125.3 72.5 122.0 70.6 118.6 C62.1 104.5 53.5 90.5 44.9 76.5 C37.3 64.2 29.8 51.8 22.4 39.3 C21.3 37.5 20.3 35.7 19.2 33.9 C18.2 32.3 17.2 30.6 16.2 28.9 C13.8 24.9 11.4 20.9 8.8 17 C8.4 16.3 7.9 15.5 7.4 14.8 C6 13 6 13 2.9 11.7 C-0.8 12.1 -1.6 13.2 -4 16 Z M-144.2 42.2 C-146.3 43.1 -148.3 44.0 -150.4 44.9 C-158.3 48.3 -165.8 51.9 -173.2 56.4 C-176.1 58.1 -179.1 59.5 -182.1 61 C-186.9 63.4 -191.2 66.1 -195.5 69.2 C-198.1 71.0 -200.7 72.7 -203.3 74.3 C-209.3 78.1 -214.8 82.3 -220.3 86.7 C-222.0 88.0 -223.7 89.3 -225.5 90.7 C-233.2 96.6 -240.4 102.9 -247.5 109.6 C-249.7 111.7 -252.0 113.7 -254.3 115.8 C-261.4 122.1 -267.8 128.8 -274 136 C-275.0 137.1 -275.9 138.2 -276.9 139.3 C-277.9 140.5 -279.0 141.7 -280 142.9 C-280.5 143.5 -281.0 144.1 -281.5 144.6 C-288.0 152.2 -293.9 160.1 -299.5 168.4 C-300.6 170.1 -301.8 171.8 -302.9 173.4 C-303.2 173.8 -303.2 173.8 -304.5 175.8 C-306.8 179.2 -309.2 182.6 -311.6 186.0 C-314.7 190.5 -314.7 190.5 -316 193 C-315.7 194.0 -315.3 195.0 -315 196 C-251.0 196 -187.0 196 -121 196 C-120.7 194.7 -120.3 193.4 -120 192 C-120.4 191.8 -120.9 191.6 -121.3 191.3 C-131.7 186.1 -131.7 186.1 -133.9 185.1 C-135.3 184.4 -136.7 183.7 -138.1 183.0 C-142.2 180.9 -146.2 178.8 -150.1 176.4 C-150.7 176.0 -151.2 175.7 -151.8 175.4 C-156.2 172.6 -160.4 169.7 -164.6 166.7 C-165.2 166.3 -165.8 165.8 -166.4 165.4 C-168.7 163.8 -170.8 162.2 -172.8 160.2 C-174 159 -174 159 -176 159 C-176.3 158.0 -176.7 157.0 -177 156 C-178.2 154.8 -178.2 154.8 -179.7 153.7 C-183.1 151.1 -185.5 148.1 -188.1 144.8 C-188.5 144.2 -188.9 143.6 -189.4 143.0 C-192.7 138.5 -195.6 134.0 -198 129 C-198.4 128.3 -198.8 127.6 -199.2 126.9 C-202.0 121.2 -202.4 115.9 -202.5 109.8 C-202.5 109.0 -202.5 108.2 -202.6 107.4 C-202.5 102.0 -201.4 99.2 -198 95 C-194.4 91.6 -191.0 89.1 -186.0 88.9 C-179.3 89.3 -174.2 91.6 -169.6 96.5 C-165.9 101.8 -166.6 107.8 -167 114 C-168.0 114 -169.0 114 -170 114 C-170.1 113.2 -170.2 112.4 -170.3 111.6 C-171.7 100.9 -171.7 100.9 -175.6 97.1 C-179.0 94.5 -182.4 93.8 -186.6 94.1 C-190.9 94.9 -193.8 97.2 -196.3 100.9 C-197.6 104.9 -197.5 108.4 -195.8 112.3 C-184.6 130.4 -152.2 137.5 -133 142 C-122.5 144.3 -111.8 146.5 -101.2 148.5 C-99.8 148.8 -98.3 149.2 -96.8 149.6 C-94.2 150.0 -92.5 149.9 -90 149 C-87.1 145.8 -85.3 142.1 -83.3 138.3 C-81.0 134.1 -78.4 130.1 -75.9 126.0 C-74.4 123.5 -72.9 121.0 -71.3 118.4 C-68.9 114.4 -66.4 110.3 -63.9 106.3 C-61.6 102.6 -59.4 98.9 -57.1 95.2 C-47.3 78.6 -47.3 78.6 -41.9 71.0 C-40.2 68.4 -38.8 65.7 -37.3 63.0 C-33.6 56.2 -29.6 49.7 -25.6 43.1 C-24.9 41.9 -24.2 40.7 -23.5 39.6 C-22.7 38.4 -22.0 37.2 -21.3 36.0 C-20.9 35.4 -20.6 34.9 -20.2 34.3 C-18.4 31.3 -16.6 28.3 -14.7 25.3 C-14.3 24.7 -13.9 24.1 -13.6 23.5 C-12.8 22.4 -12.1 21.3 -11.4 20.2 C-9.7 17.5 -9 16.2 -9 13 C-53.8 10.9 -104.1 22.7 -144.2 42.2 Z M13 13 C13.6 16.5 14.4 19.1 16.3 22.1 C16.8 22.9 17.3 23.7 17.8 24.5 C18.4 25.3 18.9 26.2 19.5 27.1 C20.7 29.0 21.9 30.9 23.1 32.8 C23.4 33.3 23.7 33.8 24.0 34.3 C27.8 40.3 31.5 46.4 35.2 52.6 C36.0 53.7 36.7 54.9 37.4 56.1 C38.5 57.9 39.6 59.7 40.7 61.5 C43.3 65.8 45.9 70.2 48.5 74.5 C61.0 95.0 61.0 95.0 65.8 102.9 C69.8 109.7 73.9 116.3 78.1 123.0 C80.8 127.4 83.5 131.8 86.0 136.3 C86.4 137.2 86.9 138.0 87.4 138.9 C88.3 140.5 89.1 142.1 90.0 143.7 C92.8 148.7 92.8 148.7 95.9 149.5 C98.3 149.6 100.6 149.4 103 149 C103.9 148.9 104.9 148.7 105.9 148.6 C109.1 148.1 112.3 147.5 115.5 146.9 C116.1 146.8 116.7 146.7 117.3 146.6 C183.2 134.1 183.2 134.1 199 113 C201.1 109.4 201.9 106.1 201 102 C199.2 98.7 196.9 96.5 193.7 94.6 C188.6 93.5 184.5 94.0 180.1 96.8 C176.3 100.7 175.7 103.9 175.4 109.2 C175.3 110.3 175.2 111.4 175.1 112.5 C175.1 112.9 175.1 112.9 175 115 C173.7 115 172.4 115 171 115 C170.2 100.4 170.2 100.4 175 95 C178.9 91.2 182.7 89 188.2 89 C192.9 89.4 196.1 90.3 200 93 C200.7 93 201.3 93 202 93 C202.1 93.3 202.1 93.3 202.9 94.8 C204 97.0 204 97.0 205.0 98.3 C208.4 104.2 207.3 113.2 205.7 119.6 C203.2 128.2 199.4 134.9 194 142 C193.4 142.8 192.8 143.6 192.2 144.5 C176.5 165.1 153.0 178.9 129.6 189.3 C127.7 190.1 125.9 191.0 124 192 C124.3 193.3 124.7 194.6 125 196 C189.4 196 253.7 196 320 196 C319.0 192.2 317.6 189.5 315.6 186.2 C315.4 185.9 315.4 185.9 314.5 184.5 C313.3 182.6 312.2 180.8 311 179 C310.6 178.4 310.2 177.8 309.8 177.2 C301.3 163.9 291.7 151.7 281.2 139.9 C280.7 139.3 280.2 138.7 279.7 138.1 C279.2 137.6 278.7 137.0 278.2 136.5 C277.0 135.0 277.0 135.0 276.0 133.3 C275.6 132.9 275.3 132.4 275 132 C274.3 132 273.7 132 273 132 C273 131.3 273 130.7 273 130 C272.3 130 271.7 130 271 130 C270.7 129.4 270.5 128.8 270.2 128.2 C268.9 125.8 267.5 124.3 265.6 122.4 C264.9 121.7 264.2 121.0 263.5 120.3 C262.8 119.6 262.1 118.9 261.4 118.2 C260.7 117.5 260.0 116.8 259.3 116.1 C254.7 111.5 249.9 107.2 245 103 C243.8 102.0 242.7 101.0 241.5 100.0 C234.6 93.9 227.6 88.3 220 83 C219.2 82.4 218.4 81.9 217.6 81.3 C215.1 79.5 212.6 77.8 210 76 C209.5 75.6 208.9 75.3 208.4 74.9 C199.0 68.4 189.4 62.6 179.3 57.3 C177.0 56.0 174.7 54.7 172.3 53.4 C162.0 47.8 151.4 43.1 140.4 38.9 C137.9 38.0 135.4 37.0 133.0 36.0 C119.0 30.4 104.7 25.6 90 22 C89.2 21.8 88.3 21.6 87.4 21.4 C63.4 15.6 37.8 11.8 13 13 Z M-179 132 C-175.1 141.7 -161.2 146.7 -152.4 150.8 C-150.6 151.7 -148.7 152.7 -146.9 153.6 C-138.6 157.9 -130.3 161.3 -121.4 164.1 C-120.8 164.3 -120.1 164.6 -119.5 164.8 C-108.9 168.2 -98.2 171.2 -87.3 173.5 C-85.1 174.0 -82.9 174.5 -80.8 175.0 C-69.8 177.7 -58.8 179.0 -47.7 180.2 C-46.9 180.3 -46.1 180.4 -45.4 180.4 C-30.0 182.1 -14.7 183.2 0.8 183.2 C1.2 183.3 1.2 183.3 3.2 183.3 C19.9 183.2 36.4 181.9 53 180 C54.0 179.9 55.1 179.8 56.2 179.6 C98.6 174.8 148.7 163.4 182 135 C182.3 134.0 182.7 133.0 183 132 C178.9 133.3 174.8 134.7 170.7 136.3 C141.3 147.9 110.6 153.1 79.3 156.4 C76.4 156.7 73.4 157.1 70.4 157.5 C-3.8 168.0 -95.8 163.7 -173.0 133.7 C-175.0 133.0 -176.9 132.5 -179 132 Z M-188 135 C-181.1 145.6 -181.1 145.6 -178 149 C-177.3 149 -176.7 149 -176 149 C-176 149.7 -176 150.3 -176 151 C-174.5 152.4 -172.9 153.8 -171.2 155.1 C-170.8 155.5 -170.3 155.9 -169.7 156.3 C-168.2 157.5 -166.6 158.8 -165 160 C-164.5 160.4 -164.0 160.8 -163.5 161.2 C-149.0 172.6 -132.4 182.7 -114.6 188.1 C-113 189 -113 189 -112.4 190.7 C-111.9 193.5 -111.9 196.2 -111.9 199.1 C-111.9 199.7 -111.9 200.3 -111.9 201.0 C-111.9 203.0 -111.9 205.1 -111.9 207.2 C-111.9 208.7 -111.9 210.1 -111.9 211.6 C-111.8 215.7 -111.8 219.8 -111.8 223.9 C-111.8 228.4 -111.8 232.8 -111.8 237.2 C-111.8 246.9 -111.8 256.5 -111.8 266.2 C-111.8 272.2 -111.8 278.3 -111.8 284.3 C-111.8 301.0 -111.8 317.7 -111.8 334.4 C-111.8 334.9 -111.8 334.9 -111.8 337.6 C-111.8 338.2 -111.8 338.2 -111.8 340.9 C-111.8 343.0 -111.8 345.2 -111.8 347.4 C-111.8 348.4 -111.8 349.5 -111.8 350.6 C-111.8 368.1 -111.7 385.6 -111.7 403.0 C-111.7 420.9 -111.7 438.8 -111.7 456.8 C-111.7 466.8 -111.7 476.9 -111.7 486.9 C-111.6 495.5 -111.6 504.1 -111.6 512.6 C-111.6 517.0 -111.6 521.4 -111.6 525.8 C-111.6 529.8 -111.6 533.8 -111.6 537.8 C-111.6 539.2 -111.6 540.7 -111.6 542.1 C-111.6 544.1 -111.6 546.0 -111.6 548.0 C-111.6 549.1 -111.6 550.2 -111.6 551.3 C-112 554 -112 554 -113.4 555.8 C-115.7 557.5 -118.1 558.5 -120.7 559.7 C-121.9 560.2 -123.0 560.7 -124.2 561.3 C-124.8 561.6 -125.4 561.8 -126.1 562.1 C-145.6 571.0 -163.3 582.2 -178.6 597.3 C-179.1 597.8 -179.6 598.3 -180.1 598.8 C-183.2 601.9 -185.6 605.2 -188 609 C-187.7 609.7 -187.3 610.3 -187 611 C-186.5 610.6 -186.0 610.1 -185.5 609.7 C-146.1 576.7 -92.2 563.3 -42 558 C-41.6 558.0 -41.6 558.0 -39.7 557.8 C-26.6 556.3 -13.6 555.7 -0.3 555.7 C2.5 555.7 5.3 555.7 8.1 555.7 C26.8 555.7 45.1 557.4 63.5 560.3 C64.2 560.4 64.9 560.5 65.6 560.6 C77.9 562.5 90.0 564.9 102 568 C102.7 568.2 103.5 568.4 104.2 568.6 C130.8 575.7 156.5 586.2 179.3 601.8 C181.7 603.5 184.1 605.1 186.6 606.7 C187.7 607.5 188.9 608.2 190 609 C188.7 603.3 185.9 600.3 181.7 596.2 C181.1 595.6 180.4 595.0 179.8 594.4 C170.7 585.7 160.8 578.5 150 572 C149.1 571.4 148.2 570.9 147.3 570.3 C141.2 566.6 134.9 563.5 128.4 560.6 C127.7 560.2 126.9 559.9 126.1 559.5 C125.3 559.2 124.6 558.8 123.8 558.5 C123.5 558.4 123.5 558.4 121.8 557.6 C120 557 120 557 117 557 C117 435.2 117 313.5 117 188 C119.0 187.7 121.0 187.3 123 187 C125.6 186.0 125.6 186.0 128.1 184.8 C129.1 184.4 130.0 183.9 131.0 183.5 C132.0 183.0 133.0 182.5 134 182 C134.5 181.8 134.5 181.8 137.1 180.5 C148.2 175.1 158.3 168.7 168 161 C168.9 160.3 169.8 159.6 170.7 158.9 C171.6 158.2 172.6 157.5 173.5 156.8 C174.4 156.1 175.2 155.4 176.1 154.7 C176.7 154.2 177.4 153.6 178 153 C178 152.3 178 151.7 178 151 C178.7 151 179.3 151 180 151 C180 150.3 180 149.7 180 149 C180.5 148.8 180.5 148.8 183 148 C184.2 146.8 184.2 146.8 185.3 145.3 C185.7 144.7 186.1 144.2 186.5 143.6 C186.7 143.4 186.7 143.4 187.7 141.9 C187.9 141.7 187.9 141.7 188.9 140.2 C190.0 138.8 191.0 137.4 192 136 C191.3 135.7 190.7 135.3 190 135 C189.3 135.5 188.6 136.1 187.9 136.7 C176.1 145.6 164.3 153.4 150.7 159.3 C149.2 159.9 147.7 160.6 146.2 161.3 C135.5 166.0 124.2 169.4 113 173 C112.7 173.1 112.7 173.1 110.9 173.7 C100.1 177.1 89.1 179.0 78 181 C77.4 181.1 76.7 181.2 76.1 181.3 C72.7 181.9 69.4 182.5 66 183 C65.0 183.2 64.1 183.3 63.1 183.5 C44.4 186.6 25.9 187.4 7.0 187.3 C4.3 187.3 1.7 187.3 -0.9 187.3 C-19.5 187.5 -37.6 186.4 -56 184 C-57.5 183.8 -59.0 183.6 -60.5 183.5 C-69.3 182.4 -77.8 180.7 -86.4 178.7 C-87.1 178.5 -87.7 178.4 -88.4 178.2 C-117.2 171.6 -148.0 162.7 -172 145 C-173.9 143.6 -175.8 142.3 -177.7 140.9 C-179.0 140.0 -180.2 139.1 -181.5 138.1 C-185.8 135 -185.8 135 -188 135 Z M-317 201 C-318 205 -318 205 -317.4 206.6 C-317.0 207.2 -316.7 207.7 -316.3 208.2 C-316.0 208.9 -315.6 209.5 -315.2 210.1 C-314.8 210.7 -314.4 211.3 -313.9 212 C-310.3 217.7 -307.2 223.4 -304.3 229.5 C-303.0 231.9 -301.7 234.1 -300.1 236.3 C-298.7 238.5 -297.5 240.7 -296.3 243.0 C-293.2 248.7 -290.0 254.3 -286.9 259.9 C-286.3 260.9 -285.8 261.9 -285.2 262.9 C-281.4 269.6 -277.6 276.3 -273.8 282.9 C-268.0 293.1 -262.2 303.2 -256.5 313.4 C-255.0 316.1 -253.5 318.9 -252 321.6 C-251.7 322.1 -251.4 322.6 -251.1 323.2 C-247.1 330.3 -243.1 337.3 -238.9 344.1 C-236.2 348.5 -233.8 353.0 -231.4 357.5 C-229.4 361.1 -227.2 364.6 -225 368 C-220.9 364.3 -218.3 360.5 -215.8 355.6 C-215.0 354.2 -214.2 352.7 -213.4 351.3 C-213.0 350.6 -212.6 349.9 -212.2 349.1 C-210.4 345.9 -208.6 342.8 -206.7 339.8 C-206.3 339.1 -206.0 338.5 -205.6 337.9 C-204.8 336.6 -204.0 335.3 -203.2 334.1 C-200.9 330.2 -198.6 326.4 -196.3 322.6 C-195.8 321.7 -195.3 320.9 -194.8 320.0 C-192.0 315.3 -189.2 310.6 -186.4 305.9 C-186.3 305.6 -186.3 305.6 -185.5 304.3 C-184.3 302.2 -183.1 300.2 -181.9 298.1 C-178.1 291.4 -174.1 284.9 -169.9 278.5 C-167.3 274.5 -165.0 270.3 -162.7 266.1 C-160.2 261.5 -157.4 257.1 -154.7 252.6 C-149.9 244.8 -145.1 236.9 -140.4 229.1 C-139.8 228.0 -139.2 227.0 -138.6 225.9 C-138.2 225.4 -137.9 224.9 -137.6 224.4 C-135.8 221.3 -133.9 218.2 -132.0 215.2 C-131.8 214.9 -131.8 214.9 -130.8 213.1 C-130.0 211.9 -129.2 210.6 -128.4 209.4 C-126.5 206.2 -126 204.9 -126 201 C-189.0 201 -252.1 201 -317 201 Z M130 201 C130.9 206.3 131.9 209.0 134.6 213.3 C135.4 214.6 136.3 216.0 137.1 217.3 C137.5 218.0 138.0 218.8 138.5 219.5 C140.2 222.3 141.9 225.1 143.6 228.0 C143.9 228.5 144.2 229.0 144.5 229.6 C145.2 230.6 145.8 231.7 146.5 232.8 C151.0 240.5 155.6 248.1 160.4 255.6 C168.3 268.3 175.9 281.2 183.4 294.1 C188.4 302.7 193.5 311.2 198.6 319.7 C202.2 325.6 205.7 331.7 209.2 337.7 C213.6 345.3 218.1 352.9 222.8 360.4 C223.0 360.8 223.0 360.8 224.0 362.4 C226.8 366.9 226.8 366.9 229 368 C234.2 359.9 239.2 351.9 243.4 343.2 C245.7 338.5 248.4 334.1 251.0 329.7 C254.2 324.4 257.2 319.1 260.1 313.8 C263.6 307.5 267.2 301.3 271.0 295.3 C273.6 291.2 275.8 286.9 278.1 282.6 C288.6 263.3 299.3 244.1 310.7 225.3 C312.7 221.7 314.7 218.1 316.6 214.5 C317.8 212.3 319.1 210.2 320.4 208.1 C322 205 322 205 321 201 C258.0 201 194.9 201 130 201 Z M-120 203 C-120.6 204.0 -121.1 205.0 -121.7 206.0 C-122.5 207.4 -123.2 208.8 -124 210.2 C-124.4 210.8 -124.7 211.5 -125.1 212.2 C-128.9 218.9 -132.9 225.4 -137 232 C-138.3 234.1 -139.5 236.1 -140.8 238.2 C-141.1 238.7 -141.5 239.2 -141.8 239.7 C-148.4 250.4 -154.9 261.1 -161.3 272.0 C-165.1 278.5 -169.0 284.8 -172.9 291.2 C-176.6 297.1 -180.1 302.9 -183.4 309.0 C-185.7 313.3 -188.2 317.5 -190.8 321.6 C-191.0 322.1 -191.0 322.1 -192.3 324.3 C-192.6 324.7 -192.6 324.7 -193.9 326.9 C-200.9 338.5 -207.7 350.1 -214.4 361.8 C-214.6 362.2 -214.6 362.2 -215.8 364.1 C-215.9 364.5 -215.9 364.5 -216.9 366.2 C-218 368 -218 368 -219.1 369.4 C-220.5 372.0 -220.3 374.1 -220 377 C-218.9 379.6 -218.9 379.6 -217.3 382.2 C-216.7 383.2 -216.1 384.2 -215.5 385.2 C-214.9 386.2 -214.3 387.3 -213.6 388.3 C-213.0 389.4 -212.3 390.5 -211.7 391.5 C-210.4 393.7 -209.1 395.8 -207.8 398.0 C-205.8 401.4 -203.7 404.8 -201.7 408.3 C-198.4 414.0 -195.1 419.5 -191.3 424.9 C-189.3 428.1 -187.5 431.5 -185.8 434.8 C-182.0 441.6 -178.0 448.3 -174 455 C-173.6 455.6 -173.3 456.2 -172.9 456.9 C-167.5 466.0 -161.9 475.1 -156.4 484.2 C-152.4 490.6 -148.5 497.1 -144.6 503.6 C-140.8 510.0 -137.0 516.3 -133.1 522.6 C-130.4 527.0 -127.7 531.4 -125 535.8 C-124.5 536.6 -124.0 537.4 -123.5 538.3 C-122.3 540.2 -121.2 542.1 -120 544 C-119.0 543.7 -118.0 543.3 -117 543 C-117.0 500.0 -117.0 456.9 -116.9 413.9 C-116.9 408.8 -116.9 403.8 -116.9 398.7 C-116.9 397.7 -116.9 396.7 -116.9 395.6 C-116.9 379.3 -116.9 362.9 -116.9 346.5 C-116.9 329.7 -116.9 312.9 -116.9 296.1 C-116.9 285.8 -116.9 275.4 -116.9 265.0 C-116.9 257.9 -116.9 250.8 -116.9 243.7 C-116.9 239.6 -116.9 235.5 -116.9 231.4 C-116.9 227.6 -116.9 223.9 -116.9 220.1 C-116.9 218.8 -116.9 217.4 -116.9 216.1 C-116.9 214.2 -116.9 212.4 -116.9 210.5 C-116.9 209.5 -116.9 208.5 -116.9 207.4 C-117 205 -117 205 -118 203 C-118.7 203 -119.3 203 -120 203 Z M122 203 C121.2 206.7 120.9 210.1 120.9 213.8 C120.9 214.4 120.9 215.0 120.9 215.6 C120.9 217.5 120.9 219.4 120.9 221.3 C120.9 222.7 120.9 224.1 120.9 225.5 C120.9 229.3 120.9 233.1 120.9 236.9 C120.9 241.0 120.8 245.1 120.8 249.2 C120.8 257.2 120.8 265.3 120.8 273.3 C120.8 279.8 120.8 286.3 120.8 292.9 C120.8 311.4 120.8 329.9 120.8 348.4 C120.8 349.4 120.8 350.4 120.8 351.4 C120.8 352.4 120.8 353.4 120.8 354.4 C120.8 370.6 120.8 386.8 120.8 403.0 C120.8 419.6 120.8 436.3 120.8 452.9 C120.8 462.2 120.8 471.6 120.8 480.9 C120.7 488.8 120.7 496.8 120.8 504.7 C120.8 508.8 120.8 512.9 120.7 516.9 C120.7 520.6 120.7 524.3 120.8 528.0 C120.8 529.4 120.8 530.7 120.7 532.1 C120.7 533.9 120.7 535.7 120.8 537.5 C120.8 538.6 120.8 539.6 120.8 540.6 C121 543 121 543 123 545 C127.0 539.1 130.8 533.2 134.4 527.1 C138.8 519.6 143.3 512.2 147.9 504.8 C154.4 494.3 160.7 483.8 166.9 473.2 C170.4 467.3 173.9 461.4 177.5 455.6 C181.3 449.2 185.1 442.8 188.8 436.4 C192.6 430.1 196.4 423.8 200.4 417.6 C202.0 415.1 203.4 412.5 204.8 409.9 C207.9 404.1 211.3 398.3 214.7 392.6 C215.0 392.1 215.0 392.1 216.4 389.7 C220.9 382.1 220.9 382.1 222.7 379.6 C224.3 376.4 224.4 374.5 224 371 C222.8 368.2 222.8 368.2 221.1 365.4 C220.8 364.9 220.5 364.4 220.2 363.9 C219.2 362.2 218.3 360.5 217.2 358.9 C216.6 357.7 215.9 356.5 215.2 355.3 C213.1 351.9 211.1 348.4 209 345 C208.0 343.3 207.0 341.6 205.9 339.9 C204.5 337.5 203.1 335.2 201.7 332.8 C197.2 325.4 192.9 318.0 188.5 310.5 C182.2 299.7 175.9 289.0 169.4 278.4 C166.9 274.2 164.5 270.1 162 266 C161.0 264.3 160.0 262.7 159.0 261.0 C152.9 250.8 152.9 250.8 151.3 248.2 C150.3 246.6 149.3 244.9 148.3 243.2 C146.0 239.4 143.8 235.6 141.5 231.9 C137.3 224.8 133.0 217.8 128.7 210.8 C127.6 208.9 126.5 207.0 125.4 205.1 C124.9 204.4 124.5 203.7 124 203 C123.3 203 122.7 203 122 203 Z M-324.1 209.1 C-328.3 214.9 -331.1 221.4 -333.9 227.9 C-334.5 229.2 -335.0 230.4 -335.5 231.6 C-354.8 275.8 -365.2 323.5 -365.2 371.8 C-365.2 374.7 -365.2 377.5 -365.2 380.4 C-365.3 391.4 -364.7 402.2 -363.2 413.1 C-362.9 415.8 -362.6 418.4 -362.4 421.1 C-360.0 442.1 -355.5 462.8 -349 483 C-348.6 484.2 -348.3 485.4 -347.9 486.6 C-341.8 505.7 -334.0 524.1 -325 542 C-323.2 541.8 -323.2 541.8 -321 541 C-319.5 538.8 -319.5 538.8 -318.1 536.1 C-316.2 532.2 -314.1 528.5 -311.9 524.8 C-309.7 521.3 -307.8 517.7 -306.1 514.0 C-304.8 511.7 -303.5 509.5 -302.1 507.2 C-299.9 503.6 -298.0 500.0 -296.1 496.2 C-294.1 492.0 -291.8 488.0 -289.3 484.0 C-285.4 477.7 -281.8 471.3 -278.2 464.8 C-276.5 461.7 -274.8 458.5 -273.0 455.3 C-272.7 454.7 -272.3 454.1 -272.0 453.4 C-265.0 440.8 -257.9 428.3 -250.5 415.9 C-248.3 412.3 -246.2 408.5 -244.1 404.8 C-242.0 400.8 -239.8 396.9 -237.6 393.1 C-237.0 392.1 -236.4 391.1 -235.9 390.1 C-235.0 388.6 -234.1 387.1 -233.2 385.6 C-232.4 384.1 -231.5 382.6 -230.6 381.1 C-230.1 380.3 -229.6 379.4 -229.1 378.5 C-227.9 375.7 -227.6 374.0 -228 371 C-228.9 369.0 -228.9 369.0 -230.2 367.0 C-230.7 366.2 -231.1 365.5 -231.6 364.7 C-232.1 363.9 -232.6 363.2 -233.1 362.4 C-234.1 360.8 -235.2 359.1 -236.2 357.5 C-236.7 356.7 -237.2 356.0 -237.7 355.2 C-239.8 351.7 -241.7 348.1 -243.7 344.4 C-245.0 341.9 -246.5 339.5 -248 337.1 C-250.1 333.6 -252.0 330.1 -253.8 326.4 C-256.5 320.8 -259.6 315.5 -262.8 310.2 C-266.6 303.8 -270.2 297.2 -273.9 290.7 C-278.7 281.9 -283.8 273.3 -289.0 264.7 C-292.2 259.4 -295.1 254.0 -297.8 248.3 C-299.0 245.9 -300.4 243.8 -302.0 241.6 C-303.9 238.6 -305.5 235.5 -307.1 232.4 C-309.5 228.1 -311.9 223.8 -314.2 219.5 C-314.7 218.7 -315.1 217.9 -315.6 217.1 C-316.0 216.4 -316.4 215.6 -316.8 214.8 C-317.0 214.5 -317.0 214.5 -318.0 212.8 C-320.0 209.3 -320.0 209.3 -321 208 C-323 208 -323 208 -324.1 209.1 Z M325 208 C324.6 208.7 324.2 209.4 323.8 210.1 C322.1 213.3 320.3 216.5 318.5 219.7 C318.2 220.3 317.9 220.8 317.5 221.4 C313.4 228.9 309.1 236.3 304.5 243.5 C302.8 246.3 301.4 249.1 300.0 252.1 C298.4 255.3 296.4 258.3 294.6 261.4 C292.5 264.8 290.6 268.3 288.7 271.8 C269.2 308.0 269.2 308.0 258.6 324.7 C255.9 329.0 253.7 333.6 251.4 338.2 C249.7 341.6 247.7 344.9 245.7 348.2 C243.1 352.5 240.6 356.9 238.2 361.4 C237.8 362.0 237.4 362.7 237.1 363.4 C236.7 364.0 236.4 364.6 236.0 365.3 C235 367 235 367 233.2 369.6 C231.5 373.0 231.9 374.4 233 378 C234.6 381.3 236.4 384.4 238.3 387.6 C239.4 389.5 240.5 391.3 241.6 393.2 C242.2 394.2 242.7 395.2 243.3 396.1 C245.9 400.5 248.4 405.0 250.9 409.4 C251.4 410.2 251.9 411.1 252.4 412.0 C259.6 424.5 266.8 437.1 273.7 449.8 C275.0 452.1 276.3 454.4 277.6 456.7 C277.9 457.3 278.2 457.8 278.5 458.4 C283.2 466.9 288.0 475.2 293.1 483.4 C296.3 488.7 299.2 494.1 301.8 499.7 C303.0 502.1 304.4 504.2 305.9 506.3 C308.1 509.7 309.7 513.3 311.4 516.9 C312.9 519.7 314.4 522.5 316.0 525.2 C317.0 527.0 318.0 528.9 319 530.7 C319.3 531.3 319.7 531.9 320 532.5 C320.7 533.8 321.3 535.0 322 536.3 C322.3 536.9 322.7 537.5 323 538.1 C323.3 538.6 323.6 539.2 323.9 539.7 C325.4 541.4 326.8 541.6 329 542 C347.3 503.3 360.3 464.7 366.8 422.2 C366.8 421.8 366.8 421.8 367.1 419.9 C368.5 409.9 369.2 399.9 369.2 389.8 C369.2 389.3 369.2 389.3 369.3 386.7 C369.3 383.4 369.3 380.1 369.3 376.8 C369.3 375.7 369.3 374.6 369.3 373.4 C369.3 354.3 368.2 335.8 365 317 C364.9 316.5 364.9 316.5 364.5 314.0 C363.5 308.3 362.3 302.6 361 297 C360.8 296.3 360.7 295.6 360.5 294.9 C359.4 290.2 358.2 285.6 357 281 C356.8 280.4 356.7 279.8 356.5 279.2 C351.0 258.9 344.0 238.7 334.7 219.9 C334.5 219.6 334.5 219.6 333.7 218.0 C331.8 214.3 329.8 211.1 327 208 C326.3 208 325.7 208 325 208 Z M-225 380 C-230.2 388.1 -235.2 396.1 -239.4 404.8 C-241.7 409.5 -244.4 413.9 -247.1 418.3 C-250.1 423.4 -253.0 428.5 -255.8 433.7 C-259.6 440.7 -263.7 447.5 -267.8 454.4 C-271.6 460.8 -275.3 467.3 -278.5 474.1 C-280.7 478.4 -283.3 482.6 -285.8 486.8 C-289.7 493.4 -293.4 500.0 -297.1 506.7 C-297.7 507.8 -298.3 508.9 -298.9 510.0 C-299.8 511.5 -300.7 513.1 -301.6 514.7 C-303.9 518.8 -306.2 522.9 -308.5 526.9 C-308.8 527.5 -309.1 528.0 -309.4 528.6 C-311.8 532.8 -314.4 536.9 -317.1 540.9 C-318 543 -318 543 -317 547 C-254.0 547 -190.9 547 -126 547 C-125 543 -125 543 -126.1 540.7 C-126.6 539.8 -127.2 538.9 -127.8 538.1 C-128.4 537.1 -129.0 536.1 -129.6 535.1 C-130.0 534.6 -130.3 534.1 -130.6 533.6 C-132.1 531.4 -133.4 529.3 -134.8 527.1 C-135.5 526.0 -136.3 524.9 -137.0 523.8 C-140.0 519.0 -143.0 514.1 -145.9 509.2 C-150.2 501.9 -154.6 494.7 -159.0 487.4 C-165.5 476.8 -171.9 466.2 -178.3 455.5 C-178.7 454.9 -179.1 454.2 -179.5 453.6 C-182.6 448.4 -185.7 443.2 -188.8 437.9 C-190.4 435.3 -192.0 432.6 -193.6 429.9 C-193.9 429.5 -193.9 429.5 -195.1 427.5 C-197.8 423.0 -200.6 418.4 -203.4 413.9 C-205.7 410.2 -207.8 406.5 -209.9 402.7 C-212.5 397.8 -215.3 393.1 -218.2 388.4 C-218.7 387.7 -219.1 387.0 -219.6 386.2 C-220.0 385.6 -220.4 384.9 -220.8 384.2 C-221.0 383.9 -221.0 383.9 -222.0 382.4 C-223 381 -223 381 -225 380 Z M227 380 C226.5 380.8 226.1 381.6 225.6 382.5 C220.6 391.3 215.4 400.1 210.3 408.9 C209.1 410.9 207.9 412.9 206.7 415.0 C199.8 426.7 192.8 438.3 185.8 450.0 C183.2 454.4 180.5 458.9 177.8 463.3 C176.8 464.9 175.9 466.5 174.9 468.1 C172.9 471.5 170.9 474.9 168.9 478.2 C164.3 485.8 159.7 493.5 155.1 501.0 C151.5 506.7 148.1 512.5 144.7 518.2 C142.1 522.6 139.4 526.9 136.8 531.2 C136.2 532.0 135.7 532.8 135.2 533.7 C134.2 535.2 133.2 536.8 132.2 538.4 C131.8 539.1 131.3 539.8 130.9 540.5 C130.5 541.1 130.1 541.7 129.7 542.3 C129 544 129 544 130 547 C193.0 547 256.1 547 321 547 C322 543 322 543 321.4 541.4 C321.0 540.8 320.7 540.3 320.3 539.8 C320.0 539.1 319.6 538.5 319.2 537.9 C319.0 537.6 319.0 537.6 317.9 536 C317.1 534.7 316.3 533.3 315.4 532.0 C315.0 531.3 314.6 530.6 314.2 529.9 C312.0 526.3 310.2 522.6 308.4 518.8 C305.9 513.8 303.1 509.1 300.2 504.4 C294.5 495.0 289.2 485.4 283.8 475.7 C283.5 475.1 283.2 474.5 282.8 473.9 C282.5 473.3 282.2 472.8 281.9 472.2 C274.2 458.3 266.4 444.6 258.5 430.9 C255.4 425.4 252.2 419.9 249.1 414.3 C246.9 410.5 244.8 406.6 242.6 402.8 C241.5 400.9 240.5 399.0 239.4 397.2 C237.9 394.5 236.4 391.8 234.9 389.1 C234.4 388.3 234.0 387.5 233.5 386.7 C233.1 385.9 232.7 385.2 232.2 384.4 C231.9 383.8 231.5 383.2 231.1 382.5 C230 381 230 381 227 380 Z M-318 552 C-317.0 556.1 -315.4 559.0 -313.2 562.6 C-312.9 563.2 -312.5 563.9 -312.1 564.5 C-300.7 583.0 -287.7 600.0 -273.5 616.3 C-272.5 617.5 -271.4 618.7 -270.4 619.8 C-266.0 625.0 -261.2 629.9 -256.4 634.8 C-255.1 636.1 -253.8 637.4 -252.5 638.7 C-241.5 649.7 -241.5 649.7 -237 653 C-236.3 653 -235.7 653 -235 653 C-235 653.7 -235 654.3 -235 655 C-233.6 656.3 -233.6 656.3 -231.7 657.8 C-231.3 658.0 -231.3 658.0 -229.5 659.4 C-228.7 660.0 -228.0 660.5 -227.2 661.1 C-226.4 661.7 -225.6 662.3 -224.8 662.9 C-222.6 664.6 -220.3 666.3 -218 668 C-217.7 668.2 -217.7 668.2 -216.3 669.3 C-209.9 674.0 -203.5 678.5 -197 683 C-196.3 683.5 -195.5 684.0 -194.8 684.6 C-190.0 687.8 -185.2 690.6 -180.1 693.3 C-177.9 694.5 -175.8 695.7 -173.6 697.0 C-161.6 704.1 -148.9 709.6 -136 715 C-135.0 715.4 -133.9 715.9 -132.8 716.3 C-127.4 718.6 -122.0 720.8 -116.3 722.6 C-116.0 722.7 -116.0 722.7 -114.4 723.3 C-113.2 723.7 -111.9 724.1 -110.7 724.5 C-108.5 725.2 -106.3 725.9 -104.1 726.6 C-103.5 726.8 -102.8 727.1 -102.2 727.3 C-100.8 727.7 -99.5 728.2 -98.2 728.7 C-90.7 731.3 -83.0 732.9 -75.3 734.5 C-74.6 734.7 -73.9 734.8 -73.1 735.0 C-60.8 737.6 -48.5 739.7 -36 741 C-35.7 741.0 -35.7 741.0 -34.0 741.2 C-23.7 742.3 -13.4 742.1 -3 742 C-3.6 737.8 -4.9 735.1 -7.2 731.6 C-7.9 730.5 -8.7 729.3 -9.4 728.1 C-9.8 727.5 -10.2 726.8 -10.6 726.2 C-13.3 721.9 -15.9 717.6 -18.5 713.3 C-24.1 704.1 -29.7 695.0 -35.4 685.8 C-39.1 679.7 -42.9 673.6 -46.6 667.4 C-50.8 660.3 -55.1 653.4 -59.5 646.4 C-63.2 640.5 -66.9 634.5 -70.5 628.5 C-74.6 621.6 -78.8 614.9 -83 608.1 C-83.3 607.6 -83.7 607.0 -84.0 606.5 C-85.0 604.9 -86.0 603.4 -86.9 601.8 C-87.5 600.9 -88.1 600.0 -88.7 599.1 C-90 597 -90 597 -91 596 C-97.3 595.7 -103.2 596.5 -109.4 597.6 C-109.9 597.6 -109.9 597.6 -112.4 598.1 C-177.4 610.1 -177.4 610.1 -195.2 632.6 C-197.3 636.0 -197.3 639.3 -196.7 643.1 C-195.3 646.9 -192.6 649.2 -189 651 C-184.7 651.4 -181.1 651.5 -177.1 649.8 C-173.6 646.9 -171.9 644.4 -171 640 C-170.9 638.4 -170.9 636.8 -170.9 635.2 C-170.9 634.5 -171.0 633.7 -171.0 632.8 C-171.0 632.2 -171.0 631.6 -171 631 C-169.7 631.3 -168.4 631.7 -167 632 C-166.3 644.5 -166.3 644.5 -169.7 649.6 C-172.9 653.1 -177.0 655.7 -181.8 656.2 C-186.2 656.3 -189.5 655.7 -193.5 653.8 C-195 653 -195 653 -198 652 C-199.1 650.2 -199.1 650.2 -200 648 C-200.3 647.5 -200.7 646.9 -201.0 646.4 C-204.2 638.6 -202.9 627.6 -199.9 620 C-192.6 603.8 -179.9 590.8 -166 580 C-165.6 579.6 -165.6 579.6 -163.3 577.9 C-152.8 569.8 -140.9 563.8 -129 558 C-127.5 557.2 -125.9 556.5 -124.4 555.7 C-123.2 555.1 -122.1 554.6 -121 554 C-121 553.3 -121 552.7 -121 552 C-186.0 552 -251.0 552 -318 552 Z M126 552 C126 553.0 126 554.0 126 555 C127.0 555.4 127.9 555.8 128.9 556.2 C159.3 568.8 190.9 590.0 204.5 621.2 C206.1 626.2 206.4 631.0 206.6 636.2 C206.6 637.0 206.6 637.8 206.6 638.5 C206.6 644.3 204.9 647.8 201 652 C196.7 655.5 191.7 656.7 186.2 656.4 C181.7 655.6 177.8 653.9 174.6 650.5 C171.6 646.1 170.9 642.5 170.9 637.3 C170.9 636.3 171.0 635.3 171.0 634.3 C171.0 633.5 171.0 632.8 171 632 C172.3 631.7 173.6 631.3 175 631 C175.0 631.9 175.0 632.7 175.0 633.6 C175.5 644.2 175.5 644.2 178.4 647.8 C182.4 651.2 185.7 651.3 190.8 651.2 C193.9 650.9 195.6 650.1 198 648 C200.2 644.8 201.3 642.1 201.2 638.2 C199.9 631.2 194.7 626.5 189.0 622.6 C168.8 610.3 145.0 603.7 122 599 C121.0 598.8 120.0 598.6 119.0 598.4 C116.0 597.8 113.0 597.2 110 596.6 C109.1 596.4 108.1 596.3 107.2 596.1 C106.3 595.9 105.5 595.8 104.6 595.6 C103.8 595.5 103.0 595.3 102.3 595.2 C99.5 595.0 97.6 595.1 95 596 C93.2 598.2 93.2 598.2 91.5 601.0 C91.3 601.3 91.3 601.3 90.5 602.6 C89.5 604.3 88.5 606.0 87.5 607.8 C86.8 608.9 86.1 610.1 85.4 611.3 C83.9 613.7 82.5 616.2 81.0 618.6 C78.3 623.3 75.4 627.9 72.5 632.5 C67.3 640.9 62.1 649.3 57.0 657.7 C51.9 665.9 46.9 674.0 41.8 682.2 C38.9 686.8 36.1 691.5 33.3 696.1 C33.0 696.6 32.7 697.1 32.3 697.7 C30.8 700.1 29.3 702.6 27.8 705.1 C25.2 709.4 22.6 713.6 19.8 717.8 C17.6 721.0 15.7 724.2 13.9 727.7 C12.3 730.7 10.6 733.7 8.6 736.5 C7 739 7 739 7 742 C39.1 742.7 73.7 738.8 104.2 728.0 C107.1 727.0 110.1 726.1 113.1 725.2 C127.2 720.9 140.8 715.5 154 709 C155.3 708.4 156.6 707.8 157.9 707.1 C173.1 699.7 187.9 691.5 202 682 C202.6 681.6 203.3 681.2 203.9 680.7 C211.7 675.5 219.4 670.0 227 664.4 C227.7 663.9 228.4 663.4 229.1 662.9 C229.8 662.4 230.4 661.9 231.1 661.4 C231.6 661.0 232.2 660.6 232.8 660.2 C233.2 659.8 233.6 659.4 234 659 C234 658.3 234 657.7 234 657 C234.5 656.8 235.1 656.6 235.6 656.3 C238.8 654.6 241.2 652.3 243.8 649.8 C244.7 648.9 245.7 647.9 246.7 647.0 C247.3 646.5 247.8 646.0 248.3 645.5 C250.1 643.9 252.0 642.3 253.9 640.7 C264.4 631.5 274.3 621.5 282.8 610.5 C284.2 608.7 285.6 607.0 287.0 605.3 C299.0 591.0 309.0 575.7 318.8 559.8 C320 558 320 558 321.2 556.4 C322 555 322 555 322 552 C257.3 552 192.6 552 126 552 Z M-81.4 569 C-82.0 569.1 -82.6 569.2 -83.2 569.4 C-102.3 573.3 -121.3 579.0 -139 587 C-139.6 587.3 -140.3 587.6 -140.9 587.9 C-154.3 593.8 -168.3 600.8 -179 611 C-179 611.7 -179 612.3 -179 613 C-174.4 611.5 -169.8 610.0 -165.3 608.2 C-132.4 595.5 -97.7 590.1 -62.7 586.6 C-59.4 586.3 -56.1 585.9 -52.8 585.5 C-2.6 579.1 52.2 582.8 102 591 C102.9 591.1 103.8 591.3 104.7 591.4 C129.9 595.5 154.8 601.1 178.1 611.9 C181 613 181 613 184 612 C178.1 606.4 172.1 601.9 165 598 C164.1 597.5 163.2 597.0 162.2 596.5 C149.2 589.3 136.0 583.3 121.9 578.6 C120.2 578.1 118.6 577.5 117.0 577.0 C105.2 573.1 93.0 570.7 81 568 C80.6 567.9 80.6 567.9 78.7 567.5 C60.8 563.4 42.5 561.9 24.2 560.8 C23.8 560.8 23.8 560.8 22.0 560.7 C-12.8 558.7 -47.4 562.0 -81.4 569 Z M-74.3 592.6 C-75.4 592.8 -76.4 592.9 -77.5 593.0 C-80.0 593.4 -82.5 593.7 -85 594 C-84.4 597.7 -83.5 600.2 -81.5 603.4 C-81.0 604.2 -80.4 605.0 -79.9 605.9 C-79.3 606.8 -78.8 607.7 -78.2 608.6 C-77.0 610.5 -75.8 612.4 -74.6 614.2 C-74.3 614.7 -74.3 614.7 -72.8 617.2 C-70.1 621.4 -67.5 625.8 -64.9 630.1 C-60.7 637.3 -56.3 644.3 -51.9 651.3 C-46.9 659.1 -42.2 666.9 -37.4 674.8 C-32.8 682.4 -28.2 689.9 -23.4 697.4 C-19.8 703.1 -16.3 708.9 -13.0 714.8 C-8.9 722.0 -4.4 729.0 0 736 C2.3 735.9 2.3 735.9 5 735 C6.5 732.9 7.7 731.0 8.8 728.8 C12.3 722.2 16.1 716.0 20.0 709.7 C21.6 707.0 23.2 704.4 24.9 701.7 C26.2 699.6 27.5 697.5 28.8 695.4 C28.9 695.1 28.9 695.1 29.8 693.7 C34.2 686.6 38.6 679.5 43.1 672.4 C48.0 664.7 52.7 656.8 57.5 648.9 C62.1 641.0 66.9 633.3 71.8 625.6 C76.0 619.0 80.1 612.4 84.0 605.7 C84.7 604.5 85.4 603.3 86.1 602.1 C86.5 601.5 86.9 600.9 87.2 600.3 C87.6 599.7 87.9 599.2 88.3 598.6 C89 597 89 597 89 594 C85.1 593.4 81.3 592.9 77.4 592.3 C76.1 592.2 74.8 592.0 73.5 591.8 C71.6 591.5 69.7 591.2 67.8 591.0 C67.2 590.9 67.2 590.9 64.4 590.5 C51.5 588.9 38.6 588.8 25.7 588.8 C23.8 588.8 22.0 588.8 20.2 588.8 C16.4 588.8 12.5 588.8 8.7 588.8 C3.9 588.8 -1.0 588.8 -5.8 588.8 C-9.6 588.8 -13.4 588.8 -17.2 588.8 C-18.9 588.8 -20.7 588.8 -22.5 588.8 C-39.9 588.7 -57.1 590.4 -74.3 592.6 Z " fill="currentColor" transform="translate(598,226)"/>
<path d="M0 0 C0.3 1.7 0.7 3.3 1 5 C-1.0 4.3 -3.0 3.7 -5 3 C-5.3 4.7 -5.7 6.3 -6 8 C-6.7 8 -7.3 8 -8 8 C-8.4 1.5 -8.4 1.5 -6.8 -0.5 C-4.3 -1.2 -2.5 -0.7 0 0 Z " fill="currentColor" transform="translate(427,242)"/>
<path d="M0 0 C2.6 1.7 3.0 2.9 3.9 5.9 C4 9 4 9 2.4 11.8 C-0.5 14.5 -2.0 15.1 -6 15 C-9.1 13.2 -10.6 11.9 -12 8.6 C-12 4.7 -10.3 2.4 -7.7 -0.4 C-4.9 -1.4 -2.8 -0.8 0 0 Z " fill="currentColor" transform="translate(604,278)"/>
<path d="M0 0 C3 1 3 1 4 3 C4.1 5.0 4.1 7.0 4.1 9.0 C4.1 9.3 4.1 9.3 4.1 10.9 C4.1 13.0 4.1 15.1 4.1 17.2 C4.1 18.7 4.1 20.2 4.1 21.7 C4.1 25.8 4.1 29.9 4.1 34.0 C4.1 38.3 4.1 42.5 4.1 46.8 C4.1 54.0 4.1 61.2 4.1 68.4 C4.1 76.7 4.1 85.0 4.1 93.3 C4.1 100.4 4.1 107.5 4.1 114.6 C4.1 118.9 4.1 123.2 4.1 127.4 C4.1 131.4 4.1 135.4 4.1 139.4 C4.1 140.9 4.1 142.4 4.1 143.8 C4.1 145.8 4.1 147.8 4.1 149.8 C4.1 151.0 4.1 152.1 4.1 153.2 C4 156 4 156 3 159 C1.4 158.7 -0.3 158.3 -2 158 C-2.0 137.7 -2.1 117.4 -2.1 97.1 C-2.1 87.7 -2.1 78.2 -2.2 68.8 C-2.2 60.6 -2.2 52.4 -2.2 44.2 C-2.2 39.8 -2.2 35.5 -2.2 31.1 C-2.2 27.0 -2.2 22.9 -2.2 18.8 C-2.2 17.3 -2.2 15.8 -2.2 14.3 C-2.2 12.3 -2.2 10.2 -2.2 8.2 C-2.2 7.0 -2.2 5.9 -2.2 4.7 C-2 2 -2 2 0 0 Z " fill="currentColor" transform="translate(517,425)"/>
<path d="M0 0 C1.3 0.7 2.6 1.3 4 2 C4 53.5 4 105.0 4 158 C2.7 158.3 1.4 158.7 0 159 C-2.5 156.2 -2.3 153.5 -2.3 149.9 C-2.3 149.2 -2.3 148.6 -2.3 148.0 C-2.3 145.9 -2.3 143.8 -2.3 141.7 C-2.3 140.2 -2.3 138.7 -2.3 137.2 C-2.3 133.1 -2.3 129.0 -2.3 124.9 C-2.3 120.6 -2.3 116.4 -2.3 112.1 C-2.3 104.9 -2.3 97.7 -2.3 90.6 C-2.2 82.3 -2.3 74.0 -2.3 65.7 C-2.3 58.6 -2.3 51.4 -2.3 44.3 C-2.3 40.1 -2.3 35.8 -2.3 31.6 C-2.3 27.6 -2.3 23.6 -2.3 19.6 C-2.3 18.1 -2.3 16.6 -2.3 15.2 C-2.3 13.2 -2.3 11.2 -2.3 9.1 C-2.3 8.0 -2.3 6.9 -2.3 5.8 C-2.0 3.1 -1.7 2.0 0 0 Z " fill="currentColor" transform="translate(681,425)"/>
<path d="M0 0 C2.1 -0.0 4.1 -0.0 6.2 -0.1 C7.3 -0.1 8.5 -0.1 9.7 -0.1 C13.0 -0.1 16.3 0.2 19.6 0.5 C28.5 1.2 37.5 1.1 46.5 1.1 C49.5 1.1 52.5 1.1 55.5 1.1 C64.5 1.1 73.4 1.0 82.4 0.2 C85.7 -0.1 89.0 -0.1 92.3 -0.1 C93.4 -0.1 94.5 -0.0 95.6 -0.0 C96.0 -0.0 96.0 -0.0 98 0 C99.3 2.6 99.1 4.5 99.1 7.4 C99.1 8.0 99.1 8.5 99.1 9.1 C99.1 11.0 99.1 12.9 99.1 14.8 C99.1 16.2 99.1 17.5 99.1 18.9 C99.1 22.7 99.1 26.4 99.1 30.2 C99.1 34.2 99.1 38.3 99.1 42.4 C99.1 50.3 99.1 58.3 99.1 66.2 C99.1 72.7 99.1 79.1 99.1 85.6 C99.1 86.5 99.1 87.4 99.1 88.4 C99.1 90.2 99.1 92.1 99.1 94.0 C99.1 111.5 99.1 129.0 99.1 146.5 C99.1 161.5 99.1 176.5 99.1 191.5 C99.1 209.0 99.1 226.4 99.1 243.8 C99.1 245.7 99.1 247.6 99.1 249.4 C99.1 249.9 99.1 249.9 99.1 252.2 C99.1 258.6 99.1 265.1 99.1 271.5 C99.1 279.4 99.1 287.3 99.1 295.1 C99.1 299.1 99.1 303.2 99.1 307.2 C99.1 310.8 99.1 314.5 99.1 318.2 C99.1 319.5 99.1 320.9 99.1 322.2 C99.1 324.0 99.1 325.8 99.1 327.6 C99.1 328.6 99.1 329.6 99.1 330.6 C99 333 99 333 98 335 C96.1 335.0 94.2 335.0 92.3 335.1 C91.8 335.1 91.8 335.1 89.1 335.1 C86.0 335 86.0 335 83.7 334.5 C80.7 333.9 77.8 333.9 74.7 333.9 C74.1 333.9 73.5 333.9 72.9 333.9 C70.9 333.9 68.9 333.9 66.9 333.9 C65.6 333.9 64.2 333.9 62.8 333.9 C59.9 333.9 56.9 333.9 54.0 333.9 C50.3 333.9 46.6 333.9 42.9 333.9 C40.0 333.9 37.1 333.9 34.3 333.9 C32.9 333.9 31.5 333.9 30.1 333.9 C28.2 333.9 26.3 333.9 24.4 333.9 C23.3 333.9 22.2 333.9 21.1 333.9 C18.0 334.0 15.1 334.5 12 335 C9.9 335.1 7.7 335.1 5.6 335.1 C4.6 335.1 3.5 335.0 2.4 335.0 C1.6 335.0 0.8 335.0 0 335 C-1.0 331.9 -1.1 329.8 -1.1 326.5 C-1.1 325.4 -1.1 324.2 -1.1 323.0 C-1.1 321.7 -1.1 320.5 -1.1 319.2 C-1.1 317.8 -1.1 316.5 -1.1 315.1 C-1.1 311.4 -1.1 307.6 -1.1 303.9 C-1.1 299.9 -1.1 295.8 -1.1 291.8 C-1.1 283.9 -1.1 276.0 -1.1 268.1 C-1.1 261.7 -1.1 255.3 -1.1 248.9 C-1.1 248.0 -1.1 247.0 -1.1 246.1 C-1.1 244.2 -1.1 242.4 -1.1 240.5 C-1.1 223.2 -1.1 205.8 -1.1 188.4 C-1.1 173.5 -1.1 158.6 -1.1 143.6 C-1.1 126.3 -1.1 109.0 -1.1 91.7 C-1.1 89.8 -1.1 88.0 -1.1 86.1 C-1.1 85.2 -1.1 84.3 -1.1 83.4 C-1.1 77.0 -1.1 70.6 -1.1 64.2 C-1.1 56.3 -1.1 48.5 -1.1 40.7 C-1.1 36.7 -1.1 32.8 -1.1 28.8 C-1.1 25.1 -1.1 21.5 -1.1 17.8 C-1.1 16.5 -1.1 15.2 -1.1 13.9 C-1.1 12.1 -1.1 10.3 -1.1 8.5 C-1.1 7.5 -1.1 6.5 -1.1 5.5 C-1 3 -1 3 0 0 Z M5 7 C4.9 8.7 4.9 10.4 4.9 12.1 C4.9 13.3 4.9 14.4 4.9 15.5 C4.9 16.8 4.9 18.0 4.9 19.3 C4.9 20.6 4.9 21.9 4.9 23.3 C4.9 26.9 4.9 30.6 4.9 34.2 C4.9 38.2 4.9 42.1 4.9 46.0 C4.9 53.8 4.9 61.5 4.9 69.2 C4.9 75.5 4.9 81.7 4.9 88.0 C4.9 88.9 4.9 89.8 4.9 90.7 C4.9 92.5 4.9 94.3 4.9 96.1 C4.9 113.1 4.9 130.1 4.9 147.1 C4.9 161.7 4.9 176.2 4.9 190.8 C4.9 207.8 4.9 224.7 4.9 241.6 C4.9 243.4 4.9 245.2 4.9 247.0 C4.9 247.9 4.9 248.8 4.9 249.7 C4.9 255.9 4.9 262.2 4.9 268.5 C4.9 276.1 4.9 283.7 4.9 291.4 C4.9 295.3 4.9 299.2 4.9 303.1 C4.9 306.6 4.9 310.2 4.9 313.7 C4.9 315.0 4.9 316.3 4.9 317.6 C4.9 319.4 4.9 321.1 4.9 322.9 C4.9 323.8 4.9 324.8 4.9 325.8 C5 328 5 328 6 329 C7.6 329.0 7.6 329.0 9.6 328.9 C10.0 328.9 10.0 328.9 12.0 328.7 C12.9 328.7 13.7 328.6 14.6 328.6 C25.2 328.0 35.9 327.8 46.5 327.9 C49.6 327.9 52.6 327.9 55.6 327.9 C65.9 327.9 76.1 328.0 86.3 328.7 C88.2 328.9 90.1 328.9 92 329 C93 328 93 328 93.1 325.8 C93.1 324.8 93.1 323.9 93.1 322.8 C93.1 321.7 93.1 320.6 93.1 319.4 C93.1 318.2 93.1 316.9 93.1 315.7 C93.1 314.3 93.1 313.0 93.1 311.7 C93.1 308.0 93.1 304.3 93.1 300.7 C93.1 296.7 93.1 292.8 93.1 288.8 C93.1 282.0 93.1 275.1 93.1 268.3 C93.1 258.4 93.1 248.5 93.1 238.6 C93.1 222.5 93.1 206.4 93.1 190.4 C93.1 174.7 93.1 159.1 93.1 143.5 C93.1 143.0 93.1 143.0 93.1 140.6 C93.1 135.8 93.1 131.0 93.1 126.1 C93.0 86.1 93.0 46.0 93 6 C92.1 6.0 91.2 6.1 90.3 6.1 C86.8 6.2 83.4 6.3 80.0 6.4 C78.5 6.5 77.1 6.5 75.6 6.6 C59.9 7.1 44.3 7.3 28.7 6.7 C28.3 6.7 28.3 6.7 26.5 6.7 C23.0 6.5 19.4 6.4 15.9 6.3 C15.2 6.2 14.6 6.2 13.9 6.2 C12.1 6.1 10.4 6.1 8.6 6.0 C6 6 6 6 5 7 Z " fill="currentColor" transform="translate(551,431)"/>
<path d="M0 0 C2.5 2.1 2.5 2.1 4 5 C4.3 8.6 3.7 11.2 1.4 14 C-2.0 15.4 -4.6 15.2 -8 14 C-10 12.4 -10 12.4 -11 10 C-11.1 7.2 -10.9 4.6 -10 2 C-7.1 -0.6 -3.7 -0.8 0 0 Z " fill="currentColor" transform="translate(336,451)"/>
<path d="M0 0 C2.4 1.6 2.4 1.6 4 4 C4.6 7.8 4.3 9.5 2.4 12.9 C0 15 0 15 -3 15.6 C-6 15 -6 15 -8.4 13.5 C-10.7 10.0 -10.7 7.1 -10 3 C-7.9 -0.9 -4.0 -0.8 0 0 Z " fill="currentColor" transform="translate(871,451)"/>
<path d="M0 0 C2.7 1.8 4.5 3.1 6 6 C6.4 8.8 6.6 11.0 5.1 13.5 C2.8 16.0 1.2 16.9 -2.1 17.9 C-5.1 18.0 -6.5 17.6 -9 16 C-9 15.3 -9 14.7 -9 14 C-9.7 14 -10.3 14 -11 14 C-12.3 7.8 -12.3 7.8 -10.8 4.2 C-7.5 0.1 -5.4 -0.6 0 0 Z " fill="currentColor" transform="translate(521,591)"/>
<path d="M0 0 C2.7 1.5 4.5 2.7 5.6 5.6 C6.3 8.9 6.1 10.7 4.8 13.8 C2.9 16.1 1.9 17.2 -1 18 C-4.7 17.9 -7.1 17.2 -9.9 14.8 C-11.7 12.7 -12.0 11.9 -12.6 9 C-11.9 5.3 -10.6 3.6 -8 1 C-5.1 -0.4 -3.2 -0.3 0 0 Z " fill="currentColor" transform="translate(685,591)"/>
<path d="M0 0 C3 1 3 1 4 3 C4.1 5.0 4.1 7.0 4.1 9.0 C4.1 9.3 4.1 9.3 4.1 10.8 C4.1 12.9 4.1 15.0 4.1 17.1 C4.1 18.5 4.1 20.0 4.1 21.5 C4.1 25.5 4.1 29.6 4.1 33.6 C4.1 37.8 4.1 42.1 4.1 46.3 C4.1 53.4 4.1 60.5 4.1 67.6 C4.1 75.8 4.1 84.0 4.1 92.2 C4.1 99.2 4.1 106.2 4.1 113.3 C4.1 117.5 4.1 121.7 4.1 125.9 C4.1 129.8 4.1 133.8 4.1 137.7 C4.1 139.2 4.1 140.7 4.1 142.1 C4.1 144.1 4.1 146.1 4.1 148.0 C4.1 149.1 4.1 150.3 4.1 151.4 C4 154 4 154 3 156 C1.7 156 0.4 156 -1 156 C-2.4 153.3 -2.1 151.1 -2.1 148.0 C-2.1 147.4 -2.1 146.8 -2.1 146.1 C-2.1 144.0 -2.1 141.9 -2.1 139.9 C-2.1 138.4 -2.2 136.9 -2.2 135.4 C-2.2 131.3 -2.2 127.2 -2.2 123.2 C-2.2 119.8 -2.2 116.4 -2.2 113.0 C-2.2 105.0 -2.2 97.0 -2.2 89.0 C-2.2 80.8 -2.2 72.5 -2.2 64.2 C-2.2 57.2 -2.2 50.1 -2.2 43.0 C-2.2 38.8 -2.2 34.5 -2.2 30.3 C-2.3 26.3 -2.3 22.3 -2.2 18.4 C-2.2 16.9 -2.2 15.4 -2.3 14.0 C-2.3 12.0 -2.3 10.0 -2.2 8.0 C-2.2 6.9 -2.2 5.8 -2.2 4.6 C-2 2 -2 2 0 0 Z " fill="currentColor" transform="translate(517,615)"/>
<path d="M0 0 C1.3 0.7 2.6 1.3 4 2 C4 52.5 4 103.0 4 155 C2.4 155.3 0.7 155.7 -1 156 C-2.1 152.7 -2.1 150.4 -2.1 147.0 C-2.1 146.4 -2.1 145.7 -2.1 145.1 C-2.1 143.1 -2.1 141.0 -2.1 138.9 C-2.1 137.5 -2.2 136.0 -2.2 134.5 C-2.2 130.5 -2.2 126.5 -2.2 122.5 C-2.2 119.2 -2.2 115.8 -2.2 112.5 C-2.2 104.6 -2.2 96.7 -2.2 88.9 C-2.2 80.7 -2.2 72.6 -2.2 64.5 C-2.2 57.5 -2.2 50.5 -2.2 43.5 C-2.2 39.3 -2.2 35.2 -2.2 31.0 C-2.3 27.1 -2.3 23.2 -2.2 19.2 C-2.2 17.8 -2.2 16.4 -2.3 14.9 C-2.3 13.0 -2.3 11.0 -2.2 9.0 C-2.2 7.9 -2.2 6.8 -2.2 5.7 C-2.0 3.1 -1.7 1.9 0 0 Z " fill="currentColor" transform="translate(681,615)"/>
<path d="M0 0 C1.6 0.7 1.6 0.7 3.6 2.9 C4.8 6.4 4.6 8.2 3.6 11.7 C2.5 13.6 2.5 13.6 0.6 14.7 C-3.6 15.2 -5.4 15.4 -8.9 13.1 C-10.9 10.0 -11.1 8.4 -10.4 4.7 C-7.9 0.3 -4.9 -1.2 0 0 Z " fill="currentColor" transform="translate(335.4,734.3)"/>
<path d="M0 0 C6.1 0.2 6.1 0.2 8.9 2.7 C10.3 5.7 10.5 7.7 10 11 C8.4 13.4 8.4 13.4 6 15 C2.8 15.7 -0.0 15.6 -2.9 13.8 C-4.4 11.4 -4.9 9.8 -5 7 C-3.6 4.2 -2.2 2.2 0 0 Z " fill="currentColor" transform="translate(865,734)"/>
<path d="M0 0 C2.5 1.5 2.9 2.7 3.9 5.4 C4.0 8.9 3.3 10.3 1 13 C-1.9 14.5 -1.9 14.5 -5 15 C-7.6 13.9 -9.3 12.6 -11.4 10.7 C-12.4 7.9 -11.8 5.8 -11 3 C-8.7 -1.1 -4.2 -0.6 0 0 Z " fill="currentColor" transform="translate(604,901)"/>
</svg>
