<?xml version="1.0" encoding="UTF-8"?>
<!-- Generator: visioncortex VTracer 0.6.1 -->
<svg xmlns="http://www.w3.org/2000/svg" viewBox="0 0 1200 1200">
<path d="M0 0 C0.9 0.7 1.7 1.5 2.6 2.2 C19.2 16.3 32.7 37.8 34.9 59.9 C35.4 68.5 35.1 77.3 35 86 C37.3 86.8 39.6 87.5 41.9 88.3 C42.5 88.5 43.1 88.7 43.8 89.0 C47.4 90.2 51.1 91.3 54.8 92.4 C78.6 99.5 101.5 110.1 123.2 122.0 C123.6 122.2 123.6 122.2 125.4 123.1 C126.0 123.5 126.6 123.8 127.2 124.2 C129.1 125.1 130.9 125.6 133 126 C133.3 125.6 133.3 125.6 134.8 123.6 C147.8 106.3 162.0 92.6 181 82 C181.5 81.7 182.1 81.4 182.6 81.1 C208.7 66.7 239.3 61.8 268.6 66.3 C271.3 67.1 272.5 67.7 274 70 C273.9 72.1 273.9 72.1 273 74 C271.3 75.2 271.3 75.2 269.1 76.1 C268.2 76.4 267.4 76.7 266.6 77.1 C264.2 77.9 261.9 78.6 259.4 79.2 C246.6 83.0 235.0 90.5 224 98 C223.3 98.5 222.5 99.0 221.8 99.5 C218.1 102.0 215.1 104.8 212 108 C211.8 108.2 211.8 108.2 210.7 109.3 C200.5 119.7 192.9 131.2 186 144 C185.6 144.7 185.3 145.4 184.9 146.1 C182.7 150.3 181.2 154.4 180 159 C184.0 163.2 188.4 166.7 193.0 170.2 C193.7 170.8 194.3 171.4 195 172 C195 172.7 195 173.3 195 174 C195.6 174.3 196.2 174.5 196.8 174.8 C198.9 176.0 200.4 177.1 202.1 178.7 C202.4 179.0 202.4 179.0 203.9 180.3 C204.5 180.9 205.1 181.5 205.8 182.1 C206.4 182.7 207.1 183.4 207.7 184.0 C212.7 188.7 217.6 193.5 222.5 198.4 C223.1 199.0 223.8 199.7 224.5 200.3 C227.5 203.4 230.4 206.4 233.3 209.7 C233.6 210.0 233.6 210.0 235.0 211.5 C236.6 213.5 237.6 215.0 238.7 217.2 C241.7 222.3 244.9 226.2 250.8 227.7 C258.8 228.9 266.9 228.7 275.0 228.5 C278.5 228.5 282.1 228.5 285.6 228.5 C292.4 228.5 299.1 228.5 305.8 228.4 C313.5 228.3 321.1 228.3 328.8 228.3 C344.5 228.3 360.3 228.2 376 228 C376.3 228.7 376.7 229.3 377 230 C373.8 238.5 368.5 246.4 364.0 254.2 C359.0 262.9 354.2 271.6 349.3 280.4 C345.8 286.8 342.2 293.1 338.6 299.3 C336.5 302.9 334.5 306.5 332.6 310.1 C331.1 312.8 329.6 315.4 328.1 318.0 C324.9 323.5 321.9 328.9 319 334.5 C318.7 335.1 318.4 335.6 318.1 336.2 C315.6 341.1 315.3 345.2 316.9 350.4 C317.4 351.6 317.8 352.8 318.2 354.1 C318.7 355.4 319.2 356.8 319.7 358.2 C319.9 358.9 320.2 359.6 320.4 360.4 C324.8 372.8 328.7 385.2 331.4 398.2 C331.9 400.4 332.4 402.7 332.9 404.9 C335.3 415.1 337.1 425.3 338.4 435.7 C338.7 438.1 339.0 440.5 339.3 442.9 C341.5 459.6 342.2 476.1 342.2 492.9 C342.2 493.4 342.2 493.4 342.2 495.5 C342.2 510.1 341.6 524.5 340 539 C339.9 540.1 339.8 541.3 339.6 542.4 C337.5 561.3 333.7 579.6 329 598 C328.8 598.6 328.7 599.2 328.5 599.8 C326.2 608.9 323.5 617.8 320.5 626.7 C319.9 628.7 319.2 630.6 318.5 632.6 C318.1 633.9 317.7 635.2 317.2 636.5 C317.0 637.1 316.9 637.6 316.6 638.2 C315.8 640.8 314.9 643.3 313.9 645.7 C312.9 648.3 312.8 650.3 313 653 C317.1 652.3 320.8 651.1 324.6 649.7 C340.5 644.9 358.5 647.7 373.0 655.1 C378.4 658.1 383.6 661.6 388 666 C388 666.7 388 667.3 388 668 C388.7 668 389.3 668 390 668 C396.7 675.5 401.3 683.7 405 693 C405.4 693.9 405.8 694.8 406.2 695.7 C410.2 705.7 410.0 716.4 410 727 C410.0 727.6 410.0 728.3 410.0 728.9 C409.9 748.8 398.6 766.9 384.9 780.5 C373.4 791.4 357.3 796.6 341.7 797.3 C322.3 796.8 305.2 787.9 292 774 C283.1 764.1 277.8 752.7 274 740 C265.5 738.9 265.5 738.9 262.2 741.3 C260.6 743.3 259.2 745.3 257.9 747.4 C256.9 748.9 255.8 750.3 254.8 751.8 C254.6 752.2 254.6 752.2 253.4 754.0 C251.6 756.6 249.8 758.9 247.8 761.3 C247.2 762.1 246.6 762.9 245.9 763.7 C245.3 764.4 244.6 765.2 244 766 C243.7 766.4 243.7 766.4 242.0 768.5 C236.9 774.9 231.5 780.8 226.0 786.7 C223.3 789.5 220.7 792.3 218.3 795.2 C216.5 797.5 214.6 799.4 212.4 801.2 C209.0 804.1 205.8 807.2 202.7 810.4 C197.9 815.3 192.8 819.6 187.4 823.9 C186.0 825.0 184.6 826.2 183.2 827.4 C165.2 842.7 145.5 856.2 125.0 867.9 C123.0 869.0 121.1 870.1 119.2 871.2 C112.3 875.3 105.4 878.8 98 882 C96.6 882.6 95.2 883.3 93.7 883.9 C92.2 884.6 90.6 885.3 89.1 886 C88.3 886.3 87.6 886.6 86.9 887.0 C84.6 888.0 82.3 889.0 80 890 C79.1 890.4 78.2 890.8 77.3 891.2 C69.4 894.5 61.5 897.3 53.4 900 C53.1 900.1 53.1 900.1 51.4 900.7 C28.1 908.4 4.1 914.3 -20.5 916.8 C-23.9 917.2 -26.3 917.5 -29.2 919.5 C-31.9 923.2 -34.2 927.1 -36.5 931 C-37.6 932.8 -38.6 934.6 -39.7 936.4 C-40.2 937.3 -40.8 938.3 -41.4 939.2 C-44.0 943.6 -46.6 948.0 -49.2 952.4 C-49.8 953.3 -50.3 954.1 -50.8 955.0 C-53.9 960.2 -57.0 965.3 -60.2 970.5 C-61.9 973.2 -63.5 975.9 -65.1 978.7 C-65.5 979.3 -65.8 979.9 -66.2 980.5 C-66.9 981.7 -67.6 982.9 -68.2 984.0 C-69.1 985.6 -69.1 985.6 -71 988 C-72.9 988.4 -72.9 988.4 -75 988 C-76.5 986.2 -76.5 986.2 -77.9 983.7 C-78.4 982.7 -78.9 981.8 -79.4 980.9 C-79.9 979.9 -80.5 979.0 -81 978 C-82.0 976.3 -83.0 974.6 -84.0 972.9 C-84.5 972.0 -85.0 971.2 -85.5 970.3 C-90.9 961.2 -96.3 952.3 -102.0 943.4 C-105.1 938.5 -108.0 933.5 -110.8 928.2 C-115.4 919.8 -115.4 919.8 -119 918 C-120.3 917.8 -121.5 917.6 -122.8 917.5 C-146.7 914.4 -170.0 909.3 -193 902 C-193.9 901.7 -194.8 901.4 -195.7 901.2 C-213.5 895.6 -231.1 889.1 -247.4 880.0 C-250.5 878.2 -253.7 876.7 -256.9 875.1 C-272.0 867.7 -286.2 858.8 -300.1 849.3 C-301.3 848.4 -302.6 847.6 -303.9 846.8 C-305.3 845.9 -306.6 845.0 -308 844 C-308 843.3 -308 842.7 -308 842 C-308.7 841.7 -309.5 841.5 -310.2 841.2 C-313.1 839.9 -315.2 838.5 -317.6 836.4 C-318.5 835.7 -319.4 835.0 -320.3 834.3 C-320.7 833.9 -321.2 833.5 -321.6 833.1 C-323.0 832.0 -324.3 830.9 -325.7 829.9 C-331.2 825.4 -336.4 820.9 -341.6 816.1 C-344.3 813.6 -347.0 811.1 -349.8 808.7 C-354.4 804.7 -358.7 800.4 -363.1 796.1 C-363.4 795.7 -363.4 795.7 -365.4 793.8 C-370.1 789.0 -374.6 784.1 -379 779 C-380.0 777.9 -381.0 776.7 -382.0 775.6 C-386.8 770.0 -391.6 764.3 -396.2 758.4 C-396.6 757.8 -397.0 757.3 -397.4 756.8 C-399.5 754.1 -401.4 751.4 -403.3 748.5 C-408.7 740.4 -408.7 740.4 -412.8 739.3 C-415.3 739.3 -417.5 739.4 -420 740 C-420.1 740.4 -420.1 740.4 -420.7 742.3 C-424.4 753.9 -429.6 763.4 -437 773 C-437.5 773.6 -437.9 774.3 -438.4 774.9 C-447.1 786.2 -462.4 793.8 -476.2 796.4 C-494.8 798.8 -512.5 794.6 -527.5 783.1 C-538.1 774.3 -546.1 763.9 -551 751 C-551.4 750.0 -551.8 749.1 -552.2 748.1 C-555.5 738.5 -556.0 729.1 -556 719 C-556.0 718.4 -556.0 717.8 -556.0 717.1 C-555.9 696.7 -545.8 679.3 -532.2 664.8 C-518.3 651.4 -501.5 647.6 -482.8 647.8 C-476.9 648.0 -471.6 649.2 -466 651 C-464.6 651.4 -463.2 651.8 -461.8 652.2 C-460.8 652.5 -459.9 652.7 -459 653 C-459.2 645.5 -461.6 639.1 -464.2 632.1 C-469.3 618.3 -473.6 604.3 -477 590 C-477.2 589.2 -477.4 588.3 -477.6 587.5 C-483.9 561.1 -487.7 533.1 -488 506 C-488.0 505.0 -488.0 504.1 -488.1 503.1 C-489.0 451.8 -483.2 394.3 -461.7 347.2 C-460.8 344.4 -461.1 342.8 -462 340 C-463.2 337.7 -463.2 337.7 -464.7 335.4 C-466.8 332.0 -468.8 328.5 -470.6 324.8 C-477.1 311.4 -484.9 298.6 -492.4 285.7 C-493.9 283.2 -495.3 280.7 -496.7 278.1 C-499.1 273.7 -501.5 269.3 -503.9 265.0 C-504.2 264.4 -504.5 263.8 -504.9 263.1 C-505.9 261.3 -507.0 259.4 -508 257.5 C-508.7 256.2 -509.4 255.0 -510.1 253.7 C-510.4 253.1 -510.8 252.5 -511.1 251.9 C-511.8 250.7 -512.5 249.4 -513.1 248.2 C-514.7 245.4 -516.2 242.6 -517.8 239.8 C-518.4 238.8 -518.9 237.8 -519.5 236.8 C-519.7 236.4 -519.7 236.4 -521.0 234.3 C-522 232 -522 232 -522 228 C-479.4 228 -436.9 228 -393 228 C-392.3 226.7 -391.7 225.4 -391 224 C-389.7 222.2 -388.4 220.5 -387 218.8 C-386.3 217.9 -385.6 217.0 -384.9 216.0 C-384.6 215.7 -384.6 215.7 -383 214 C-382.3 214 -381.7 214 -381 214 C-380.7 213.4 -380.5 212.8 -380.2 212.2 C-378.9 209.9 -377.5 208.2 -375.7 206.2 C-375.0 205.5 -374.3 204.8 -373.6 204.1 C-372.9 203.4 -372.2 202.6 -371.5 201.9 C-370.8 201.1 -370.1 200.4 -369.3 199.6 C-362.1 192.0 -355.0 184.5 -347.1 177.8 C-344.7 175.7 -342.4 173.6 -340.1 171.5 C-335.6 167.4 -330.9 163.7 -326 160 C-332.5 131.9 -354.5 106.4 -378.6 91.4 C-390.2 84.8 -402.6 79.2 -415.6 76.0 C-418 75 -418 75 -419.4 73.1 C-420 71.0 -420 71.0 -419 68 C-407.1 60.3 -382.2 64.2 -369 67 C-367.9 67.2 -366.8 67.4 -365.7 67.6 C-331.5 73.9 -301.4 94.9 -280.8 122.4 C-279 125 -279 125 -279 127 C-277.4 126.2 -275.8 125.4 -274.2 124.6 C-273.7 124.4 -273.1 124.1 -272.6 123.8 C-269.3 122.2 -266.1 120.5 -263.0 118.8 C-239.1 105.8 -213.5 95.3 -187.3 87.9 C-185.2 87.3 -183.1 86.7 -181 86 C-181.0 85.4 -181.0 84.8 -181.0 84.2 C-181.7 56.7 -176.6 35.1 -159.1 13.4 C-158.1 12.2 -157.2 10.9 -156.3 9.6 C-155.9 9.1 -155.5 8.6 -155 8 C-154.3 8 -153.7 8 -153 8 C-152.7 7.0 -152.3 6.0 -152 5 C-150.8 3.8 -150.8 3.8 -149.3 2.6 C-148.7 2.1 -148.2 1.7 -147.6 1.2 C-147.0 0.8 -146.4 0.3 -145.8 -0.2 C-145.1 -0.7 -144.5 -1.2 -143.8 -1.7 C-102.7 -33.0 -40.1 -34.9 0 0 Z M-67 -19 C-68 -16 -68 -16 -66.9 -13.5 C-66.3 -12.4 -65.8 -11.4 -65.2 -10.4 C-64.9 -9.8 -64.6 -9.3 -64.2 -8.7 C-63.2 -6.9 -62.2 -5.2 -61.2 -3.4 C-60.5 -2.1 -59.8 -0.9 -59.1 0.3 C-54.5 8.4 -49.8 16.5 -45.1 24.5 C-42.8 28.4 -40.6 32.3 -38.5 36.3 C-36.7 39.5 -34.9 42.7 -33 45.9 C-30.5 50.3 -28.1 54.7 -25.9 59.2 C-23.9 63.2 -21.8 67.2 -19.6 71.1 C-19.3 71.6 -19.3 71.6 -18.0 73.8 C-14.1 78.0 -7.2 78.4 -1.7 79.5 C-1.4 79.5 -1.4 79.5 0.3 79.9 C2.4 80.3 4.5 80.7 6.6 81.1 C8.0 81.3 9.5 81.6 10.9 81.9 C13.5 82.4 16.1 82.9 18.7 83.4 C20.8 83.8 22.8 84.2 24.9 84.6 C25.6 84.8 26.3 84.9 27 85 C30.1 81.9 28.4 72.3 28.5 67.8 C28.4 57.3 26.4 48.5 22 39 C21.7 38.3 21.4 37.7 21.1 37.0 C11.0 14.6 -8.8 -2.6 -31.4 -11.8 C-43.1 -15.9 -54.6 -18.6 -67 -19 Z M-122 -8 C-122.7 -7.6 -123.5 -7.2 -124.3 -6.9 C-145.2 4.3 -163.8 24.0 -171.1 46.8 C-174.8 59.2 -174.5 71.2 -174 84 C-171.1 85.5 -169.3 84.6 -166.1 83.9 C-165.8 83.8 -165.8 83.8 -164.4 83.5 C-162.5 83.0 -160.6 82.6 -158.7 82.2 C-156.2 81.6 -153.8 81.1 -151.3 80.5 C-150.7 80.4 -150.1 80.3 -149.5 80.1 C-146.4 79.5 -143.4 78.9 -140.3 78.5 C-139.7 78.4 -139.1 78.3 -138.5 78.3 C-136.9 78.1 -135.3 77.9 -133.7 77.7 C-130.5 76.9 -129.5 75.8 -127.6 73.1 C-126.7 71.4 -125.8 69.7 -125 68 C-124.1 66.5 -123.3 65.1 -122.4 63.6 C-119.3 58.5 -116.5 53.2 -113.6 47.9 C-111.5 44.0 -109.3 40.2 -107.1 36.4 C-102.9 29.2 -99.0 21.9 -95.1 14.6 C-94.1 12.8 -93.1 10.9 -92.1 9.1 C-91.6 8.2 -91.1 7.2 -90.6 6.2 C-87.3 0.3 -84.0 -5.6 -80.1 -11.1 C-78.6 -13.4 -77.9 -14.6 -78.3 -17.3 C-78.4 -17.6 -78.4 -17.6 -79 -19 C-93.6 -19.4 -109.1 -14.6 -122 -8 Z M-78.4 -4.7 C-78.6 -4.2 -78.6 -4.2 -80.0 -1.7 C-80.3 -1.1 -80.6 -0.6 -80.9 0.0 C-85.8 9.1 -90.8 18.2 -95.8 27.2 C-96.2 27.9 -96.5 28.5 -96.9 29.2 C-100.8 36.4 -104.8 43.6 -109.1 50.6 C-113.9 58.4 -118.2 66.2 -121 75 C-119.7 75.0 -118.3 75.0 -117 75.1 C-116.3 75.1 -115.5 75.1 -114.8 75.1 C-112 75 -112 75 -108.7 74.5 C-102.6 73.7 -96.4 73.9 -90.3 73.9 C-88.9 73.9 -87.6 73.9 -86.2 73.9 C-83.4 73.9 -80.6 73.9 -77.8 73.9 C-74.3 73.9 -70.8 73.9 -67.2 73.9 C-53.1 73.8 -39.1 73.8 -25 75 C-26.8 68.7 -29.3 63.4 -32.7 57.8 C-33.6 56.3 -34.5 54.8 -35.4 53.4 C-35.8 52.6 -36.3 51.9 -36.7 51.1 C-41.0 44.0 -45.1 36.9 -48.8 29.4 C-52.9 20.9 -57.8 12.7 -62.6 4.4 C-63.8 2.3 -65.0 0.1 -66.2 -2.0 C-66.5 -2.6 -66.8 -3.2 -67.1 -3.7 C-67.9 -5.2 -68.7 -6.7 -69.5 -8.1 C-71 -10 -71 -10 -73.0 -10.6 C-76.2 -9.6 -76.8 -7.6 -78.4 -4.7 Z M-390 74 C-387.2 77.1 -384.5 79.0 -380.8 80.9 C-360.9 91.5 -344.2 107.0 -332 126 C-331.7 126.5 -331.3 127.0 -331.0 127.5 C-318.1 147.6 -311.4 171.0 -308.4 194.6 C-304.9 221.0 -296.5 246.5 -284 270 C-283.5 271.0 -283.0 271.9 -282.5 272.9 C-274.2 288.7 -263.8 303.1 -251.7 316.1 C-250 318 -250 318 -249 320 C-248.3 320 -247.7 320 -247 320 C-246.7 320.6 -246.5 321.2 -246.2 321.8 C-234.9 342.7 -202.3 359.7 -182 371 C-181.8 373.3 -181.8 373.3 -182 376 C-183.6 377.5 -183.6 377.5 -185.8 378.7 C-186.2 378.9 -186.2 378.9 -188.2 380.1 C-189.1 380.6 -190.0 381.1 -190.9 381.6 C-192.8 382.6 -194.6 383.7 -196.5 384.8 C-196.9 385.0 -196.9 385.0 -199.3 386.4 C-210.5 393.1 -220.9 401.2 -230.7 409.8 C-231.8 410.8 -233.0 411.8 -234.2 412.8 C-244.5 421.6 -253.4 431.3 -261.6 442.1 C-263.1 444.1 -264.6 446.1 -266.1 448.1 C-271.8 455.4 -276.8 462.7 -281 471 C-281.6 472.1 -282.2 473.2 -282.9 474.3 C-311.7 526.3 -320.5 590.9 -304.5 648.4 C-303.3 652.6 -302.0 656.7 -300.7 660.9 C-300.1 662.7 -299.5 664.5 -299.0 666.4 C-296.4 674.6 -292.8 682.3 -289 690 C-288.6 690.8 -288.3 691.5 -287.9 692.3 C-278.3 711.4 -266.6 729.0 -252.1 744.7 C-250.2 746.8 -248.4 748.8 -246.6 750.9 C-238.8 759.8 -230.3 767.7 -221 775 C-220.3 775.5 -219.7 776.0 -219.0 776.6 C-217.0 778.1 -215.0 779.5 -213 781 C-212.5 781.3 -212.1 781.6 -211.6 782.0 C-193.7 794.8 -174.7 805.4 -154 813 C-153.4 813.2 -152.8 813.4 -152.2 813.7 C-101.7 832.2 -45.6 831.7 5 814 C5.6 813.8 6.3 813.6 7.0 813.3 C39.3 802.1 68.4 782.7 93 759 C93.3 758.7 93.3 758.7 94.7 757.4 C102.0 750.3 108.8 743.1 115 735 C115.4 734.5 115.7 734.1 116.1 733.6 C124.5 722.8 132.6 711.6 138.5 699.1 C139.6 696.8 140.7 694.6 141.9 692.4 C168.9 640.8 173.6 576.8 156.8 521.3 C155.6 517.5 154.3 513.8 153 510 C152.8 509.3 152.5 508.6 152.3 507.9 C148.7 497.5 144.1 487.7 139 478 C138.4 476.8 137.8 475.7 137.2 474.5 C133.3 467.0 128.9 459.9 124 453 C123.6 452.4 123.1 451.8 122.7 451.1 C115.7 441.5 108.3 432.5 100 424 C99.4 423.4 98.9 422.8 98.3 422.2 C87.3 410.9 75.6 401.2 62.7 392.2 C61.5 391.4 60.4 390.5 59.2 389.7 C55.8 387.2 52.3 385.0 48.5 383 C44.1 380.6 40.0 378.1 36 375 C36.2 372.7 36.2 372.7 37 370 C38.9 368.6 38.9 368.6 41.5 367.4 C69.3 353.3 94.9 331.6 114 307 C114.8 306.0 115.6 305.0 116.4 304.1 C127.0 290.9 135.4 276.1 143 261 C143.4 260.1 143.9 259.2 144.4 258.3 C155.0 236.1 160.1 212.3 163.8 188.2 C165.8 175.4 168.5 162.9 173.3 150.9 C173.6 150.1 173.9 149.4 174.2 148.6 C186.4 118.8 210.1 92.6 239.0 78.2 C242.9 76.2 242.9 76.2 244 74 C216.8 72.0 186.1 84.8 165.7 102.5 C138.9 126.5 123.6 154.8 117.1 190.1 C113.2 211.6 107.3 233.0 95.5 251.6 C93.9 254.2 92.4 256.9 91 259.6 C88.7 263.9 86.2 267.7 83.1 271.4 C82 273 82 273 82 275 C81.3 275 80.7 275 80 275 C78.9 276.3 78.9 276.3 77.6 278.2 C73.6 283.8 68.9 288.7 64.3 293.7 C63.2 294.7 62.2 295.8 61.2 296.9 C34.1 325.6 -10.8 346.6 -50 349 C-50.9 349.1 -51.7 349.1 -52.6 349.2 C-92.7 351.7 -129.4 346.2 -165 327 C-165.6 326.7 -166.2 326.4 -166.8 326.0 C-179.0 319.5 -190.3 311.9 -200.3 302.4 C-202 301 -202 301 -204 301 C-204 300.3 -204 299.7 -204 299 C-205.4 297.6 -205.4 297.6 -207.4 296 C-230.8 275.9 -246.8 246.2 -256.2 217.3 C-256.7 215.8 -257.2 214.4 -257.8 212.9 C-260.2 206.3 -261.3 199.5 -262.5 192.6 C-268.0 161.4 -279.3 135.5 -301 112 C-301.6 111.4 -302.1 110.8 -302.7 110.1 C-304 109 -304 109 -306 109 C-306.3 108.0 -306.7 107.0 -307 106 C-308.8 104.4 -310.7 102.9 -312.6 101.4 C-313.2 100.9 -313.8 100.5 -314.4 100.0 C-330.3 88.2 -347.6 80.4 -367 76 C-368.0 75.8 -369.0 75.5 -370.0 75.3 C-376.7 73.9 -383.2 73.8 -390 74 Z M-106.4 81.4 C-107.3 81.4 -108.1 81.5 -109.0 81.6 C-111.4 81.7 -113.8 81.9 -116.2 82.1 C-117.0 82.2 -117.7 82.3 -118.4 82.3 C-125.2 82.9 -125.2 82.9 -128 85 C-129.6 87.3 -129.6 87.3 -131.1 90.1 C-131.4 90.6 -131.7 91.1 -131.9 91.6 C-132.8 93.2 -133.7 94.9 -134.6 96.6 C-135.6 98.3 -136.5 100.0 -137.4 101.7 C-138.1 102.8 -138.7 104.0 -139.3 105.1 C-142.4 110.8 -145.7 116.3 -149.1 121.9 C-149.4 122.5 -149.8 123.1 -150.2 123.8 C-150.4 124.0 -150.4 124.0 -151.2 125.4 C-152.1 127.3 -152.7 128.9 -153 131 C-139.1 151.2 -112.9 162.0 -89.7 166.3 C-61.4 170.0 -32.0 164.1 -9.0 146.8 C-6.2 144.6 -3.6 142.3 -1 140 C-0.6 139.6 -0.6 139.6 1.5 137.8 C5.7 133.9 5.7 133.9 7 132 C6.6 128.0 5.1 125.1 3.2 121.6 C2.9 121.1 2.6 120.6 2.3 120.1 C1.4 118.5 0.5 116.9 -0.4 115.2 C-1.1 114.1 -1.7 113.0 -2.3 111.9 C-3.9 109.1 -5.5 106.3 -7.1 103.6 C-7.9 102.1 -8.8 100.7 -9.6 99.2 C-10.9 96.8 -12.3 94.4 -13.7 92.1 C-14.1 91.4 -14.5 90.7 -14.9 90.0 C-15.3 89.3 -15.6 88.7 -16.0 88.0 C-16.3 87.5 -16.6 86.9 -17.0 86.4 C-19.1 83.6 -20.9 83.0 -24.4 82.5 C-25.8 82.4 -27.2 82.3 -28.7 82.1 C-29.4 82.1 -30.2 82.0 -31.0 82.0 C-33.5 81.7 -36.0 81.6 -38.5 81.4 C-39.4 81.3 -40.2 81.2 -41.1 81.2 C-63.1 79.5 -84.5 79.7 -106.4 81.4 Z M-9 86 C-8.4 90.2 -7.0 93.0 -4.8 96.6 C-4.2 97.7 -3.5 98.7 -2.9 99.8 C-2.6 100.3 -2.3 100.9 -1.9 101.4 C-0.0 104.7 1.8 108.0 3.6 111.4 C5.7 115.3 7.8 119.1 10 123 C11.8 123.2 11.8 123.2 14 123 C15.3 121.5 15.3 121.5 16.5 119.5 C16.9 118.8 17.3 118.0 17.8 117.3 C18.2 116.5 18.6 115.8 19 115 C19.4 114.4 19.7 113.7 20.1 113.0 C23.6 106.5 26.9 99.5 25 92 C2.6 86.2 2.6 86.2 -9 86 Z M-150.1 87.3 C-150.8 87.4 -151.6 87.6 -152.3 87.7 C-158.6 88.9 -164.8 90.3 -171 92 C-173.2 99.4 -168.6 106.9 -165.2 113.5 C-160.7 121.8 -160.7 121.8 -157.9 122.6 C-157.6 122.7 -157.6 122.7 -156 123 C-150.8 114.3 -145.6 105.7 -141.3 96.5 C-140 94 -140 94 -138.3 91.4 C-137 89 -137 89 -137 86 C-141.5 85.8 -145.7 86.5 -150.1 87.3 Z M33 95 C32.8 95.5 32.6 96.1 32.4 96.6 C22.5 122.5 22.5 122.5 16 129 C15.5 133.1 16.5 135.4 18.6 138.9 C19.2 139.8 19.7 140.8 20.3 141.8 C20.6 142.3 20.9 142.8 21.2 143.3 C22.9 145.9 24.5 148.6 26.0 151.3 C26.4 151.8 26.7 152.4 27.0 153.0 C31.1 159.8 34.8 166.7 38.5 173.7 C49.0 193.5 49.0 193.5 60 198 C62.5 199.2 65.0 200.4 67.4 201.6 C68.1 202.0 68.8 202.3 69.5 202.6 C90.0 212.9 90.0 212.9 96.5 218.2 C98 219 98 219 100.1 218.9 C102 218 102 218 103.1 216.1 C106.4 206.8 108.1 197.2 109.9 187.6 C112.6 172.9 116.0 159.0 122.9 145.8 C123.7 144.2 124.5 142.6 125.3 141.0 C125.7 140.3 126.0 139.6 126.4 138.9 C127.1 136.5 126.9 135.3 126 133 C123.0 130.5 119.4 128.8 116 127 C115.4 126.7 114.9 126.4 114.3 126.1 C54.8 95 54.8 95 33 95 Z M-242.3 117.1 C-244.2 118.1 -246.1 119.0 -248.0 120.0 C-254.4 123.1 -260.8 126.3 -266.9 129.8 C-267.9 130.4 -268.9 130.9 -269.8 131.5 C-272 133 -272 133 -273 136 C-272.0 138.4 -271.0 140.6 -269.9 142.8 C-261.7 159.7 -257.3 177.4 -253.9 195.8 C-252.4 203.7 -250.6 211.8 -247 219 C-243.0 218.4 -240.4 217.2 -237.1 214.9 C-236.1 214.3 -235.1 213.7 -234.1 213.0 C-233.9 212.8 -233.9 212.8 -232.6 212.0 C-230.0 210.3 -227.3 208.7 -224.6 207.2 C-224.1 206.9 -223.5 206.5 -222.9 206.2 C-219.3 204.1 -215.6 202.4 -211.7 200.7 C-201.0 196.2 -193.8 192.9 -189.0 182.1 C-187.4 178.7 -185.5 175.4 -183.7 172.1 C-182.1 169.3 -180.6 166.4 -179.0 163.5 C-175.6 157.1 -171.9 150.9 -168.2 144.6 C-167.8 144.0 -167.4 143.4 -167.1 142.8 C-166.3 141.6 -165.6 140.4 -164.8 139.2 C-162.7 135.7 -161.2 133.2 -162 129 C-163.1 126.9 -163.1 126.9 -164.7 124.8 C-171.2 115.4 -175.2 105.7 -179 95 C-198.4 95 -225.0 108.5 -242.3 117.1 Z M-158.4 139.2 C-160.4 141.5 -161.5 143.8 -162.8 146.6 C-165.6 152.3 -168.7 157.6 -172 163 C-176.7 170.8 -181.0 178.8 -185 187 C-181.4 188.2 -180.8 187.8 -177.4 186.4 C-170.4 183.7 -163.3 181.6 -156.1 179.6 C-154.2 179.1 -152.4 178.5 -150.6 178.0 C-140.5 175.0 -130.1 173.4 -119.7 171.8 C-119.1 171.6 -118.5 171.5 -117.8 171.4 C-116.1 171.2 -114.4 170.9 -112.7 170.6 C-110 170 -110 170 -108 168 C-108.7 167.7 -109.4 167.5 -110.1 167.2 C-121.9 162.5 -133.5 156.6 -143.3 148.3 C-145 147 -145 147 -148 146 C-148 145.3 -148 144.7 -148 144 C-149.5 142.5 -149.5 142.5 -151.4 140.9 C-152.0 140.3 -152.6 139.8 -153.3 139.2 C-155.5 137.7 -156.3 137.4 -158.4 139.2 Z M7.2 139.7 C6.9 140.0 6.9 140.0 5.1 141.9 C-5.9 153.3 -21.6 163.0 -37 167 C-36.7 168.0 -36.3 169.0 -36 170 C-35.6 170.1 -35.6 170.1 -33.8 170.3 C-11.6 173.8 9.9 178.5 31.1 186.1 C33.8 186.9 36.3 187.5 39 188 C37.7 183.7 36.1 180.0 33.9 176.1 C33.7 175.8 33.7 175.8 33.0 174.5 C32.0 172.7 31.0 170.9 30 169.2 C29.3 168.0 28.6 166.8 28.0 165.6 C26.3 162.6 24.6 159.6 22.9 156.6 C22.1 155.1 21.2 153.6 20.4 152.1 C19.0 149.6 17.6 147.2 16.2 144.8 C15.9 144.1 15.5 143.4 15.1 142.7 C14.0 140.8 14.0 140.8 12 138 C9 138 9 138 7.2 139.7 Z M177 169 C174.5 173.5 173.3 177.6 172.5 182.7 C172.4 183.4 172.3 184.1 172.1 184.9 C171.5 188.9 170.9 192.9 170.2 196.9 C170.0 198.6 169.8 200.2 169.5 201.9 C169.4 202.7 169.3 203.5 169.1 204.3 C168.3 209.6 167.2 214.6 165.6 219.7 C165 222 165 222 165 228 C188.4 228 211.9 228 236 228 C234.9 223.7 233.9 222.4 230.9 219.2 C230.1 218.5 229.4 217.7 228.6 216.8 C228.2 216.4 227.8 216.0 227.4 215.5 C225.8 213.8 224.3 212.0 222.8 210.2 C218.7 205.6 214.4 201.3 210.1 196.9 C209.3 196.2 208.5 195.4 207.8 194.6 C203.0 189.9 198.1 185.4 193 181 C191.8 180.0 190.7 179.0 189.5 177.9 C188.4 177.0 187.3 176.1 186.2 175.1 C185.6 174.6 185.1 174.2 184.5 173.7 C184.0 173.2 183.4 172.7 182.9 172.3 C182.4 171.8 181.9 171.4 181.4 171.0 C180 170 180 170 177 169 Z M-324 169 C-330.4 174.0 -336.5 179.2 -342.4 184.6 C-344.5 186.6 -346.6 188.4 -348.8 190.2 C-357.2 197.6 -365.2 205.6 -372.4 214.1 C-373.6 215.6 -374.9 217.0 -376.2 218.4 C-376.9 219.2 -377.7 220.0 -378.4 220.8 C-379.1 221.5 -379.8 222.3 -380.5 223.0 C-382 225 -382 225 -382 228 C-358.6 228 -335.1 228 -311 228 C-309.5 224.9 -310.6 222.1 -311.3 218.9 C-311.4 218.2 -311.6 217.6 -311.7 216.9 C-312.4 213.6 -313.2 210.4 -314.0 207.1 C-315.2 202.5 -315.8 197.9 -316.4 193.2 C-319.5 172.2 -319.5 172.2 -322.6 169.7 C-323.1 169.5 -323.5 169.2 -324 169 Z M-65 174 C-65.5 182.3 -58.4 190.6 -54.3 197.5 C-53.1 199.6 -51.8 201.8 -50.6 203.9 C-50.3 204.4 -50.0 204.9 -49.6 205.5 C-46.6 210.7 -43.6 216.0 -40.7 221.4 C-39.3 223.9 -38.0 226.0 -36 228 C-34.2 228.2 -34.2 228.2 -32.1 228.2 C-31.7 228.2 -31.7 228.2 -29.6 228.2 C-28.7 228.2 -27.8 228.2 -26.9 228.2 C-26.4 228.2 -26.4 228.2 -24.0 228.2 C-20.9 228.2 -17.7 228.2 -14.6 228.2 C-12.4 228.2 -10.2 228.2 -8.1 228.2 C-2.9 228.2 2.2 228.2 7.3 228.1 C13.8 228.1 20.2 228.1 26.6 228.1 C38.1 228.1 49.5 228.0 61 228 C59.9 222.0 57.1 217.3 54.2 211.9 C53.7 210.9 53.1 210.0 52.6 208.9 C52.0 208.0 51.5 207.0 51.0 206.0 C50.5 205.2 50.0 204.3 49.5 203.4 C46.6 198.9 43.8 196.6 38.7 194.8 C38.2 194.6 38.2 194.6 35.6 193.7 C34.5 193.3 33.4 192.9 32.3 192.6 C31.2 192.2 30.0 191.8 28.9 191.4 C20.0 188.3 11.1 185.4 2 183 C1.4 182.8 0.7 182.7 0.1 182.5 C-20.9 176.7 -43.2 174.4 -65 174 Z M-101.9 175.3 C-102.2 175.3 -102.2 175.3 -103.7 175.5 C-126.7 178.1 -149.0 182.5 -170.9 190.3 C-173.0 191.0 -175.0 191.7 -177.0 192.4 C-178.3 192.8 -179.5 193.2 -180.8 193.6 C-181.8 194.0 -182.9 194.4 -184.0 194.7 C-190.0 197.2 -193.3 199.7 -196.5 205.6 C-196.8 206.1 -197.1 206.6 -197.4 207.1 C-198.0 208.2 -198.5 209.3 -199.1 210.4 C-200.0 212.0 -200.9 213.5 -201.7 215.1 C-204.2 219.4 -206.1 223.0 -207 228 C-194.5 228.2 -181.9 228.4 -169.4 228.5 C-163.5 228.5 -157.7 228.6 -151.9 228.7 C-146.3 228.8 -140.7 228.8 -135.0 228.9 C-132.9 228.9 -130.7 228.9 -128.6 229.0 C-125.6 229.0 -122.6 229.0 -119.6 229.0 C-119.1 229.0 -119.1 229.0 -116.9 229.1 C-114.3 229.1 -112.4 228.9 -110 228 C-107.4 225.3 -105.7 222.3 -104 219 C-103.1 217.6 -102.3 216.1 -101.4 214.7 C-100.6 213.2 -99.7 211.7 -98.9 210.2 C-98.4 209.4 -98.0 208.6 -97.5 207.8 C-96.5 206.1 -95.5 204.4 -94.5 202.7 C-92.9 199.9 -91.3 197.1 -89.7 194.2 C-88.6 192.3 -87.5 190.5 -86.4 188.6 C-85.9 187.7 -85.3 186.8 -84.8 185.9 C-84.3 185.0 -83.8 184.2 -83.3 183.3 C-82.9 182.6 -82.5 181.8 -82.0 181.1 C-81.0 179.0 -80.4 177.3 -80 175 C-81 174 -81 174 -84.3 173.9 C-90.2 173.9 -96.0 174.6 -101.9 175.3 Z M-74 179 C-75.4 180.5 -75.4 180.5 -76.8 182.8 C-77.3 183.6 -77.8 184.4 -78.3 185.2 C-82.9 192.7 -87.2 200.3 -91.4 208.1 C-92.6 210.3 -93.9 212.5 -95.2 214.7 C-95.5 215.3 -95.9 216.0 -96.3 216.6 C-97.0 217.8 -97.7 219.1 -98.5 220.3 C-100.1 223.1 -101 224.7 -101 228 C-82.5 228 -64.0 228 -45 228 C-45.9 223.6 -46.8 221.2 -48.9 217.4 C-49.2 216.9 -49.5 216.3 -49.8 215.8 C-50.8 214.1 -51.7 212.5 -52.7 210.8 C-53.3 209.7 -53.9 208.6 -54.5 207.5 C-57.9 201.7 -61.3 195.9 -64.7 190.1 C-66.2 187.7 -67.5 185.3 -68.9 182.9 C-69.3 182.1 -69.7 181.4 -70.1 180.6 C-70.3 180.4 -70.3 180.4 -71 179 C-72.0 179 -73.0 179 -74 179 Z M57 204 C58.5 209.2 60.8 213.6 63.5 218.2 C63.9 219.0 64.3 219.7 64.7 220.4 C67.7 225.7 67.7 225.7 70 228 C72.7 228.2 72.7 228.2 76.1 228.2 C76.4 228.2 76.4 228.2 77.9 228.2 C79.8 228.2 81.7 228.2 83.6 228.1 C84.9 228.1 86.2 228.1 87.5 228.1 C90.7 228.1 93.8 228.0 97 228 C95.9 224.6 95.3 224.2 92.3 222.4 C91.5 221.9 90.8 221.4 90.0 220.9 C89.1 220.4 88.3 219.8 87.4 219.3 C86.6 218.8 85.7 218.3 84.9 217.7 C65.0 205.5 65.0 205.5 57 204 Z M-204 204 C-217.9 209.7 -230.9 217.1 -243 226 C-242.7 226.7 -242.3 227.3 -242 228 C-238.4 228.2 -234.8 228.4 -231.2 228.5 C-230.0 228.5 -228.8 228.6 -227.6 228.7 C-223.6 228.9 -219.9 229.0 -216 228 C-213.1 225.4 -211.6 222.5 -210 219 C-209.3 217.9 -208.6 216.7 -207.8 215.6 C-207.3 214.6 -206.7 213.6 -206.1 212.6 C-205.7 212.1 -205.4 211.6 -205.1 211.1 C-204.2 209.6 -204.2 209.6 -203 207 C-203.2 206.5 -203.2 206.5 -204 204 Z M-503 234 C-503 235.0 -503 236.0 -503 237 C-502.5 237.3 -502.0 237.5 -501.5 237.8 C-490.5 243.8 -479.6 249.9 -468.8 256.4 C-463.4 259.6 -458.0 262.7 -452.5 265.6 C-448.7 267.7 -444.9 269.9 -441.1 272.2 C-437.1 274.5 -433.2 276.3 -429 278 C-423.1 270.5 -418.0 262.5 -412.7 254.5 C-411.6 252.8 -410.4 251.0 -409.2 249.2 C-408.9 248.7 -408.5 248.1 -408.2 247.6 C-406.0 244.3 -403.6 241.3 -400.8 238.4 C-400.6 237.9 -400.3 237.5 -400 237 C-400.2 236.5 -400.2 236.5 -401 234 C-434.7 234 -468.3 234 -503 234 Z M-393 239 C-393.5 239.6 -394.0 240.1 -394.5 240.7 C-395.8 242.5 -397.2 244.3 -398.5 246.1 C-399.0 246.7 -399.5 247.4 -400.0 248.1 C-404.3 253.9 -408.3 259.8 -412.2 265.8 C-412.8 266.6 -413.4 267.5 -414.0 268.3 C-414.5 269.2 -415.0 270.0 -415.6 270.8 C-416.0 271.5 -416.5 272.2 -417.0 273.0 C-418.1 275.2 -418.1 276.5 -418 279 C-404.6 279.2 -391.2 279.3 -377.7 279.4 C-371.5 279.5 -365.3 279.5 -359.0 279.6 C-353.6 279.7 -348.2 279.7 -342.7 279.8 C-339.9 279.8 -337.0 279.8 -334.1 279.8 C-330.9 279.9 -327.7 279.9 -324.5 279.9 C-323.5 279.9 -322.6 280.0 -321.6 280.0 C-316.1 279.9 -313.4 279.0 -309.5 275.1 C-308.3 273.8 -307.2 272.4 -306 271 C-305.1 270.1 -304.3 269.2 -303.4 268.3 C-298.0 262.4 -298.0 262.4 -298.0 258.9 C-298.8 256.5 -299.9 254.3 -301 252 C-302.1 249.2 -303.1 246.4 -304.1 243.6 C-304.6 242.2 -305.1 240.8 -305.6 239.4 C-305.7 239.1 -305.7 239.1 -306.3 237.6 C-307 236 -307 236 -309 234 C-311.5 233.8 -313.9 233.7 -316.4 233.7 C-317.2 233.7 -317.9 233.7 -318.7 233.7 C-321.2 233.6 -323.8 233.6 -326.3 233.6 C-328.1 233.6 -329.8 233.6 -331.6 233.6 C-335.3 233.6 -338.9 233.6 -342.6 233.6 C-347.4 233.6 -352.1 233.5 -356.8 233.5 C-360.4 233.5 -364.1 233.4 -367.7 233.4 C-369.4 233.4 -371.2 233.4 -372.9 233.4 C-375.3 233.4 -377.8 233.4 -380.2 233.4 C-380.6 233.4 -380.6 233.4 -382.4 233.4 C-387.7 233.4 -389.6 234.9 -393 239 Z M-239 234 C-240 238 -240 238 -239.4 239.7 C-239.0 240.3 -238.7 240.9 -238.3 241.5 C-238.2 241.8 -238.2 241.8 -237.2 243.3 C-236.9 244.0 -236.5 244.6 -236.1 245.2 C-235.9 245.6 -235.9 245.6 -234.9 247.2 C-233.9 248.8 -233.0 250.4 -232 252 C-230.3 251.9 -230.3 251.9 -228 251 C-226.3 248.9 -225.0 246.5 -223.7 244.1 C-223.3 243.5 -222.9 242.8 -222.6 242.2 C-220.6 238.6 -220.6 238.6 -220 237 C-220.3 236.0 -220.7 235.0 -221 234 C-226.9 234 -232.9 234 -239 234 Z M-213.5 236.4 C-214.0 237.3 -214.5 238.1 -215 239 C-215.5 239.8 -216.0 240.5 -216.5 241.3 C-217.9 243.9 -219.4 246.4 -220.8 249 C-221.1 249.4 -221.1 249.4 -222.4 251.7 C-222.9 252.6 -223.3 253.4 -223.8 254.3 C-224.3 255.1 -224.7 255.9 -225.2 256.7 C-226.2 259.6 -226.0 261.1 -225 264 C-223.8 266.0 -223.8 266.0 -222.2 267.8 C-221.7 268.5 -221.1 269.2 -220.5 269.9 C-219.9 270.6 -219.4 271.3 -218.8 272 C-218.2 272.7 -217.6 273.4 -217.0 274.1 C-213.8 277.9 -210.6 281.5 -207 285 C-206.2 285.8 -205.3 286.7 -204.5 287.5 C-204.1 287.9 -203.7 288.3 -203.2 288.8 C-202.0 290.0 -200.8 291.2 -199.6 292.4 C-198.8 293.2 -197.9 294.1 -197 295 C-196.3 295.7 -195.5 296.5 -194.7 297.3 C-189.1 302.6 -183.2 307.2 -176.7 311.5 C-175.9 312.0 -175.2 312.5 -174.4 313.1 C-170.3 315.7 -166.7 317.7 -162 319 C-158.1 313.4 -154.5 307.5 -151 301.6 C-150.6 300.9 -150.2 300.3 -149.8 299.6 C-146.9 294.7 -144.2 289.8 -141.5 284.8 C-139.0 280.2 -136.5 275.7 -133.9 271.1 C-133.3 270.1 -132.8 269.2 -132.2 268.2 C-129.3 263.1 -126.4 258.0 -123.5 253.0 C-122.9 252.0 -122.3 251.1 -121.8 250.1 C-120.7 248.3 -119.6 246.5 -118.5 244.7 C-118.0 243.8 -117.6 243.0 -117.1 242.2 C-116.9 241.8 -116.9 241.8 -115.8 240.0 C-114.8 237.6 -115.3 236.5 -116 234 C-128.3 233.9 -140.6 233.8 -153.0 233.7 C-158.7 233.7 -164.4 233.7 -170.1 233.6 C-175.6 233.6 -181.1 233.5 -186.7 233.5 C-188.8 233.5 -190.9 233.5 -193.0 233.5 C-195.9 233.4 -198.9 233.4 -201.8 233.4 C-202.7 233.4 -203.6 233.4 -204.5 233.4 C-210.4 233.4 -210.4 233.4 -213.5 236.4 Z M-108.7 237.7 C-109.5 239.1 -110.3 240.6 -111 242 C-111.6 242.9 -112.1 243.8 -112.7 244.7 C-113.1 245.5 -113.6 246.3 -114.0 247.1 C-114.3 247.6 -114.3 247.6 -115.5 249.9 C-115.8 250.3 -115.8 250.3 -117.1 252.8 C-118.3 254.8 -119.4 256.8 -120.5 258.9 C-120.8 259.4 -121.1 259.9 -121.4 260.4 C-124.3 265.6 -127.4 270.6 -130.4 275.7 C-134.0 281.6 -137.3 287.4 -140.2 293.6 C-141.7 296.6 -143.5 299.5 -145.2 302.4 C-145.8 303.4 -146.4 304.4 -147.0 305.4 C-148.2 307.4 -149.5 309.4 -150.7 311.3 C-151.2 312.3 -151.8 313.2 -152.4 314.1 C-152.9 314.9 -153.4 315.8 -153.9 316.6 C-155.1 319.3 -155.2 321.1 -155 324 C-154.5 324.2 -154.0 324.4 -153.6 324.6 C-151.3 325.5 -149.1 326.4 -146.9 327.3 C-146.6 327.5 -146.6 327.5 -144.7 328.2 C-143.9 328.6 -143.2 328.9 -142.4 329.2 C-141.7 329.5 -140.9 329.8 -140.1 330.1 C-138.2 330.9 -136.3 331.7 -134.5 332.6 C-92.7 350.5 -40.3 343.9 0.7 327.8 C1.5 327.5 2.3 327.2 3.1 326.8 C3.8 326.6 4.4 326.3 5.2 326.0 C7.2 324.9 8.5 323.7 10 322 C6.0 313.6 1.7 305.6 -3.1 297.6 C-6.1 292.5 -9.1 287.3 -11.9 282.1 C-16.2 274.3 -20.7 266.6 -25.2 258.9 C-27.2 255.5 -29.1 252.0 -31.1 248.6 C-31.6 247.7 -32.1 246.9 -32.6 246.0 C-33.6 244.3 -34.5 242.6 -35.5 240.9 C-35.9 240.1 -36.3 239.4 -36.8 238.6 C-37.0 238.3 -37.0 238.3 -37.9 236.6 C-39 235 -39 235 -41 234 C-43.0 233.9 -45.0 233.8 -47.0 233.8 C-47.6 233.7 -48.2 233.7 -48.9 233.7 C-55.3 233.6 -61.7 233.5 -68.2 233.5 C-71.2 233.5 -74.3 233.4 -77.3 233.3 C-81.0 233.3 -84.7 233.2 -88.4 233.2 C-89.8 233.2 -91.2 233.2 -92.6 233.1 C-104.9 232.8 -104.9 232.8 -108.7 237.7 Z M-30 234 C-31.1 237.7 -31.1 237.7 -30.0 240.5 C-29.7 240.9 -29.7 240.9 -28.4 243.3 C-28.2 243.5 -28.2 243.5 -27.5 244.8 C-26.6 246.4 -25.6 248.1 -24.7 249.7 C-24.0 250.8 -23.4 251.9 -22.7 253.1 C-21.1 255.9 -19.5 258.7 -17.9 261.5 C-17.1 262.9 -16.3 264.3 -15.4 265.7 C-11.6 272.3 -7.7 278.8 -3.8 285.4 C-1.8 288.6 -0.0 291.8 1.8 295.1 C4.5 300.1 7.3 305.1 10.2 310.1 C10.4 310.5 10.4 310.5 11.5 312.4 C11.7 312.8 11.7 312.8 12.7 314.6 C13.1 315.2 13.5 315.8 13.8 316.5 C15 318 15 318 18 319 C19.8 318.3 19.8 318.3 21.8 317.1 C22.1 316.9 22.1 316.9 24.0 315.7 C24.8 315.2 25.6 314.8 26.4 314.2 C27.2 313.7 28.0 313.2 28.8 312.7 C35.5 308.5 41.6 303.7 47.5 298.4 C49.0 297.0 50.6 295.6 52.1 294.2 C58.9 288.2 65.2 281.9 71 275 C71.2 274.7 71.2 274.7 72.3 273.5 C73.6 271.9 74.9 270.3 76.2 268.8 C76.6 268.3 77.0 267.8 77.4 267.3 C79.5 264.6 80.0 263.1 80.0 259.5 C79.2 255.7 77.3 252.8 75.2 249.6 C74.5 248.4 73.7 247.3 73.0 246.2 C72.8 245.9 72.8 245.9 71.9 244.5 C70.3 241.9 69.0 239.2 67.8 236.4 C67 235 67 235 65 234 C63.7 233.9 62.4 233.9 61.2 233.9 C60.4 233.9 59.5 233.9 58.7 233.9 C58.3 233.9 58.3 233.9 56.1 233.9 C55.1 233.9 54.2 233.9 53.2 233.9 C50.2 233.9 47.1 233.9 44.0 233.9 C41.9 233.9 39.8 233.9 37.6 233.9 C32.0 233.9 26.4 233.9 20.8 233.9 C15.1 233.9 9.4 233.9 3.7 234.0 C-7.6 234.0 -18.8 234.0 -30 234 Z M75 234 C75.9 239.3 76.7 242.0 79.3 246.4 C79.6 246.9 79.9 247.5 80.2 248.0 C81.1 249.6 81.1 249.6 83 252 C85.2 252.4 85.2 252.4 87 252 C88.2 249.9 89.3 247.9 90.5 245.8 C90.8 245.2 91.2 244.7 91.5 244.1 C91.8 243.5 92.1 242.9 92.5 242.3 C92.8 241.8 93.1 241.3 93.4 240.8 C94 239 94 239 94 234 C87.7 234 81.5 234 75 234 Z M161.1 236.4 C160.7 237.3 160.4 238.1 160 239 C159.9 239.3 159.9 239.3 159.1 241.0 C159.0 241.3 159.0 241.3 158.4 242.9 C158.2 243.6 157.9 244.3 157.7 245.0 C157.4 245.7 157.1 246.5 156.9 247.2 C156.4 248.6 155.8 250.0 155.3 251.5 C155.1 252.1 154.9 252.7 154.6 253.4 C154 255 154 255 153 257 C152.6 259.8 152.6 259.8 153 263 C154.5 265.0 155.9 266.4 157.7 268 C158.6 268.8 159.4 269.6 160.3 270.4 C160.5 270.6 160.5 270.6 161.6 271.6 C163 273 163 273 164.0 274.5 C165.7 277.2 167.0 278.7 170.1 279.5 C172.8 279.7 175.5 279.7 178.2 279.7 C178.7 279.7 178.7 279.7 181.3 279.7 C184.7 279.7 188.1 279.6 191.5 279.6 C193.8 279.6 196.2 279.6 198.5 279.6 C204.0 279.5 209.6 279.5 215.1 279.4 C221.4 279.4 227.7 279.3 234.1 279.3 C247.0 279.2 260.0 279.1 273 279 C271.8 275.4 270.8 272.3 268.7 269.1 C268.2 268.4 267.7 267.8 267.3 267.0 C267.0 266.7 267.0 266.7 265.8 264.8 C265.2 264.0 264.7 263.3 264.2 262.5 C260.0 256.4 255.8 250.4 251.4 244.5 C250.8 243.7 250.2 242.9 249.6 242.0 C249.4 241.6 249.4 241.6 247.9 239.7 C247.4 239.0 246.9 238.4 246.4 237.7 C244.0 234.8 242.5 234.0 238.7 233.7 C237.3 233.7 235.9 233.7 234.5 233.7 C233.7 233.7 232.9 233.7 232.1 233.7 C229.6 233.6 227.1 233.6 224.5 233.6 C222.8 233.6 221.0 233.6 219.3 233.6 C215.6 233.6 211.9 233.6 208.2 233.6 C203.5 233.6 198.7 233.5 194.0 233.5 C190.4 233.5 186.7 233.4 183.1 233.4 C181.3 233.4 179.6 233.4 177.9 233.4 C175.4 233.4 173.0 233.4 170.5 233.4 C169.8 233.4 169.1 233.4 168.4 233.4 C164.7 233.4 163.4 233.5 161.1 236.4 Z M255 234 C254.7 234.7 254.3 235.3 254 236 C254.2 236.2 254.2 236.2 255.0 237.4 C261.6 246.3 267.9 255.2 273.7 264.6 C276.5 269.3 279.6 273.7 283 278 C289.7 275.2 295.9 271.9 302.2 268.2 C304.1 267.2 305.9 266.1 307.8 265.0 C308.7 264.5 309.6 264.0 310.5 263.4 C313.1 261.9 315.7 260.5 318.2 259.0 C323.2 256.2 328.1 253.4 333.0 250.5 C333.5 250.2 334.0 249.9 334.6 249.6 C337.3 248.0 340.0 246.4 342.7 244.8 C347.4 242.1 352.1 239.3 357 237 C357 236.0 357 235.0 357 234 C323.3 234 289.7 234 255 234 Z M-508 241 C-507.4 244.8 -506.3 247.6 -504.5 250.9 C-504.3 251.4 -504.3 251.4 -502.9 253.8 C-502.4 254.8 -501.8 255.9 -501.2 256.9 C-500.7 257.9 -500.1 259.0 -499.5 260.1 C-492.2 273.4 -484.8 286.6 -477.1 299.7 C-474.8 303.5 -472.8 307.4 -470.8 311.4 C-469.1 314.9 -467.3 318.2 -465.1 321.4 C-462.4 325.4 -460.3 329.7 -458 334 C-455.0 331.3 -453.3 329.0 -451.8 325.3 C-451.4 324.4 -451.0 323.4 -450.6 322.5 C-450.2 321.5 -449.8 320.5 -449.4 319.5 C-445.7 310.4 -441.4 301.8 -436.3 293.4 C-433.0 287.8 -433.0 287.8 -432.9 284.2 C-434.5 281.1 -436.3 280.2 -439.3 278.6 C-439.9 278.3 -440.4 278.0 -440.9 277.7 C-444.6 275.7 -448.2 273.9 -451.9 272.1 C-456.6 269.8 -461.0 267.2 -465.4 264.5 C-472.0 260.3 -478.8 256.6 -485.6 252.7 C-491.8 249.3 -497.9 245.7 -504.0 242.1 C-506 241 -506 241 -508 241 Z M356.0 243.1 C355.1 243.6 354.3 244.1 353.5 244.6 C352.6 245.1 351.7 245.6 350.8 246.1 C349.9 246.7 349.0 247.2 348.0 247.8 C345.0 249.5 342.0 251.2 339 253 C337.0 254.2 335.1 255.3 333.1 256.5 C330.1 258.2 327.1 259.9 324.1 261.7 C315.9 266.5 307.7 271.2 299.4 275.8 C298.5 276.3 297.6 276.8 296.7 277.4 C296.3 277.6 296.3 277.6 294.3 278.7 C291.8 280.1 289.4 281.5 287 283 C287.6 288.1 290.0 292.1 292.5 296.6 C297.1 305.1 301.2 313.8 305.1 322.7 C306.6 326.2 308.3 329.6 310 333 C311.0 333 312.0 333 313 333 C313.4 332.3 313.8 331.6 314.1 330.8 C317.8 323.9 321.6 317.2 325.6 310.4 C329.1 304.3 332.5 298.2 335.6 291.8 C337.1 288.8 338.7 285.9 340.4 282.9 C344.3 276.3 348.1 269.6 351.8 262.9 C352.5 261.7 353.1 260.5 353.8 259.3 C360.5 247.3 360.5 247.3 363 241 C359.7 241 358.7 241.5 356.0 243.1 Z M-299.3 272.0 C-299.7 272.4 -300.1 272.9 -300.6 273.3 C-301.0 273.8 -301.5 274.2 -301.9 274.7 C-306.6 279.5 -310.8 284.7 -315 290 C-315.4 290.5 -315.8 291.0 -316.2 291.6 C-322.2 299.1 -327.8 306.9 -333 315 C-333.3 315.5 -333.7 316.1 -334.1 316.6 C-335.1 318.2 -336.1 319.9 -337.1 321.5 C-337.7 322.5 -338.3 323.4 -338.9 324.4 C-340 327 -340 327 -339.3 329 C-337.8 331.4 -336.4 332.2 -333.9 333.6 C-333.1 334.1 -332.2 334.5 -331.4 335.0 C-330.5 335.5 -329.6 336.0 -328.6 336.5 C-326.7 337.6 -324.8 338.6 -322.9 339.7 C-321.9 340.2 -321.0 340.8 -320.0 341.3 C-314.4 344.5 -308.9 347.8 -303.4 351.2 C-302.6 351.6 -301.8 352.1 -301.0 352.6 C-300.3 353.0 -299.7 353.4 -299.0 353.9 C-293.6 357.0 -293.6 357.0 -290.5 357.0 C-287.0 355.6 -285.8 353.3 -284.1 350.2 C-283.7 349.6 -283.4 349.0 -283.0 348.4 C-280.2 343.6 -277.7 338.6 -275.3 333.6 C-273.8 330.5 -272.0 327.8 -270 325 C-267.4 321.2 -265.1 317.6 -265.4 312.8 C-266.4 309.7 -268.6 307.9 -270.8 305.6 C-273.6 302.3 -275.9 298.7 -278.3 295.1 C-278.5 294.7 -278.5 294.7 -279.7 292.9 C-283.6 286.7 -287.3 280.5 -290.8 274.2 C-291.2 273.5 -291.6 272.8 -292.0 272.1 C-292.3 271.5 -292.7 270.9 -293.0 270.3 C-293.3 269.9 -293.7 269.4 -294 269 C-296.7 269 -297.5 270.2 -299.3 272.0 Z M148 269 C147.5 269.9 147.0 270.9 146.5 271.9 C139.5 284.6 132.0 297.1 122.8 308.2 C120.8 310.7 120.0 311.9 119.2 314.9 C120.0 318.0 121.0 319.8 122.6 322.5 C126.7 329.1 130.5 336.0 134.3 342.8 C137.1 347.7 139.8 352.4 143 357 C147.7 356.5 151.2 355.1 155.2 352.7 C155.8 352.3 156.4 352.0 157.0 351.7 C158.8 350.6 160.7 349.5 162.5 348.4 C163.7 347.7 164.9 347.0 166.1 346.3 C168.5 344.9 170.9 343.5 173.3 342.1 C177.7 339.6 182.1 337.1 186.5 334.6 C189.1 333.1 191.6 331.7 194 330 C193.6 324.0 190.8 319.9 187.6 314.9 C187.0 314.1 186.5 313.3 185.9 312.4 C181.9 306.2 177.6 300.3 173.0 294.5 C171 292 171 292 169.9 290.2 C169.6 289.8 169.3 289.4 169 289 C168.3 289 167.7 289 167 289 C166.8 288.4 166.5 287.9 166.3 287.3 C164.7 284.5 162.8 282.4 160.6 280.1 C158.3 277.5 156.0 275.0 154.0 272.2 C151.9 269.9 151.0 269.3 148 269 Z M-413 285 C-413 286.0 -413 287.0 -413 288 C-411.1 289.5 -411.1 289.5 -408.3 291.0 C-407.3 291.6 -406.3 292.2 -405.3 292.8 C-404.2 293.4 -403.1 294.0 -402 294.6 C-400.9 295.3 -399.8 295.9 -398.7 296.5 C-395.5 298.4 -392.2 300.2 -389 302 C-388.2 302.5 -387.4 302.9 -386.6 303.4 C-383.9 304.9 -381.3 306.3 -378.7 307.8 C-372.3 311.3 -366.1 315.0 -359.8 318.7 C-359.2 319.1 -358.6 319.5 -357.9 319.9 C-356.6 320.6 -355.3 321.4 -354.1 322.2 C-349.6 325.0 -349.6 325.0 -346.7 325.1 C-344.2 323.5 -343.4 321.7 -342.1 319.1 C-338.8 313.2 -335.1 307.6 -331.3 302.1 C-330.8 301.2 -330.2 300.4 -329.6 299.6 C-327.4 296.3 -325.1 293.1 -322.5 290.1 C-322.0 289.4 -321.5 288.7 -321 288 C-321.2 287.5 -321.2 287.5 -322 285 C-352.0 285 -382.1 285 -413 285 Z M176 285 C175.7 285.7 175.3 286.3 175 287 C175.3 287.5 175.7 287.9 176.0 288.4 C181.6 296.3 187.3 304.2 192.4 312.5 C195.1 316.8 198.1 320.9 201 325 C206.5 322.9 211.5 320.1 216.6 317.3 C217.6 316.8 218.6 316.2 219.6 315.7 C225.5 312.5 231.1 309.2 236.7 305.5 C239.1 303.9 241.6 302.6 244.1 301.2 C249.2 298.5 254.2 295.7 259.2 292.8 C260.0 292.4 260.7 292.0 261.5 291.5 C262.2 291.1 262.9 290.7 263.7 290.3 C264.3 289.9 265.0 289.5 265.6 289.2 C266.1 288.8 266.5 288.4 267 288 C267 287.0 267 286.0 267 285 C237.0 285 206.9 285 176 285 Z M-427 292 C-430.1 295.5 -432.2 299.1 -434.2 303.3 C-434.5 303.9 -434.8 304.5 -435.1 305.1 C-436.0 307.0 -437.0 309.0 -437.9 310.9 C-438.2 311.5 -438.5 312.2 -438.8 312.9 C-451.9 340.1 -451.9 340.1 -451 347 C-449.9 349.7 -448.4 352.2 -446.9 354.8 C-446.5 355.5 -446.1 356.2 -445.6 356.9 C-443.0 361.4 -440.2 365.9 -437.5 370.4 C-435.9 373.1 -434.6 375.8 -433.3 378.6 C-430.2 384.8 -426.7 390.9 -423.1 396.9 C-422.5 397.9 -421.9 399.0 -421.3 400.0 C-420.1 402.1 -418.8 404.2 -417.6 406.2 C-412.6 414.8 -407.8 423.3 -403.4 432.2 C-401.6 435.7 -399.6 439.1 -397.5 442.5 C-396.4 444.3 -395.4 446.1 -394.4 447.8 C-393.8 448.8 -393.3 449.7 -392.8 450.6 C-392.3 451.5 -391.8 452.3 -391.3 453.2 C-391.1 453.5 -391.1 453.5 -390 455 C-389.3 455 -388.7 455 -388 455 C-386.4 449.3 -385.5 443.8 -384.9 437.9 C-384.8 436.4 -384.6 434.9 -384.5 433.3 C-384.4 433.0 -384.4 433.0 -384.3 431.3 C-384 429 -384 429 -383.3 425.7 C-382.7 421.4 -383.9 417.9 -385.3 413.8 C-385.5 413.4 -385.5 413.4 -386.1 411.5 C-387.0 408.9 -387.8 406.4 -388.7 403.8 C-389.3 402.0 -389.9 400.2 -390.5 398.4 C-392.0 393.8 -393.6 389.2 -395.1 384.6 C-396.4 380.7 -397.7 376.8 -399.0 372.9 C-399.5 371.4 -400.0 370.0 -400.5 368.5 C-400.6 368.1 -400.6 368.1 -401.2 366.3 C-401.9 364.2 -402.7 362.0 -403.4 359.9 C-406.2 351.4 -409.0 343.0 -411.7 334.6 C-412.0 333.6 -412.4 332.6 -412.7 331.6 C-414.2 326.9 -415.7 322.2 -417.3 317.4 C-420.0 308.9 -422.8 300.4 -426 292 C-426.3 292 -426.7 292 -427 292 Z M-418 293 C-417.4 298.9 -416.2 304.2 -414.3 309.8 C-414.0 310.6 -413.7 311.5 -413.5 312.3 C-412.6 315.0 -411.7 317.8 -410.8 320.5 C-410.1 322.4 -409.5 324.3 -408.9 326.2 C-407.6 330.2 -406.3 334.2 -404.9 338.1 C-402.2 346.3 -399.6 354.6 -396.9 362.8 C-395.3 367.7 -393.7 372.6 -392.1 377.5 C-390.8 381.5 -389.5 385.5 -388.3 389.5 C-387.5 391.9 -386.7 394.4 -385.9 396.9 C-385.6 397.7 -385.4 398.5 -385.1 399.4 C-384.9 400.1 -384.6 400.9 -384.4 401.6 C-384.2 402.2 -384.0 402.8 -383.8 403.5 C-382.8 405.3 -381.8 406.0 -380 407 C-377.6 401.7 -375.8 396.3 -374.2 390.7 C-371.6 381.6 -368.4 372.7 -364.8 363.9 C-364.1 362.2 -363.4 360.5 -362.7 358.8 C-360.1 352.1 -356.9 345.8 -353.6 339.4 C-353.4 339.1 -353.4 339.1 -352.6 337.5 C-352.3 336.9 -352.0 336.3 -351.7 335.7 C-350.9 333.7 -350.9 332.1 -351 330 C-351.5 329.7 -352.0 329.4 -352.5 329.1 C-362.6 323.4 -372.7 317.6 -382.7 311.8 C-383.7 311.2 -384.8 310.6 -385.8 310.0 C-390.9 307.0 -396.0 304.0 -401.1 300.9 C-401.9 300.5 -402.7 300.0 -403.5 299.5 C-404.9 298.7 -406.3 297.8 -407.7 296.9 C-411.2 294.9 -414.0 293.5 -418 293 Z M265.5 295.4 C265.1 295.6 265.1 295.6 262.8 297.0 C261.8 297.5 260.8 298.1 259.8 298.7 C258.7 299.3 257.7 299.9 256.7 300.4 C248.6 305.0 240.6 309.7 232.6 314.5 C227.3 317.7 222.0 320.7 216.6 323.6 C212.5 325.8 208.8 328.4 205 331 C205.6 333.9 206.6 336.5 207.9 339.2 C208.3 340.0 208.7 340.7 209.0 341.6 C209.4 342.4 209.8 343.2 210.2 344.1 C211.8 347.4 213.4 350.7 215 354 C215.4 354.8 215.8 355.7 216.2 356.5 C219.8 364.2 222.5 372.0 225.1 380.1 C225.6 381.4 226.0 382.7 226.4 384.0 C228.7 391.0 230.9 398.0 233 405 C234.3 405 235.6 405 237 405 C245.6 379.5 254.0 353.9 262.3 328.3 C263.9 323.3 265.5 318.3 267.2 313.3 C267.8 311.5 268.4 309.6 269.0 307.8 C269.7 305.7 270.4 303.6 271.1 301.6 C271.3 300.7 271.6 299.8 271.9 298.9 C272.0 298.6 272.0 298.6 272.6 296.7 C273 295 273 295 272 293 C269.3 293 267.9 294.0 265.5 295.4 Z M280 293 C274.9 307.3 270.1 321.8 265.4 336.3 C262.0 346.8 258.6 357.2 255.1 367.7 C253.8 371.7 252.4 375.7 251.1 379.7 C249.9 383.4 248.7 387.0 247.5 390.6 C246.1 394.5 244.8 398.4 243.6 402.3 C243.1 403.7 242.6 405.2 242.1 406.7 C237.0 421.5 237.0 421.5 238 429 C238.1 430.0 238.3 431.1 238.4 432.1 C238.9 435.6 239.4 439.1 240 442.6 C240.2 443.8 240.4 445.0 240.6 446.2 C241.0 449.1 241.5 452.1 242 455 C242.7 455 243.3 455 244 455 C245.3 453.2 245.3 453.2 246.7 450.7 C247.3 449.8 247.8 448.8 248.4 447.9 C248.9 446.9 249.4 446.0 250 445 C250.5 444.1 251.0 443.3 251.5 442.4 C253.0 439.7 254.5 437.0 256.1 434.3 C256.9 432.8 257.8 431.3 258.6 429.8 C260.1 427.2 261.5 424.6 263 422 C264.8 418.9 266.5 415.8 268.3 412.7 C269.3 410.7 270.4 408.8 271.5 406.9 C273.9 402.6 276.4 398.3 279.0 394.1 C281.2 390.5 283.1 386.9 284.9 383.1 C288.0 376.8 291.5 370.8 295.1 364.8 C296.9 361.7 298.7 358.7 300.4 355.7 C301.4 354.0 302.4 352.4 303.4 350.8 C305.2 347.9 306.1 346.1 305.7 342.6 C305.0 340.0 304.1 337.5 303 335 C302.7 334.2 302.4 333.4 302.0 332.6 C301.0 330.2 299.9 327.8 298.8 325.4 C298.4 324.5 298.0 323.7 297.6 322.8 C295.1 317.2 292.4 311.6 289.7 306.1 C289.4 305.5 289.1 304.9 288.7 304.2 C286.8 300.3 284.6 296.6 282 293 C281.3 293 280.7 293 280 293 Z M-261 320 C-265.6 328.1 -270.3 336.2 -274.8 344.4 C-276.4 347.2 -278.0 350.1 -279.7 352.9 C-280.2 353.7 -280.6 354.4 -281.1 355.2 C-281.3 355.6 -281.3 355.6 -282.3 357.2 C-283.2 359.6 -282.8 360.7 -282 363 C-280.7 364.2 -280.7 364.2 -279.0 365.1 C-278.3 365.5 -277.7 365.9 -277.0 366.2 C-276.3 366.6 -275.6 367.0 -274.9 367.4 C-274.1 367.9 -273.4 368.3 -272.6 368.7 C-271.0 369.7 -269.3 370.6 -267.7 371.5 C-264.9 373.1 -262.1 374.7 -259.2 376.3 C-255.3 378.5 -251.4 380.7 -247.4 382.9 C-244.1 384.8 -240.8 386.7 -237.6 388.6 C-237.3 388.8 -237.3 388.8 -235.7 389.8 C-234.5 390.5 -233.4 391.2 -232.2 391.9 C-229.8 393.3 -228.3 394.0 -225.5 393.9 C-222.5 392.8 -220.4 391.3 -217.9 389.4 C-211.6 384.6 -205.1 380.2 -198.2 376.5 C-197.5 376.0 -196.7 375.5 -196 375 C-196 374.0 -196 373.0 -196 372 C-197.5 370.7 -197.5 370.7 -199.7 369.4 C-200.5 369.0 -201.3 368.5 -202.1 368.0 C-203.0 367.5 -203.8 367.0 -204.7 366.4 C-215.4 359.9 -225.3 352.7 -234.5 344.2 C-236 343 -236 343 -238 343 C-238 342.3 -238 341.7 -238 341 C-239.4 339.6 -239.4 339.6 -241.4 338 C-244.8 335.1 -248.1 332.0 -251.3 328.8 C-251.7 328.4 -252.2 328.0 -252.6 327.6 C-254.4 325.7 -256.1 323.8 -257.7 321.7 C-258.1 321.1 -258.5 320.6 -259 320 C-259.7 320 -260.3 320 -261 320 Z M113 321 C112.4 321.7 111.7 322.3 111.1 323.0 C92.9 341.8 73.7 360.2 50 372 C50.2 373.8 50.2 373.8 51 376 C52.9 377.3 52.9 377.3 55.5 378.5 C61.9 381.7 67.4 385.8 73.1 390.1 C78.3 394.0 78.3 394.0 81.5 394.1 C85.3 392.4 89.0 390.4 92.7 388.3 C93.5 387.9 94.3 387.4 95.1 386.9 C100.0 384.2 104.9 381.3 109.7 378.4 C112.2 376.9 114.8 375.5 117.3 374.1 C121.6 371.8 125.9 369.4 130.1 366.8 C130.6 366.5 131.2 366.1 131.8 365.8 C134.5 364.1 136.3 362.7 138 360 C124.2 335.2 124.2 335.2 119.3 327 C118.7 326.0 118.1 325.1 117.6 324.1 C116 322 116 322 113 321 Z M-345 336 C-349.6 344.5 -354.2 353.0 -358 362 C-358.1 362.3 -358.1 362.3 -358.7 363.6 C-370.5 391.5 -391.4 444.0 -380.0 474.6 C-377.8 479.2 -375.1 483.4 -372.1 487.5 C-370.8 489.2 -369.9 491.0 -369 493 C-365.6 491.6 -364.2 490.2 -362.4 487 C-362.0 486.2 -361.5 485.4 -361.0 484.6 C-360.6 483.7 -360.1 482.9 -359.6 482 C-358.6 480.3 -357.7 478.5 -356.7 476.8 C-356.2 475.9 -355.8 475.1 -355.3 474.3 C-353.8 471.6 -352.3 469.1 -350.7 466.5 C-348.8 463.3 -347.0 460.1 -345.2 456.9 C-342.2 451.3 -339.0 445.7 -335.9 440.1 C-335.3 439.1 -334.7 438.1 -334.2 437.1 C-326.6 423.7 -318.9 410.3 -311.2 397.0 C-309.9 394.7 -308.6 392.5 -307.3 390.2 C-304.7 385.6 -302.0 381.0 -299.2 376.4 C-299.0 376.1 -299.0 376.1 -298.1 374.5 C-297.4 373.3 -296.7 372.2 -296.0 371.1 C-294.6 368.7 -294.0 367.3 -294.2 364.5 C-295.2 361.3 -296.4 360.7 -299.4 359.1 C-300.3 358.6 -301.2 358.1 -302.2 357.6 C-303.2 357.1 -304.2 356.5 -305.2 356 C-306.8 355.2 -308.3 354.3 -309.9 353.5 C-310.9 352.9 -312.0 352.3 -313.1 351.7 C-316.9 349.6 -320.6 347.5 -324.2 345.3 C-324.5 345.1 -324.5 345.1 -325.8 344.3 C-328.1 342.9 -330.5 341.4 -332.9 340.0 C-333.8 339.4 -334.6 338.9 -335.5 338.4 C-335.9 338.2 -335.9 338.2 -337.8 337.0 C-340.3 335.8 -342.2 335.8 -345 336 Z M189.8 338.5 C188.8 339.1 187.8 339.6 186.8 340.2 C185.7 340.9 184.6 341.5 183.6 342.1 C182.5 342.8 181.4 343.4 180.2 344.0 C176.8 346.0 173.4 348.0 170 350 C168.9 350.6 167.8 351.3 166.7 351.9 C160.4 355.6 154.2 359.3 148 363 C148.6 366.5 149.4 369.1 151.1 372.2 C151.6 373.0 152.0 373.8 152.4 374.6 C152.7 375.0 152.7 375.0 153.9 377.1 C154.4 378.0 154.9 378.9 155.4 379.8 C159.1 386.5 162.9 393.0 166.7 399.6 C170.4 406.0 174.1 412.4 177.7 418.9 C181.7 426.0 185.7 433.0 190.1 439.9 C192.4 443.5 194.3 447.2 196.4 451.0 C198.9 455.7 201.5 460.3 204.1 465.0 C205.0 466.6 205.9 468.2 206.8 469.8 C217.4 488.7 217.4 488.7 221 493 C221.7 493 222.3 493 223 493 C225.0 489.6 227.0 486.1 228.9 482.7 C229.2 482.2 229.2 482.2 230.6 479.7 C231.2 478.8 231.7 477.9 232.3 476.9 C232.8 476.0 233.3 475.2 233.8 474.3 C244.1 455.0 229.9 414.1 224.0 394.1 C220.7 383.3 216.9 372.9 212.3 362.5 C211.5 360.6 210.7 358.7 209.8 356.7 C207.5 351.3 205.1 345.9 202.4 340.6 C202.1 340.0 201.7 339.3 201.4 338.6 C200 337 200 337 197.7 336.1 C194.3 336.0 192.7 336.8 189.8 338.5 Z M-455 354 C-458.2 359.9 -460.4 365.8 -462.3 372.2 C-462.6 373.2 -462.9 374.2 -463.2 375.2 C-469.4 396.2 -474.1 417.3 -477 439 C-477.1 440.1 -477.3 441.1 -477.5 442.2 C-485.4 500.1 -479.1 560.1 -461.7 615.7 C-461.2 617.4 -460.7 619.1 -460.2 620.8 C-459.3 623.7 -458.4 626.6 -457.4 629.5 C-457.2 630.4 -456.9 631.4 -456.6 632.3 C-456.4 632.7 -456.4 632.7 -455.7 634.9 C-455.5 635.7 -455.3 636.4 -455.0 637.2 C-454 639 -454 639 -451.9 639.8 C-451.6 639.8 -451.6 639.8 -450 640 C-448.5 637.4 -446.9 634.8 -445.4 632.2 C-444.9 631.5 -444.5 630.8 -444.1 630.0 C-441.1 625.0 -438.3 619.9 -435.5 614.8 C-433.1 610.3 -430.5 605.8 -428 601.3 C-427.4 600.3 -426.9 599.3 -426.3 598.3 C-421.7 590.2 -417.0 582.1 -412.2 574.0 C-409.3 569.0 -406.4 563.9 -403.5 558.8 C-403.2 558.3 -402.9 557.8 -402.6 557.3 C-401.2 554.8 -399.8 552.3 -398.4 549.8 C-394.1 542.0 -394.1 542.0 -391.6 538.7 C-385.8 530.7 -386.7 523.6 -387.5 514.2 C-388.0 508.6 -388.0 503.1 -388.0 497.4 C-387.7 464.5 -387.7 464.5 -397.6 452.8 C-400.6 448.9 -402.7 444.4 -405 440 C-406.0 438.2 -406.9 436.5 -407.9 434.7 C-408.1 434.3 -408.1 434.3 -409.3 432.1 C-413.9 423.5 -418.7 415.1 -423.6 406.7 C-426.4 402.0 -429.1 397.3 -431.6 392.5 C-433.0 390.0 -434.5 387.5 -436 385.1 C-438.2 381.5 -440.1 377.9 -441.9 374.2 C-444.1 369.6 -446.6 365.2 -449.2 360.8 C-449.6 360.2 -449.9 359.7 -450.3 359.1 C-452.8 355.1 -452.8 355.1 -455 354 Z M308 354 C306.9 355.3 306.9 355.3 305.8 357.3 C305.3 358.0 304.9 358.8 304.4 359.5 C301.8 364.1 299.2 368.8 296.6 373.4 C295.9 374.5 295.3 375.6 294.7 376.7 C293.4 379.0 292.2 381.3 290.9 383.6 C288.2 388.4 285.5 393.2 282.9 398.0 C281.4 400.6 280.0 403.1 278.5 405.7 C278.2 406.3 277.9 406.8 277.6 407.3 C275.9 410.4 274.1 413.6 272.3 416.7 C265.7 428.6 259.1 440.5 252.3 452.3 C251.4 454.0 250.4 455.8 249.4 457.6 C248.5 459.1 247.5 460.7 246.5 462.2 C242.3 468.7 242.5 474.6 242.8 482.1 C242.9 484.7 242.9 487.3 243.0 489.8 C243.0 490.5 243.0 491.2 243.0 491.9 C243.1 496.7 242.8 501.5 242.3 506.4 C242.3 507.1 242.2 507.7 242.1 508.5 C241.9 511.1 241.7 513.8 241.3 516.5 C240.1 526.9 242.1 532.5 248 541 C249.0 542.9 250.1 544.7 251.1 546.6 C253.0 550.1 254.9 553.6 257 557 C259.6 561.2 262.0 565.5 264.3 569.9 C269.2 578.9 274.2 587.8 279.5 596.5 C281.0 599.0 282.3 601.4 283.7 604.0 C287.3 610.5 291.0 617.0 294.8 623.4 C295.8 625.2 296.8 626.9 297.8 628.7 C298.7 630.2 299.6 631.8 300.5 633.3 C302 636 302 636 303.0 638.3 C304 640 304 640 307 641 C318.3 611.0 326.4 580.8 331 549 C331.1 548.5 331.1 548.5 331.5 546.0 C337.0 508.5 336.0 468.3 330 431 C329.9 430.4 329.8 429.8 329.7 429.1 C326.5 409.0 321.6 389.5 315.8 370 C315.6 369.2 315.3 368.4 315.1 367.6 C313.7 362.9 312.0 358.5 310 354 C309.3 354 308.7 354 308 354 Z M-288 368 C-289.1 369.2 -289.1 369.2 -290.0 370.9 C-290.4 371.6 -290.8 372.2 -291.2 372.9 C-291.6 373.6 -292.0 374.3 -292.4 375.1 C-292.6 375.4 -292.6 375.4 -293.7 377.3 C-295.1 379.9 -296.6 382.4 -298 385 C-299.1 386.9 -300.1 388.8 -301.2 390.7 C-302.9 393.6 -304.5 396.5 -306.2 399.5 C-312.0 409.9 -318.1 420.2 -324.2 430.4 C-326.2 433.6 -328.0 436.8 -329.8 440.1 C-333.0 446.0 -336.2 451.8 -339.5 457.7 C-339.6 458.0 -339.6 458.0 -340.4 459.3 C-345.7 468.7 -351.1 478.1 -356.6 487.4 C-356.8 487.9 -356.8 487.9 -358.2 490.2 C-358.7 491.1 -359.2 491.9 -359.7 492.7 C-360.1 493.5 -360.6 494.2 -361 495 C-361.4 495.6 -361.8 496.3 -362.2 496.9 C-363.6 500.8 -362.5 504.0 -360.8 507.6 C-360.3 508.5 -359.8 509.4 -359.3 510.2 C-358.7 511.2 -358.2 512.2 -357.6 513.2 C-357.0 514.3 -356.4 515.4 -355.8 516.4 C-355.1 517.6 -354.5 518.7 -353.8 519.8 C-352.5 522.1 -351.2 524.4 -349.9 526.6 C-348.1 529.8 -346.4 532.9 -344.6 536.1 C-339.3 545.5 -333.9 555.0 -328.4 564.4 C-327.9 565.2 -327.4 566.1 -326.9 567.0 C-326.6 567.4 -326.6 567.4 -325.5 569.3 C-325.1 570.0 -324.7 570.7 -324.2 571.4 C-323 573 -323 573 -320 574 C-319.9 573.4 -319.9 572.9 -319.8 572.3 C-314.6 527.6 -302.6 485.0 -276 448 C-275.7 447.5 -275.3 447.0 -275.0 446.6 C-272.4 443.0 -269.7 439.5 -267 436 C-266.8 435.8 -266.8 435.8 -265.8 434.5 C-256.2 422.5 -245.3 410.3 -233 401 C-233.2 399.2 -233.2 399.2 -234 397 C-236.1 395.4 -236.1 395.4 -239.0 393.8 C-239.5 393.5 -240.0 393.2 -240.5 392.9 C-242.1 391.9 -243.7 391.0 -245.4 390.1 C-246.4 389.5 -247.5 388.9 -248.6 388.3 C-254.5 384.9 -260.5 381.6 -266.5 378.4 C-268.8 377.1 -271.1 375.8 -273.5 374.4 C-274.1 374.1 -274.8 373.7 -275.5 373.3 C-276.9 372.5 -278.2 371.7 -279.6 370.9 C-280.2 370.5 -280.9 370.1 -281.6 369.8 C-282.2 369.4 -282.8 369.1 -283.4 368.7 C-285 368 -285 368 -288 368 Z M134.9 370.2 C134.1 370.7 133.3 371.1 132.5 371.6 C131.6 372.1 130.8 372.6 129.9 373.1 C129.1 373.6 128.2 374.1 127.3 374.7 C123.0 377.2 118.8 379.7 114.6 382.3 C111.1 384.4 107.7 386.2 104.1 387.9 C98.1 390.9 92.6 394.3 87 398 C87.6 401.6 88.7 403.0 91.5 405.2 C103.5 415.2 114.5 426.6 123.7 439.2 C125.1 441.1 126.5 442.9 127.9 444.8 C150.9 475.7 164.6 512.2 171 550 C171.2 551.0 171.4 552.1 171.5 553.1 C172.4 558.3 173.2 563.5 173.6 568.8 C173.7 569.3 173.7 569.3 173.9 571.8 C173.9 572.2 173.9 572.2 174 574 C175.0 574 176.0 574 177 574 C178.4 572.2 178.4 572.2 179.9 569.6 C180.5 568.6 181.0 567.7 181.6 566.7 C182.2 565.7 182.7 564.7 183.3 563.7 C183.9 562.7 184.4 561.8 185.0 560.8 C188.3 555.1 191.5 549.4 194.6 543.6 C196.6 539.8 198.7 536.1 200.8 532.3 C201.2 531.6 201.7 530.8 202.1 530.0 C205.4 524.0 208.8 518.1 212.1 512.1 C212.8 510.9 213.5 509.7 214.1 508.5 C214.8 507.3 215.6 506.1 216.3 505.0 C217.6 501.2 216.8 497.7 215.2 494.2 C214.1 492.3 212.9 490.4 211.8 488.5 C210.8 487.0 209.9 485.5 209.0 484.0 C208.5 483.2 208.0 482.4 207.5 481.6 C204.7 476.9 202.1 472.1 199.4 467.4 C195.4 460.2 191.4 453.1 187.1 446.1 C184.4 441.8 182.0 437.3 179.6 432.9 C177.1 428.4 174.6 423.9 172.1 419.4 C171.8 419.0 171.8 419.0 170.4 416.5 C164.2 405.6 158.0 394.7 151.6 383.8 C150.6 382.1 149.6 380.3 148.6 378.6 C147.5 376.7 146.4 374.8 145.2 372.9 C144.7 371.9 144.1 370.9 143.5 369.9 C143.0 369.3 142.5 368.7 142 368 C138.7 368 137.7 368.5 134.9 370.2 Z M235 484 C233.1 486.1 231.6 488.6 230 491 C229.6 491.6 229.2 492.2 228.8 492.8 C226.8 495.8 226.0 497.6 225.9 501.3 C227.0 506.3 229.9 511.0 233 515 C233.7 515 234.3 515 235 515 C238.2 505.5 237.1 493.9 237 484 C236.3 484 235.7 484 235 484 Z M-382 485 C-382.0 488.5 -382.0 492.0 -382.1 495.5 C-382.1 496.5 -382.1 497.5 -382.1 498.5 C-382.1 504.1 -382.0 509.5 -381 515 C-380.3 515.3 -379.7 515.7 -379 516 C-377.8 514.1 -376.7 512.3 -375.5 510.4 C-375.2 509.9 -374.8 509.3 -374.5 508.8 C-372.2 505.1 -371.4 502.4 -372 498 C-373.0 495.7 -374.0 493.8 -375.3 491.7 C-375.6 491.2 -375.9 490.6 -376.2 490.1 C-378.0 487.1 -378.6 486.1 -382 485 Z M-369 509 C-369.4 509.7 -369.8 510.4 -370.1 511.1 C-370.6 512.0 -371.2 513.0 -371.7 513.9 C-372.2 515.0 -372.8 516.0 -373.3 517.0 C-375 520 -375 520 -376.6 522.2 C-380.4 527.6 -380.2 532.2 -379.2 538.5 C-378.8 540.6 -378.4 542.8 -378 545 C-377.7 546.4 -377.5 547.8 -377.2 549.2 C-373.6 568.3 -368.8 588.3 -360.9 606.0 C-359.8 608.5 -358.8 610.9 -357.7 613.4 C-356.9 615.3 -356.1 617.2 -355.3 619.1 C-354.9 620.0 -354.6 620.9 -354.2 621.9 C-352.3 626.1 -350.5 630.1 -348 634 C-341.3 633.2 -336.5 630.2 -330.7 626.8 C-329.7 626.2 -328.6 625.7 -327.6 625.1 C-326.7 624.5 -325.7 624.0 -324.7 623.4 C-323.8 622.9 -322.9 622.4 -322.0 621.9 C-319.3 619.4 -319.3 617.6 -319 614 C-319.0 613.6 -319.0 613.6 -318.7 611.6 C-317.3 591.7 -324.8 579.0 -335.0 562.7 C-336.6 560.1 -338.1 557.4 -339.7 554.8 C-341.8 551.1 -344.0 547.4 -346.2 543.8 C-348.6 539.6 -351.1 535.5 -353.4 531.3 C-353.8 530.8 -354.1 530.2 -354.4 529.6 C-356.4 526.1 -358.3 522.5 -360.2 518.9 C-362.2 515.3 -364.1 512.0 -367 509 C-367.7 509 -368.3 509 -369 509 Z M221 509 C215.5 515.4 211.8 523.7 207.8 531.0 C205.0 536.0 202.2 540.9 199.4 545.9 C199.1 546.3 199.1 546.3 197.9 548.4 C196.9 550.3 195.8 552.1 194.8 553.9 C192.8 557.4 190.8 560.9 188.8 564.5 C187.7 566.4 186.6 568.3 185.5 570.2 C184.7 571.5 184.0 572.7 183.3 574.0 C182.3 575.8 181.3 577.5 180.3 579.3 C180.0 579.9 179.7 580.4 179.4 580.9 C177.1 584.8 177.1 584.8 175.9 586.5 C172.8 591.9 173.5 600.1 173.2 606.2 C173.2 607.3 173.1 608.4 173.0 609.5 C173.0 610.0 173.0 610.0 172.9 612.7 C172.8 613.6 172.8 614.6 172.7 615.6 C173 618 173 618 174.2 619.7 C178.0 622.5 182.2 624.8 186.4 627.1 C186.8 627.4 186.8 627.4 189.2 628.8 C190.2 629.3 191.1 629.8 192.0 630.4 C192.9 630.9 193.7 631.3 194.6 631.8 C197.1 633.0 199.3 633.6 202 634 C205.7 628.4 208.6 622.8 211.2 616.7 C211.6 615.8 212.0 614.9 212.4 614.0 C222.7 589.2 236.8 555.0 234 528 C232.9 525.3 232.9 525.3 231.3 522.6 C230.8 521.7 230.2 520.7 229.7 519.8 C229.1 518.9 228.6 517.9 228 517 C227.5 516.2 227.0 515.4 226.6 514.5 C224.1 510.4 224.1 510.4 223 509 C222.3 509 221.7 509 221 509 Z M-387 541 C-387.4 541.7 -387.8 542.3 -388.2 543.0 C-389.7 545.6 -391.2 548.2 -392.7 550.7 C-393.3 551.8 -393.9 552.9 -394.6 554.0 C-395.5 555.6 -396.4 557.2 -397.4 558.8 C-397.7 559.3 -398.0 559.8 -398.3 560.4 C-400.2 563.6 -402.1 566.9 -404.1 570.1 C-406.6 574.3 -409.0 578.7 -411.4 583.0 C-414.2 588.1 -417.1 593.2 -420.0 598.2 C-421.0 600.1 -422.0 601.9 -423.1 603.7 C-426.6 609.8 -430.1 615.9 -433.8 621.9 C-435.2 624.3 -436.6 626.8 -437.9 629.2 C-439.6 632.4 -441.3 635.6 -443.2 638.6 C-443.6 639.3 -443.9 639.9 -444.3 640.5 C-445.1 641.7 -445.8 642.9 -446.5 644.1 C-448.0 646.6 -449.0 648.5 -449.0 651.4 C-447.6 655.2 -446.0 658.9 -444.3 662.6 C-444.0 663.4 -443.6 664.2 -443.2 665.0 C-436.6 679.6 -436.6 679.6 -434 683 C-431.9 683.6 -431.9 683.6 -430 684 C-428.2 679.6 -426.3 675.2 -424.5 670.8 C-424.2 670.1 -424.0 669.4 -423.7 668.8 C-419.9 659.7 -416.2 650.7 -412.7 641.6 C-411.1 637.6 -409.4 633.7 -407.6 629.8 C-404.7 623.4 -402.2 617.0 -399.6 610.4 C-399.1 609.2 -398.7 608.0 -398.2 606.7 C-396.1 601.3 -394.0 596.0 -391.9 590.6 C-391.8 590.2 -391.8 590.2 -391.0 588.2 C-390.4 586.8 -389.9 585.3 -389.3 583.8 C-387.3 578.7 -385.2 573.6 -382.9 568.6 C-380.6 562.1 -381.3 557.2 -382.8 550.7 C-383.0 549.9 -383.2 549.0 -383.4 548.2 C-384.4 543.7 -384.4 543.7 -385 542 C-385.7 541.7 -386.3 541.3 -387 541 Z M240 541 C239.3 543.4 238.7 545.7 238.1 548.1 C238.0 548.4 238.0 548.4 237.5 550.1 C237.3 550.7 237.2 551.4 237.0 552.0 C236.8 552.6 236.6 553.2 236.5 553.8 C236.3 554.5 236.2 555.3 236 556 C235.9 556.5 235.9 556.5 235.3 559.3 C234.7 563.6 236.1 566.8 237.8 570.8 C238.1 571.5 238.4 572.3 238.7 573.0 C239.7 575.4 240.7 577.8 241.8 580.2 C242.5 581.9 243.2 583.5 243.9 585.2 C244.9 587.8 246.0 590.3 247.0 592.8 C249.9 599.8 252.7 606.7 255.4 613.8 C260.0 625.7 264.9 637.5 269.8 649.4 C270.2 650.2 270.5 651.1 270.9 652.0 C272.6 656.2 274.4 660.3 276.1 664.5 C277.3 667.4 278.5 670.3 279.7 673.3 C280.0 674.0 280.2 674.6 280.5 675.3 C281.0 676.5 281.5 677.7 281.9 678.9 C282.6 680.5 282.6 680.5 284 683 C286.2 683.9 286.2 683.9 288 684 C292.3 676.3 296.4 668.5 300 660.4 C300.3 659.7 300.6 659.1 300.9 658.4 C301.2 657.7 301.5 657.1 301.8 656.5 C301.9 656.2 301.9 656.2 302.5 654.8 C303.4 651.5 303.4 648.9 302.0 645.8 C301.6 645.1 301.1 644.3 300.6 643.6 C300.1 642.7 299.6 641.9 299.1 641.0 C298.5 640.1 298.0 639.2 297.4 638.2 C296.2 636.3 295.0 634.3 293.8 632.3 C293.5 631.8 293.1 631.3 292.8 630.7 C289.4 625.1 286.2 619.4 283.1 613.6 C276.7 602.3 270.2 591.0 263.6 579.8 C261.1 575.4 258.5 571.0 256 566.6 C252.8 561.1 249.5 555.5 246.2 550.0 C244.4 547.0 242.7 544.0 241 541 C240.7 541 240.3 541 240 541 Z M-380 576 C-383.3 583.7 -386.3 591.4 -389.3 599.2 C-391.3 604.3 -393.4 609.4 -395.5 614.5 C-398.3 621.1 -401.1 627.9 -403.8 634.6 C-404.5 636.3 -405.2 638.0 -405.9 639.6 C-409.7 648.8 -413.4 657.9 -417.0 667.1 C-417.2 667.5 -417.2 667.5 -417.9 669.4 C-418.2 670.1 -418.5 670.8 -418.8 671.6 C-419.0 672.2 -419.2 672.8 -419.5 673.4 C-420 675 -420 675 -420 677 C-414.5 675.5 -410.0 672.8 -405.1 669.8 C-403.3 668.7 -401.6 667.6 -399.8 666.5 C-398.8 665.9 -397.9 665.4 -396.9 664.8 C-392.4 662.0 -387.8 659.4 -383.2 656.7 C-381.7 655.8 -380.2 654.9 -378.6 654.0 C-374.2 651.4 -369.7 648.8 -365.2 646.3 C-363.8 645.5 -362.4 644.7 -361.1 643.9 C-360.8 643.7 -360.8 643.7 -359.2 642.8 C-355.2 640.5 -355.2 640.5 -354.3 638.1 C-354.0 635.6 -354.3 634.6 -355.4 632.4 C-355.8 631.7 -356.1 631.1 -356.5 630.4 C-356.8 629.6 -357.2 628.9 -357.6 628.2 C-358.3 626.6 -359.1 625.1 -359.8 623.5 C-360.2 622.8 -360.6 622.0 -360.9 621.2 C-367.7 607.0 -373.4 591.3 -377 576 C-378.0 576 -379.0 576 -380 576 Z M232 576 C231.9 576.4 231.9 576.4 231.2 578.5 C230.1 581.6 229.1 584.6 228.0 587.7 C227.5 589.1 227.1 590.4 226.6 591.7 C222.3 604.4 217.3 616.7 211.6 628.9 C211.2 629.9 210.7 630.9 210.2 631.9 C209.8 632.9 209.4 633.8 209.0 634.7 C208 637 208 637 208 639 C209.8 640.3 211.6 641.4 213.4 642.5 C214.0 642.9 214.6 643.2 215.2 643.6 C217.1 644.7 219.1 645.9 221 647 C221.6 647.4 222.2 647.7 222.8 648.1 C226.2 650.1 229.6 652.0 232.9 654.0 C236.9 656.3 240.9 658.7 244.8 661.1 C245.4 661.4 246.0 661.8 246.7 662.1 C249.1 663.6 251.5 665.0 253.9 666.4 C257.6 668.6 261.3 670.8 265 673 C265.8 673.5 266.5 673.9 267.3 674.4 C271.8 677 271.8 677 274 677 C273.4 672.8 272.4 669.2 270.7 665.3 C270.5 664.8 270.3 664.2 270.0 663.7 C269.5 662.6 269.1 661.5 268.6 660.4 C267.3 657.4 266.0 654.5 264.8 651.5 C264.5 651.0 264.3 650.4 264.0 649.8 C262.2 645.6 260.6 641.3 259 637 C256.2 629.3 253.0 621.8 249.8 614.3 C246.6 607.0 243.7 599.6 240.9 592.2 C238.9 586.6 236.5 581.3 234 576 C233.3 576 232.7 576 232 576 Z M-320 626 C-322.2 627.1 -324.1 628.3 -326.1 629.6 C-327.3 630.4 -328.5 631.1 -329.6 631.9 C-329.9 632.1 -329.9 632.1 -331.4 633.0 C-334.3 634.8 -337.3 636.2 -340.4 637.7 C-342 639 -342 639 -343.0 641.2 C-343.0 645.3 -341.2 647.9 -339.1 651.4 C-338.6 652.1 -338.2 652.8 -337.7 653.6 C-328.8 668.0 -319.1 682.2 -308 695 C-307.1 696.1 -306.2 697.1 -305.3 698.2 C-299.8 704.8 -294.2 711.0 -288 717 C-287.0 718.0 -286.0 719.0 -285.1 720 C-283 722 -283 722 -281 723 C-282.5 717.8 -284.9 713.6 -287.7 709.1 C-301.4 686.2 -310.5 661.0 -315.2 634.8 C-315.4 633.8 -315.6 632.8 -315.8 631.8 C-315.9 631.3 -315.9 631.3 -316.3 629.1 C-316.5 628.4 -316.8 627.7 -317 627 C-318.0 626.7 -319.0 626.3 -320 626 Z M172 626 C171.9 626.7 171.7 627.3 171.6 628.0 C170.7 631.7 169.9 635.3 169 639 C168.8 639.8 168.6 640.7 168.4 641.5 C162.2 667.3 153.2 692.2 139.2 714.9 C138.4 716.2 137.7 717.6 137 719 C137.3 719.7 137.7 720.3 138 721 C139.7 719.7 141.4 718.4 143 717 C143 716.3 143 715.7 143 715 C143.5 714.8 143.5 714.8 146 714 C147.4 712.6 147.4 712.6 148.9 710.8 C149.6 710.1 150.2 709.4 150.8 708.6 C151.5 707.7 152.3 706.9 153 706 C153.9 705.0 154.8 704.0 155.7 703.0 C190.4 663.3 190.4 663.3 198 640 C194.6 638.0 191.2 636.0 187.9 634.0 C186.7 633.3 185.6 632.7 184.4 632.0 C182.8 631.0 181.1 630.0 179.4 629.1 C179.2 628.9 179.2 628.9 177.9 628.1 C174.2 626 174.2 626 172 626 Z M-358.8 648.2 C-359.1 648.4 -359.1 648.4 -360.5 649.2 C-362.3 650.3 -364.1 651.4 -365.9 652.5 C-367.1 653.2 -368.3 653.9 -369.5 654.6 C-374.2 657.4 -378.9 660.3 -383.6 663.2 C-384.2 663.6 -384.7 663.9 -385.3 664.3 C-386.4 665.0 -387.5 665.6 -388.6 666.3 C-392.7 668.9 -396.9 671.2 -401.2 673.5 C-404.4 675.2 -407.5 677.0 -410.7 678.8 C-411.2 679.0 -411.7 679.3 -412.3 679.6 C-413.6 680.4 -414.8 681.2 -416 682 C-416 682.7 -416 683.3 -416 684 C-386.3 684 -356.6 684 -326 684 C-328.2 678.4 -328.2 678.4 -330.0 675.9 C-330.4 675.3 -330.8 674.8 -331.2 674.2 C-331.4 673.9 -331.4 673.9 -332.4 672.4 C-335.5 667.9 -338.3 663.5 -341.0 658.8 C-341.5 657.9 -341.9 657.1 -342.4 656.2 C-343.4 654.4 -344.3 652.7 -345.2 651.0 C-345.7 650.2 -346.1 649.4 -346.6 648.6 C-346.9 647.9 -347.3 647.2 -347.7 646.5 C-349 645 -349 645 -350.8 644.6 C-353.8 645.2 -356.2 646.6 -358.8 648.2 Z M204 645 C202.8 646.4 202.8 646.4 201.7 648.4 C201.3 649.1 200.8 649.8 200.4 650.6 C199.9 651.4 199.5 652.2 199 653 C194.8 660.2 190.3 667.1 185.5 673.9 C183.4 676.8 181.5 679.7 180 683 C181 684 181 684 182.5 684.1 C182.8 684.1 182.8 684.1 184.5 684.1 C185.2 684.1 186.0 684.1 186.8 684.1 C187.6 684.1 188.4 684.1 189.3 684.1 C190.2 684.1 191.0 684.1 191.9 684.1 C194.8 684.1 197.7 684.1 200.6 684.1 C202.6 684.1 204.6 684.1 206.5 684.1 C211.8 684.1 217.1 684.1 222.3 684.1 C227.7 684.1 233.0 684.1 238.4 684.0 C248.9 684.0 259.5 684.0 270 684 C270 683.3 270 682.7 270 682 C268.0 680.5 268.0 680.5 265.2 678.8 C264.7 678.5 264.7 678.5 262.5 677.0 C259.6 675.3 256.7 673.7 253.8 672.2 C248.3 669.2 242.9 666.0 237.5 662.8 C235.6 661.7 233.7 660.5 231.8 659.4 C228.9 657.7 226.0 656.0 223.2 654.3 C220.6 652.8 217.9 651.2 215.3 649.7 C214.5 649.2 213.7 648.7 212.9 648.3 C212.2 647.8 211.4 647.4 210.7 646.9 C210.0 646.6 209.4 646.2 208.7 645.8 C207 645 207 645 204 645 Z M-533.7 675.6 C-545.2 689.7 -551.5 709.0 -549.8 727.1 C-547.3 747.2 -539.3 765.2 -523.4 778.1 C-509.6 788.1 -495.9 791.4 -479 790 C-475.1 789.4 -471.6 788.4 -468 787 C-467.2 786.7 -466.5 786.5 -465.7 786.2 C-448.1 779.2 -436.6 764.2 -428.8 747.6 C-428 745 -428 745 -428 739 C-453.1 738.7 -478.2 738.3 -504 738 C-503.1 733.7 -502.4 731.6 -500.3 727.9 C-499.8 727.0 -499.3 726.0 -498.7 725.0 C-498.1 724.0 -497.5 723.0 -496.9 722 C-496.3 721.0 -495.7 719.9 -495.2 718.9 C-491.5 712.5 -487.8 706.3 -483.9 700.1 C-481.6 696.5 -479.7 692.7 -477.6 689.0 C-476.0 686.0 -474.3 683.0 -472.5 680.0 C-472.0 679.1 -471.4 678.1 -470.8 677.1 C-469.9 675.5 -469.0 674.0 -468.1 672.5 C-467.3 671.0 -466.4 669.5 -465.5 668.0 C-465.0 667.2 -464.5 666.3 -464.0 665.4 C-463 663 -463 663 -463.2 660.8 C-464.4 658.2 -466.2 657.6 -468.8 656.7 C-493.5 649.3 -516.3 657.5 -533.7 675.6 Z M318 659 C317 662 317 662 317.9 664.5 C320.7 669.8 323.6 675.0 326.8 680.1 C330.8 686.6 334.6 693.3 338.2 700 C339.5 702.4 340.8 704.7 342.1 707.1 C342.3 707.4 342.3 707.4 343.1 708.8 C345.3 712.7 347.4 716.5 349.6 720.3 C349.9 720.8 349.9 720.8 351.3 723.2 C352.4 725.0 353.4 726.8 354.5 728.6 C355.0 729.4 355.4 730.2 355.9 731.1 C356.3 731.8 356.7 732.4 357.1 733.2 C358 735 358 735 358 738 C345.5 738.2 345.5 738.2 282 739 C284.7 755.3 294.5 770.0 307.8 779.8 C318.2 786.6 329.5 790.4 341.9 790.3 C342.3 790.3 342.3 790.3 344.3 790.3 C350.3 790.2 355.4 789.4 361 787 C361.8 786.7 362.5 786.4 363.3 786.1 C368.4 784.0 373.7 781.5 378 778 C378 777.3 378 776.7 378 776 C378.6 775.8 379.1 775.5 379.7 775.3 C391.9 768.4 398.3 752.7 402 740 C406.8 722.0 404.0 702.4 394.9 686.1 C392.1 681.4 388.7 677.1 385 673 C384.5 672.4 384.0 671.8 383.4 671.1 C373.6 660.1 358.9 655.2 344.7 653.8 C336.3 653.4 325.5 655.1 318 659 Z M309 663 C304.2 667.2 301.8 671.8 299.1 677.6 C298.7 678.4 298.3 679.3 297.9 680.1 C297.5 681.0 297.1 681.8 296.7 682.6 C296.3 683.4 296.0 684.1 295.6 684.9 C294.9 687.4 295.0 688.6 296 691 C297.2 692.3 297.2 692.3 298.7 693.4 C299.0 693.6 299.0 693.6 300.5 694.7 C300.8 694.9 300.8 694.9 302.4 696 C302.8 696.2 302.8 696.2 304.4 697.4 C311.1 702.1 317.9 706.6 324.7 711.1 C330.5 715.0 336.3 719.0 342 723 C343.0 720.3 343.1 719.3 342.0 716.6 C341.5 715.8 340.9 714.9 340.4 714.0 C339.8 713.0 339.2 712.0 338.6 711.0 C338.0 710.0 337.3 708.9 336.7 707.9 C335.7 706.2 334.7 704.6 333.8 703.0 C333.1 701.9 332.5 700.8 331.8 699.7 C328.9 694.9 326.2 690.1 323.6 685.2 C322.8 683.8 322.0 682.4 321.2 681.0 C320.8 680.3 320.5 679.6 320.1 678.9 C318.4 676.0 316.8 673.0 315.1 670 C314.5 669.1 314.0 668.1 313.5 667.2 C312.1 665.1 311.1 664.1 309 663 Z M-457.5 665.2 C-459.3 667.3 -460.5 669.5 -461.8 672.0 C-465.0 677.9 -468.3 683.8 -471.8 689.6 C-472.4 690.7 -473.0 691.7 -473.6 692.8 C-476.4 697.6 -479.2 702.4 -482.2 707.2 C-482.6 708.0 -483.1 708.7 -483.6 709.5 C-484.5 711.0 -485.3 712.4 -486.2 713.8 C-486.4 714.1 -486.4 714.1 -487.4 715.7 C-487.6 716.0 -487.6 716.0 -488.4 717.4 C-489.2 719.5 -488.7 720.9 -488 723 C-473.7 713.5 -473.7 713.5 -468.2 709.6 C-462.7 705.7 -457.0 702.0 -451.3 698.3 C-447.4 695.7 -443.6 693.0 -440 690 C-441.6 684.9 -443.6 680.1 -445.9 675.3 C-446.2 674.6 -446.6 673.8 -446.9 673.0 C-450.1 666.0 -450.1 666.0 -454 664 C-456 664 -456 664 -457.5 665.2 Z M-429 691 C-427.5 696.2 -425.2 700.7 -422.5 705.4 C-422.1 706.2 -421.6 707.0 -421.2 707.8 C-418.2 713.1 -415.0 718.3 -411.6 723.4 C-411.4 723.7 -411.4 723.7 -410.4 725.3 C-410.0 725.9 -409.6 726.5 -409.2 727.1 C-408.9 727.6 -408.6 728.1 -408.2 728.6 C-406.1 731.1 -404.1 732.8 -400.7 733.4 C-400.3 733.4 -400.3 733.4 -398.2 733.4 C-397.2 733.4 -396.2 733.4 -395.2 733.4 C-394.7 733.4 -394.7 733.4 -392.1 733.4 C-390.9 733.4 -389.8 733.4 -388.7 733.4 C-385.6 733.4 -382.6 733.4 -379.5 733.3 C-376.3 733.3 -373.1 733.3 -369.9 733.3 C-364.5 733.3 -359.2 733.3 -353.8 733.3 C-346.9 733.3 -340.0 733.2 -333.1 733.2 C-327.2 733.2 -321.2 733.2 -315.3 733.2 C-313.4 733.2 -311.5 733.2 -309.6 733.2 C-306.0 733.2 -302.5 733.2 -298.9 733.2 C-297.9 733.2 -296.8 733.2 -295.8 733.2 C-295.3 733.2 -295.3 733.2 -292.8 733.1 C-292.0 733.1 -291.1 733.1 -290.3 733.1 C-288.1 733.0 -286.1 732.6 -284 732 C-285.3 729.1 -286.7 727.1 -288.9 724.9 C-289.5 724.4 -290.1 723.8 -290.7 723.2 C-291.3 722.6 -291.9 722.0 -292.6 721.4 C-298.1 716.0 -303.1 710.5 -307.9 704.4 C-310.0 701.7 -312.2 699.0 -314.4 696.4 C-314.9 695.9 -315.3 695.3 -315.7 694.8 C-318.8 691.1 -318.8 691.1 -321 690 C-322.4 689.9 -323.7 689.9 -325.1 689.9 C-325.5 689.9 -325.5 689.9 -327.7 689.9 C-328.6 689.9 -329.5 689.9 -330.5 689.9 C-331.5 689.9 -332.5 689.9 -333.5 689.9 C-336.8 689.9 -340.0 689.9 -343.3 689.9 C-345.6 689.9 -347.8 689.9 -350.1 689.9 C-354.9 689.9 -359.6 689.9 -364.4 689.9 C-369.9 689.9 -375.4 689.9 -380.9 689.9 C-386.2 689.9 -391.5 689.9 -396.8 689.9 C-399.0 689.9 -401.3 689.9 -403.5 689.9 C-406.7 689.9 -409.8 689.9 -413.0 689.9 C-413.9 689.9 -414.8 689.9 -415.8 689.9 C-420.3 689.9 -424.6 690.1 -429 691 Z M165.1 700.8 C160.0 707.4 154.5 713.7 148.4 719.5 C146 722 146 722 146 724 C145.5 724.2 145.5 724.2 143 725 C143 725.7 143 726.3 143 727 C142.3 727 141.7 727 141 727 C141 727.7 141 728.3 141 729 C140.3 729 139.7 729 139 729 C139 730.0 139 731.0 139 732 C145.7 732.9 152.3 733.2 159.0 733.2 C159.6 733.2 159.6 733.2 162.3 733.2 C165.8 733.2 169.3 733.3 172.8 733.3 C174.0 733.3 175.2 733.3 176.4 733.3 C181.4 733.3 186.5 733.3 191.5 733.3 C198.7 733.4 205.9 733.4 213.1 733.4 C218.2 733.5 223.2 733.5 228.3 733.5 C231.3 733.5 234.4 733.5 237.4 733.6 C240.7 733.6 244.1 733.6 247.5 733.6 C248.0 733.6 248.0 733.6 250.5 733.6 C258.0 733.6 258.0 733.6 261.1 730.6 C262.8 728.3 264.5 725.9 266.1 723.4 C266.3 723.0 266.3 723.0 267.7 720.9 C268.2 720.0 268.7 719.1 269.3 718.1 C269.9 717.2 270.4 716.3 271.0 715.3 C275.7 707.7 280.0 699.9 284 692 C281.5 690.0 279.8 689.7 276.7 689.7 C275.8 689.7 274.9 689.7 274.0 689.7 C273.1 689.7 272.1 689.7 271.1 689.7 C270.1 689.7 269.1 689.7 268.1 689.6 C264.7 689.6 261.3 689.6 258.0 689.6 C256.2 689.6 254.5 689.6 252.8 689.6 C247.9 689.5 243.0 689.5 238.2 689.5 C231.9 689.5 225.6 689.5 219.4 689.4 C214.5 689.4 209.6 689.4 204.8 689.4 C201.9 689.4 199.0 689.3 196.1 689.3 C192.9 689.3 189.6 689.3 186.4 689.3 C185.4 689.3 184.5 689.3 183.5 689.2 C174.5 689.3 170.3 693.8 165.1 700.8 Z M-462.7 712.4 C-467.7 715.9 -472.7 719.3 -477.7 722.7 C-478.5 723.2 -479.2 723.7 -480.0 724.2 C-480.7 724.7 -481.4 725.2 -482.1 725.6 C-482.7 726.1 -483.3 726.5 -484 727 C-484.7 727.5 -485.5 728.0 -486.2 728.5 C-486.8 729.0 -487.4 729.5 -488 730 C-488 730.7 -488 731.3 -488 732 C-485.4 733.3 -483.4 733.1 -480.5 733.1 C-479.3 733.1 -478.2 733.1 -477.0 733.1 C-475.7 733.1 -474.5 733.1 -473.2 733.1 C-471.9 733.1 -470.6 733.1 -469.3 733.1 C-466.6 733.1 -463.9 733.1 -461.2 733.1 C-457.7 733.1 -454.2 733.1 -450.7 733.1 C-448.1 733.1 -445.4 733.1 -442.7 733.1 C-441.5 733.1 -440.2 733.1 -438.9 733.1 C-437.1 733.1 -435.3 733.1 -433.5 733.1 C-432.5 733.1 -431.5 733.1 -430.4 733.1 C-428 733 -428 733 -426 732 C-423.4 724.3 -424.1 716.8 -427.7 709.7 C-428.8 707.8 -429.9 705.9 -431 704 C-431.5 703.2 -432.0 702.3 -432.4 701.5 C-434.8 697.5 -434.8 697.5 -436 696 C-444.0 696 -456.3 708.0 -462.7 712.4 Z M291 696 C285.6 702.5 278.7 712.6 278.6 721.3 C278.7 722.5 278.8 723.8 279 725 C279.1 725.7 279.1 726.3 279.2 727.0 C279.4 728.9 279.4 728.9 280 732 C282.7 733.3 284.7 733.1 287.6 733.1 C287.9 733.1 287.9 733.1 289.4 733.1 C291.3 733.1 293.2 733.1 295.1 733.1 C296.4 733.1 297.7 733.1 299.1 733.1 C302.5 733.1 306.0 733.1 309.5 733.1 C313.0 733.1 316.6 733.1 320.1 733.0 C327.1 733.0 334.0 733.0 341 733 C341.1 731.1 341.1 731.1 341 729 C339.4 727.4 339.4 727.4 337.2 725.9 C336.4 725.4 335.5 724.8 334.7 724.2 C333.8 723.6 332.9 723.0 332 722.4 C331.1 721.8 330.2 721.2 329.3 720.6 C327.4 719.3 325.5 718.0 323.7 716.8 C320.6 714.7 317.5 712.6 314.5 710.5 C311.9 708.7 309.4 707.0 306.8 705.2 C305.6 704.4 304.4 703.6 303.2 702.8 C301.5 701.6 299.8 700.5 298.1 699.3 C297.2 698.7 296.2 698.0 295.3 697.4 C293 696 293 696 291 696 Z M-418 728 C-418.3 729.3 -418.7 730.6 -419 732 C-418.0 732 -417.0 732 -416 732 C-416.3 730.7 -416.7 729.4 -417 728 C-417.3 728 -417.7 728 -418 728 Z M271 729 C270.7 730.0 270.3 731.0 270 732 C271.0 732 272.0 732 273 732 C273 731.0 273 730.0 273 729 C272.3 729 271.7 729 271 729 Z M-399 739 C-397.5 743.0 -395.6 746.2 -393.1 749.5 C-392.7 750.0 -392.3 750.5 -391.9 751.0 C-388.3 755.8 -384.4 760.3 -380.5 764.8 C-377.1 768.8 -377.1 768.8 -376 771 C-375.3 771 -374.7 771 -374 771 C-373.7 771.6 -373.5 772.2 -373.2 772.8 C-371.9 775.1 -370.6 776.8 -368.7 778.7 C-368.1 779.4 -367.4 780.1 -366.7 780.8 C-366.0 781.5 -365.3 782.2 -364.6 783 C-363.9 783.8 -363.2 784.5 -362.5 785.3 C-346.3 802.2 -346.3 802.2 -338.0 809.3 C-334.7 812.1 -331.5 815.1 -328.3 818.0 C-322.6 823 -322.6 823 -320 823 C-320 823.7 -320 824.3 -320 825 C-318.6 826.3 -318.6 826.3 -316.7 827.7 C-316.0 828.2 -315.2 828.8 -314.5 829.3 C-313.7 829.9 -312.8 830.5 -312 831.1 C-311.2 831.7 -310.3 832.4 -309.5 833.0 C-298.9 840.6 -288.0 847.9 -277 855 C-276.3 855.4 -275.6 855.9 -274.9 856.4 C-266.9 861.6 -258.6 865.9 -250.0 870.0 C-248.1 870.9 -246.3 871.9 -244.5 872.9 C-212.1 890.0 -175.9 900.6 -140.1 907.3 C-139.1 907.5 -138.2 907.7 -137.3 907.8 C-132.8 908.6 -128.6 909.2 -124 909 C-124.5 904.3 -125.9 901.0 -128.5 897.1 C-129.2 895.9 -130.0 894.8 -130.7 893.6 C-131.1 893.0 -131.4 892.4 -131.8 891.8 C-133.8 888.8 -135.6 885.6 -137.5 882.5 C-140.2 878.0 -143.0 873.4 -145.8 868.9 C-149.3 863.2 -152.7 857.4 -156.1 851.6 C-160.9 843.5 -165.7 835.5 -170.6 827.5 C-171.1 826.5 -171.7 825.6 -172.3 824.6 C-173.4 822.8 -174.5 821.0 -175.6 819.3 C-176.4 817.9 -177.2 816.6 -178.0 815.2 C-180.7 810.6 -184.5 808.5 -189 806 C-190.3 805.3 -191.6 804.5 -192.9 803.8 C-193.5 803.4 -194.2 803.0 -194.8 802.7 C-208.8 794.7 -221.8 785.4 -233.8 774.6 C-237.8 771 -237.8 771 -240 771 C-240.2 770.4 -240.5 769.8 -240.8 769.2 C-242.2 766.7 -243.7 765.3 -246 763.4 C-249.8 760.3 -249.8 760.3 -251.1 758.3 C-251.3 758.1 -251.3 758.1 -252 757 C-252.7 757 -253.3 757 -254 757 C-254 756.3 -254 755.7 -254 755 C-255.6 753.5 -257.2 752.2 -258.9 750.8 C-259.4 750.5 -259.8 750.1 -260.3 749.7 C-261.3 748.9 -262.2 748.2 -263.2 747.4 C-265 746 -265 746 -266.9 744.2 C-273.2 738.6 -278.2 738.0 -286.5 738.2 C-287.7 738.2 -289.0 738.2 -290.2 738.2 C-293.5 738.2 -296.8 738.2 -300.2 738.3 C-303.6 738.3 -307.1 738.3 -310.6 738.3 C-317.2 738.4 -323.7 738.4 -330.3 738.5 C-337.8 738.6 -345.3 738.6 -352.8 738.6 C-368.2 738.7 -383.6 738.8 -399 739 Z M125 741 C125 741.7 125 742.3 125 743 C124.7 743.1 124.7 743.1 123.3 743.8 C114.6 748.4 107.4 756.4 100.6 763.4 C100.0 764.0 99.5 764.6 98.9 765.2 C98.4 765.7 97.9 766.2 97.3 766.7 C96 768 96 768 94 769 C94 769.7 94 770.3 94 771 C93.7 771.1 93.7 771.1 92.4 771.7 C89.2 773.4 86.7 775.7 83.9 778.1 C71.8 788.5 58.5 797.5 44.4 804.9 C37.5 808.6 33.7 812.1 30 819 C29.1 820.7 28.1 822.3 27.1 824.0 C26.5 825.2 25.8 826.4 25.1 827.6 C22.9 831.6 20.5 835.4 17.9 839.2 C14.8 843.7 12.1 848.3 9.6 853.2 C7.5 856.8 5.4 860.3 3.2 863.9 C0.6 868.0 -1.9 872.2 -4.4 876.4 C-4.8 877.0 -5.2 877.6 -5.6 878.3 C-6.3 879.5 -7.1 880.8 -7.8 882.1 C-9.0 884.1 -10.2 886.0 -11.4 888.0 C-11.6 888.4 -11.6 888.4 -12.6 890.0 C-13.4 891.3 -14.1 892.6 -14.9 893.8 C-15.6 895.0 -16.3 896.1 -17.0 897.3 C-17.7 898.5 -18.4 899.7 -19.1 900.9 C-19.5 901.5 -19.9 902.1 -20.3 902.8 C-20.6 903.3 -20.9 903.9 -21.3 904.4 C-22 906 -22 906 -22 909 C-13.2 908.5 -4.7 907.2 3.9 905.3 C4.2 905.2 4.2 905.2 5.8 904.9 C42.0 897.2 81.4 885.7 112.8 865.4 C114.7 864.2 116.7 863.2 118.7 862.2 C123.3 859.9 127.6 857.3 131.9 854.7 C132.7 854.2 133.5 853.7 134.3 853.2 C140.0 849.7 145.6 846.0 151 842 C152.5 840.9 153.9 839.9 155.4 838.8 C164.9 831.9 174.1 824.8 183 817 C183.7 816.4 184.4 815.8 185.1 815.2 C189.7 811.2 194.1 807.1 198.6 803.1 C201.4 800.4 204.3 797.8 207.3 795.3 C210.5 792.6 213.2 789.6 215.9 786.4 C218.1 783.9 220.4 781.4 222.7 779.0 C228.7 772.5 234.5 766.0 240 759 C240.3 758.7 240.3 758.7 241.6 756.9 C243.5 754.6 245.3 752.3 247.1 750 C247.6 749.3 248.2 748.5 248.8 747.7 C249.4 747.0 249.9 746.3 250.5 745.6 C251.0 745.0 251.4 744.4 251.9 743.7 C253 742 253 742 253 739 C236.9 739.0 220.8 738.9 204.7 738.9 C197.2 738.9 189.8 738.9 182.3 738.8 C175.8 738.8 169.3 738.8 162.7 738.8 C159.3 738.8 155.8 738.8 152.4 738.8 C149.1 738.8 145.9 738.8 142.6 738.8 C140.9 738.8 139.1 738.8 137.4 738.8 C136.3 738.8 135.3 738.8 134.2 738.8 C133.3 738.8 132.4 738.8 131.4 738.8 C128.9 739.0 127.2 739.7 125 741 Z M-169 817 C-168.4 821.0 -167.2 823.7 -165 827.2 C-164.7 827.6 -164.4 828.1 -164.1 828.6 C-163.4 829.7 -162.7 830.8 -162.1 831.8 C-160.2 834.7 -158.4 837.6 -156.6 840.5 C-156.2 841.2 -155.8 841.8 -155.5 842.4 C-151.3 849.1 -147.3 856.0 -143.3 862.8 C-136.9 873.9 -130.3 884.8 -123.4 895.7 C-122.4 897.3 -121.4 899.0 -120.5 900.7 C-120.0 901.6 -119.5 902.5 -118.9 903.4 C-118.5 904.2 -118.1 905.0 -117.6 905.8 C-115.0 909.3 -112.3 910.7 -108.1 911.7 C-105.1 912.0 -102.2 912.1 -99.2 912.1 C-98.6 912.1 -98.6 912.1 -95.9 912.1 C-94.8 912.1 -93.8 912.1 -92.6 912.1 C-91.5 912.1 -90.4 912.1 -89.2 912.0 C-86.5 912.0 -83.7 912.0 -81 912 C-81.6 909.0 -82.5 906.9 -84.2 904.3 C-84.4 904.0 -84.4 904.0 -85.5 902.2 C-86.0 901.4 -86.5 900.6 -87.1 899.8 C-87.6 899.0 -88.1 898.2 -88.7 897.3 C-89.8 895.5 -91.0 893.7 -92.1 891.9 C-94.1 888.9 -96.0 885.8 -98.0 882.8 C-102.0 876.5 -106.0 870.3 -110 864 C-110.5 863.2 -111.1 862.4 -111.6 861.5 C-113.8 858.0 -116.1 854.6 -118.3 851.1 C-120.3 848.1 -122.2 845.1 -124.1 842.1 C-125.1 840.4 -126.2 838.8 -127.2 837.1 C-127.7 836.4 -128.2 835.6 -128.7 834.8 C-131.9 829.8 -134.4 827.7 -140 826 C-141.7 825.4 -143.4 824.8 -145.1 824.2 C-146.9 823.6 -148.8 823.0 -150.6 822.4 C-152.5 821.8 -154.3 821.2 -156.2 820.6 C-157.0 820.4 -157.8 820.1 -158.6 819.8 C-160.3 819.2 -162.0 818.6 -163.6 817.9 C-166 817 -166 817 -169 817 Z M14.5 819.1 C10.4 820.8 6.4 822.2 2.2 823.3 C-12.4 827.2 -12.4 827.2 -16 832.3 C-17.0 834.2 -18.0 836.1 -19 838 C-20.7 840.7 -22.4 843.3 -24.2 846 C-25.1 847.5 -26.1 848.9 -27.0 850.4 C-30.6 855.9 -34.3 861.4 -37.9 866.8 C-40.0 869.9 -42.1 873.0 -43.9 876.3 C-47.1 882.1 -50.9 887.5 -54.5 893.0 C-65 908.9 -65 908.9 -65 912 C-61.2 912.1 -57.4 912.1 -53.6 912.1 C-53.0 912.1 -53.0 912.1 -50.3 912.2 C-35.0 912.3 -35.0 912.3 -29.6 908.2 C-28.0 906.0 -26.7 903.8 -25.4 901.4 C-22.8 896.4 -19.9 891.5 -16.9 886.7 C-12.7 879.9 -8.6 873.0 -4.6 866.1 C0.1 858.1 5.0 850.2 10.0 842.4 C13.1 837.4 16.1 832.4 18.8 827.1 C20 825 20 825 21.6 822.9 C23.2 820.7 23.3 819.6 23 817 C19.6 817 17.7 817.8 14.5 819.1 Z M-122 831 C-123 834 -123 834 -122.0 836.1 C-121.5 836.9 -121.0 837.7 -120.4 838.5 C-119.8 839.4 -119.3 840.3 -118.7 841.2 C-118.0 842.2 -117.4 843.1 -116.8 844.1 C-116.1 845.1 -115.5 846.1 -114.8 847.1 C-113.5 849.1 -112.2 851.1 -110.9 853.1 C-108.7 856.4 -106.6 859.6 -104.5 862.9 C-103.2 865.0 -101.9 867.1 -100.5 869.1 C-97.8 873.3 -95.1 877.5 -92.4 881.7 C-90.3 884.9 -88.2 888.2 -86.1 891.5 C-85.6 892.2 -85.1 893.0 -84.6 893.8 C-83.6 895.3 -82.7 896.7 -81.7 898.2 C-79.4 901.8 -77.1 905.3 -75 909 C-72.7 908.8 -72.7 908.8 -70 908 C-68.2 905.6 -68.2 905.6 -66.6 902.6 C-66.0 901.5 -65.4 900.4 -64.8 899.2 C-64.5 898.7 -64.2 898.1 -63.9 897.6 C-62.6 895.3 -61.1 893.2 -59.6 891.1 C-57.0 887.5 -54.6 883.9 -52.4 880.1 C-48.9 874.5 -45.4 868.9 -41.8 863.4 C-37.2 856.4 -32.7 849.4 -28.2 842.4 C-27.7 841.6 -27.1 840.8 -26.6 840.0 C-26.1 839.3 -25.7 838.5 -25.2 837.7 C-24.7 837.1 -24.3 836.4 -23.9 835.8 C-23 834 -23 834 -23 831 C-24.1 831.1 -25.1 831.3 -26.2 831.4 C-27.6 831.6 -29.1 831.8 -30.5 831.9 C-30.8 832.0 -30.8 832.0 -32.6 832.2 C-34.0 832.4 -35.5 832.6 -36.9 832.7 C-38.2 832.9 -39.6 833.1 -41.0 833.3 C-46.1 833.9 -51.1 834.3 -56.2 834.6 C-57.1 834.6 -57.9 834.6 -58.8 834.7 C-65.2 835.0 -71.6 835.2 -78 835 C-78.7 835.0 -79.4 835.0 -80.2 834.9 C-94.3 834.6 -108.1 833.0 -122 831 Z M-108 919 C-107.2 922.4 -106.5 924.2 -104.7 927.1 C-104.2 927.8 -103.7 928.6 -103.3 929.4 C-102.7 930.3 -102.2 931.1 -101.7 932 C-100.6 933.8 -99.5 935.6 -98.4 937.4 C-97.8 938.3 -97.3 939.3 -96.7 940.2 C-95.1 942.9 -93.5 945.6 -91.9 948.3 C-86.1 958.0 -80.2 967.6 -74 977 C-69.7 975.5 -68.3 972.5 -66.2 968.7 C-65.6 967.4 -64.9 966.1 -64.1 964.9 C-64.0 964.5 -64.0 964.5 -63.1 962.9 C-61.4 960.0 -59.7 957.1 -57.9 954.2 C-57.2 953.2 -56.5 952.1 -55.9 951.0 C-55.5 950.5 -55.2 950.0 -54.9 949.5 C-53.1 946.6 -51.4 943.7 -49.7 940.8 C-48.3 938.5 -46.9 936.2 -45.4 933.9 C-44.9 933.2 -44.5 932.5 -44.0 931.7 C-43.1 930.3 -42.2 928.9 -41.3 927.4 C-41.0 927.1 -41.0 927.1 -40.0 925.4 C-39.6 924.9 -39.2 924.3 -38.8 923.7 C-38 922 -38 922 -38 919 C-61.1 919 -84.2 919 -108 919 Z " fill="currentColor" transform="translate(673,118)"/>
<path d="M0 0 C0.3 0.1 0.3 0.1 2.0 0.7 C25.9 9.7 48.4 23.5 66.5 41.5 C68.1 43.1 69.7 44.6 71.3 46.1 C82.3 56.7 91.4 68.3 99.1 81.5 C99.9 82.9 100.8 84.3 101.7 85.6 C117.5 110.9 126.7 143.3 127 173 C127.0 173.7 127.0 174.4 127.0 175.2 C127.1 180.4 127.1 185.7 127 191 C127.0 191.6 127.0 192.3 127.0 192.9 C126.7 213.3 121.5 233.2 114 252 C113.9 252.4 113.9 252.4 113.2 254.1 C100.7 285.6 78.0 314.6 51 335 C50.7 335.2 50.7 335.2 49.2 336.4 C33.4 348.4 15.8 358.0 -3.0 364.3 C-4.5 364.8 -6.0 365.4 -7.4 365.9 C-14.5 368.6 -21.4 370.3 -28.8 371.7 C-29.4 371.8 -30.0 371.9 -30.5 372.0 C-39.0 373.6 -47.4 374.9 -56 375 C-56.8 375.0 -57.6 375.0 -58.4 375.1 C-115.7 376.4 -163.2 355.3 -205.1 317.1 C-218.4 304.3 -230.5 287.6 -238.5 271.1 C-239.5 269.1 -240.4 267.2 -241.5 265.2 C-249.2 250.5 -254.1 234.8 -257.5 218.5 C-257.8 216.9 -258.2 215.3 -258.6 213.7 C-260.8 203.6 -260.4 193.3 -260.4 183 C-260.4 182.0 -260.4 181.0 -260.4 179.9 C-260.4 163.4 -259.3 148.0 -255 132 C-254.8 131.2 -254.6 130.4 -254.4 129.5 C-253.1 124.9 -251.7 120.5 -250 116 C-249.8 115.5 -249.8 115.5 -249.0 113.1 C-236.2 80.2 -214.1 50.4 -186 29 C-185.5 28.6 -185.0 28.2 -184.4 27.8 C-175.4 21.0 -166.0 15.3 -156 10 C-155.3 9.6 -154.7 9.3 -154.0 8.9 C-106.8 -16.0 -49.8 -18.6 0 0 Z M-97 -1 C-97.7 -0.9 -98.3 -0.8 -99.0 -0.6 C-115.5 2.5 -131.4 7.6 -146.7 14.7 C-147.5 15.1 -148.3 15.4 -149.1 15.8 C-149.9 16.2 -150.6 16.5 -151.4 16.9 C-152.0 17.2 -152.7 17.5 -153.4 17.8 C-155.4 19.3 -156.1 20.7 -157 23 C-142.7 31.5 -128.3 39.7 -113.7 47.7 C-113.1 48.0 -112.6 48.3 -112.0 48.7 C-111.5 49.0 -111.0 49.2 -110.4 49.6 C-105.8 52.1 -101.3 54.7 -96.7 57.3 C-91.7 60.2 -86.7 63.0 -81.6 65.9 C-81.0 66.2 -80.3 66.6 -79.7 66.9 C-79.1 67.3 -78.5 67.6 -77.8 68.0 C-76.6 68.7 -75.4 69.4 -74.2 70.2 C-71.3 72.1 -69.6 73.0 -66.1 73.0 C-62.0 71.7 -58.5 69.6 -54.9 67.3 C-50.0 64.3 -45.2 61.5 -40 59 C-34.6 56.4 -29.4 53.3 -24.2 50.2 C-17.7 46.4 -11.1 42.6 -4.4 38.9 C-3.9 38.6 -3.4 38.3 -2.8 38.0 C-0.7 36.9 1.4 35.7 3.5 34.5 C8.2 31.9 12.9 29.3 17.6 26.6 C18.2 26.2 18.9 25.9 19.6 25.5 C21.1 24.7 22.5 23.8 24 23 C24 22.3 24 21.7 24 21 C6.3 10.7 -12.0 4.1 -31.9 -0.2 C-32.6 -0.4 -33.4 -0.6 -34.1 -0.7 C-44.9 -3.0 -55.8 -3.2 -66.8 -3.2 C-67.4 -3.2 -68.1 -3.2 -68.8 -3.2 C-78.3 -3.2 -87.6 -2.9 -97 -1 Z M-170.2 28.0 C-170.8 28.4 -171.4 28.9 -172.0 29.3 C-172.6 29.8 -173.2 30.3 -173.9 30.8 C-174.5 31.2 -175.2 31.7 -175.9 32.2 C-189.8 42.8 -202.3 54.2 -213 68 C-213.4 68.6 -213.9 69.1 -214.3 69.7 C-238.6 100.8 -249.4 136.0 -252 175 C-249.4 176.0 -248.3 176.1 -245.6 175.1 C-245.2 174.8 -245.2 174.8 -243.0 173.5 C-242.0 173.0 -241.0 172.4 -240.0 171.8 C-239.0 171.2 -237.9 170.6 -236.8 169.9 C-235.7 169.3 -234.6 168.7 -233.5 168.0 C-231.1 166.7 -228.8 165.3 -226.5 164.0 C-221.7 161.2 -216.8 158.5 -211.9 155.8 C-209.3 154.4 -206.7 152.9 -204.1 151.4 C-203.9 151.3 -203.9 151.3 -202.6 150.6 C-201.1 149.7 -199.5 148.9 -198 148 C-197.5 147.7 -197.0 147.4 -196.5 147.1 C-185.5 141.0 -174.5 134.7 -163.6 128.3 C-159.2 125.7 -154.7 123.2 -150.2 120.8 C-145.6 118.3 -141.1 115.6 -136.5 113 C-130.3 109.5 -124.1 105.9 -117.9 102.6 C-108.3 97.3 -98.7 92.1 -89.3 86.4 C-85.0 83.8 -80.5 81.4 -76 79 C-76 77.7 -76 76.4 -76 75 C-76.7 74.6 -77.4 74.2 -78.1 73.8 C-98.9 62.3 -119.6 50.7 -140.3 39.1 C-140.8 38.8 -140.8 38.8 -143.2 37.4 C-147.2 35.2 -151.1 33.0 -155.0 30.6 C-155.5 30.3 -156.1 30.0 -156.7 29.6 C-158.0 28.8 -159.4 27.9 -160.8 27.1 C-164.5 25.3 -166.9 25.6 -170.2 28.0 Z M24.1 28.5 C23.6 28.8 23.6 28.8 21.2 30.2 C20.2 30.8 19.2 31.3 18.2 31.9 C17.1 32.5 16.1 33.1 15.1 33.7 C8.6 37.4 2.3 41.2 -4.0 45.0 C-8.4 47.7 -12.9 50.2 -17.5 52.6 C-20.0 54.0 -22.5 55.5 -24.9 57 C-29.6 59.8 -34.4 62.2 -39.3 64.6 C-42.6 66.3 -45.8 68.1 -49 70 C-49.4 70.3 -49.4 70.3 -51.6 71.6 C-54.1 73.0 -56.6 74.5 -59 76 C-57.6 79.7 -56.0 80.9 -52.5 82.6 C-51.5 83.1 -50.5 83.7 -49.5 84.2 C-48.9 84.5 -48.4 84.8 -47.8 85.1 C-44.5 86.8 -41.2 88.6 -38 90.4 C-36.5 91.3 -34.9 92.2 -33.4 93.0 C-32.5 93.5 -31.7 94.0 -30.8 94.4 C-28.2 95.9 -25.7 97.3 -23.1 98.7 C-0.6 111.1 -0.6 111.1 9.3 117.1 C13.5 119.7 17.8 122.1 22.2 124.5 C26.0 126.6 29.8 128.7 33.6 130.9 C38.0 133.5 42.5 135.9 47.0 138.4 C52.2 141.2 57.4 144.1 62.6 147 C63.2 147.3 63.8 147.6 64.4 148.0 C72.5 152.5 80.7 157.1 88.9 161.6 C90.4 162.5 91.9 163.3 93.4 164.2 C93.9 164.4 93.9 164.4 96.3 165.8 C97.2 166.3 98.2 166.8 99.1 167.4 C101.2 168.5 103.2 169.7 105.2 171.0 C105.8 171.3 106.3 171.6 106.9 171.9 C108.4 172.9 109.9 173.8 111.4 174.7 C113.9 176.0 115.2 176.3 118 176 C116.6 129.2 99.0 88.2 67 54 C66.6 53.5 66.1 53.1 65.7 52.6 C57.6 43.9 48.7 36.8 39 30 C38.4 29.6 37.9 29.2 37.3 28.8 C32.1 25.0 29.5 25.4 24.1 28.5 Z M-72.0 83.1 C-72.8 83.5 -73.6 84.0 -74.5 84.5 C-75.3 84.9 -76.2 85.4 -77.1 85.9 C-78.0 86.4 -78.9 86.9 -79.9 87.5 C-85.9 90.8 -92.0 94.2 -98.1 97.7 C-101.5 99.6 -104.9 101.5 -108.4 103.4 C-116.7 108.0 -124.9 112.7 -133.1 117.5 C-137.8 120.3 -142.7 123.0 -147.5 125.6 C-150.1 127.0 -152.5 128.5 -155 130 C-159.3 132.6 -163.6 135.0 -168.0 137.4 C-171.4 139.2 -174.7 141.1 -178 143 C-183.0 145.9 -188.1 148.7 -193.2 151.4 C-195.8 152.9 -198.5 154.4 -201.1 156.0 C-206.1 158.8 -211.1 161.6 -216.2 164.1 C-220.6 166.3 -224.8 168.6 -228.9 171.2 C-231.5 172.7 -234.2 174.2 -236.8 175.8 C-237.7 176.2 -238.5 176.7 -239.4 177.2 C-241.2 178.2 -242.9 179.2 -244.7 180.2 C-245.5 180.7 -246.3 181.1 -247.1 181.6 C-247.8 182.0 -248.6 182.4 -249.3 182.9 C-251 184 -251 184 -252 186 C-252.7 232.0 -231.5 276.4 -200 309 C-198.3 310.7 -196.7 312.3 -195 314 C-194.7 314.4 -194.7 314.4 -192.9 316.1 C-192.3 316.8 -191.7 317.4 -191 318.1 C-190.4 318.8 -189.7 319.5 -189.1 320.1 C-183.7 325.0 -179.7 325.4 -172.7 325.4 C-171.8 325.4 -170.8 325.4 -169.9 325.4 C-166.7 325.5 -163.6 325.5 -160.4 325.5 C-158.1 325.5 -155.9 325.5 -153.6 325.5 C-147.5 325.6 -141.3 325.6 -135.2 325.6 C-131.4 325.6 -127.5 325.6 -123.7 325.6 C-113.1 325.7 -102.4 325.7 -91.8 325.7 C-91.5 325.7 -91.5 325.7 -89.7 325.7 C-89.4 325.7 -89.4 325.7 -87.7 325.7 C-86.3 325.7 -84.9 325.7 -83.5 325.7 C-83.2 325.7 -83.2 325.7 -81.5 325.7 C-70.4 325.7 -59.3 325.8 -48.2 325.9 C-36.8 325.9 -25.4 326.0 -14.0 326.0 C-7.6 326.0 -1.2 326.0 5.2 326.0 C11.2 326.1 17.2 326.1 23.3 326.1 C25.5 326.1 27.7 326.1 29.9 326.1 C49.1 326.4 49.1 326.4 55.6 320.7 C57.1 319.2 58.6 317.6 60 316 C61.6 314.5 63.2 313.0 64.8 311.4 C94.7 280.6 114.4 241.1 117.8 198.0 C118.0 196.2 118.2 194.4 118.4 192.6 C118.6 189.8 118.7 187.7 118 185 C115.8 182.5 113.0 181.4 110 180 C108.2 178.9 106.4 177.9 104.6 176.8 C98.8 173.2 92.8 169.7 86.8 166.5 C78.4 162.0 70.1 157.4 61.9 152.8 C60.9 152.2 59.9 151.6 58.9 151.0 C52.1 147.2 45.5 143.4 38.8 139.4 C34.3 136.7 29.6 134.1 25.0 131.6 C19.8 128.8 14.6 125.9 9.5 123.1 C7.7 122.1 5.9 121.1 4.2 120.1 C2.9 119.4 1.7 118.7 0.5 118.1 C-3.7 115.7 -7.8 113.4 -12.0 111.1 C-23.7 104.6 -35.5 98.0 -47.2 91.4 C-49.8 89.9 -52.4 88.5 -55 87 C-56.0 86.4 -57.0 85.9 -58.0 85.3 C-59.0 84.7 -60.0 84.2 -61.0 83.6 C-61.9 83.1 -62.8 82.6 -63.8 82.1 C-67.3 80.3 -68.7 81.2 -72.0 83.1 Z M-171 333 C-166.8 336.7 -162.5 339.7 -157.6 342.4 C-156.9 342.8 -156.2 343.1 -155.4 343.5 C-140.2 351.9 -124.6 357.9 -107.9 362.2 C-107.3 362.4 -106.8 362.6 -106.2 362.7 C-93.5 365.9 -80.3 366.4 -67.3 366.3 C-66.9 366.3 -66.9 366.3 -65.1 366.3 C-30.3 366.1 9.6 356.9 37 334 C37.3 333.3 37.7 332.7 38 332 C11.7 331.8 -14.7 331.7 -41.0 331.5 C-44.1 331.5 -47.2 331.5 -50.3 331.5 C-50.6 331.5 -50.6 331.5 -52.2 331.5 C-62.2 331.4 -72.3 331.3 -82.3 331.3 C-92.6 331.2 -102.8 331.1 -113.1 331.1 C-118.9 331.1 -124.7 331.0 -130.5 331.0 C-135.9 330.9 -141.3 330.9 -146.7 330.9 C-148.7 330.9 -150.7 330.9 -152.7 330.8 C-155.5 330.8 -158.2 330.8 -160.9 330.8 C-161.7 330.8 -162.5 330.8 -163.3 330.8 C-168.8 330.8 -168.8 330.8 -171 333 Z " fill="currentColor" transform="translate(667,525)"/>
</svg>
