<svg xmlns="http://www.w3.org/2000/svg" viewBox="0 0 512 512">
  <rect width="512" height="512" rx="80" fill="#07031a"/>
  <circle cx="256" cy="256" r="180" fill="none" stroke="#7c3aed" stroke-width="2" opacity="0.4"/>
  <circle cx="256" cy="256" r="130" fill="none" stroke="#7c3aed" stroke-width="1.5" opacity="0.3"/>
  <!-- Sparkles icon centered -->
  <g transform="translate(176, 176) scale(10)">
    <path d="M12 3a.75.75 0 0 1 .718.528l1.5 5a.75.75 0 0 1-.718.972H10.5a.75.75 0 0 1-.718-.972l1.5-5A.75.75 0 0 1 12 3z" fill="#a78bfa" opacity="0"/>
    <!-- Star sparkle shape -->
    <path d="M9.813 15.904L9 18.75l-.813-2.846a4.5 4.5 0 0 0-3.09-3.09L2.25 12l2.846-.813a4.5 4.5 0 0 0 3.09-3.09L9 5.25l.813 2.846a4.5 4.5 0 0 0 3.09 3.09L15.75 12l-2.846.813a4.5 4.5 0 0 0-3.09 3.09z" fill="#a78bfa"/>
    <path d="M18.259 8.715L18 9.75l-.259-1.035a3.375 3.375 0 0 0-2.455-2.456L14.25 6l1.036-.259a3.375 3.375 0 0 0 2.455-2.456L18 2.25l.259 1.035a3.375 3.375 0 0 0 2.456 2.456L21.75 6l-1.035.259a3.375 3.375 0 0 0-2.456 2.456z" fill="#c4b5fd"/>
    <path d="M16.894 20.567L16.5 21.75l-.394-1.183a2.25 2.25 0 0 0-1.423-1.423L13.5 18.75l1.183-.394a2.25 2.25 0 0 0 1.423-1.423L16.5 15.75l.394 1.183a2.25 2.25 0 0 0 1.423 1.423l1.183.394-1.183.394a2.25 2.25 0 0 0-1.423 1.423z" fill="#ddd6fe"/>
  </g>
  <!-- Gradient overlay circles for glow effect -->
  <circle cx="256" cy="256" r="80" fill="url(#glow)"/>
  <defs>
    <radialGradient id="glow" cx="50%" cy="50%" r="50%">
      <stop offset="0%" stop-color="#7c3aed" stop-opacity="0.6"/>
      <stop offset="100%" stop-color="#7c3aed" stop-opacity="0"/>
    </radialGradient>
  </defs>
  <!-- Center sparkle star -->
  <g transform="translate(256, 256)">
    <!-- Large star -->
    <path d="M0,-60 L14,-14 L60,0 L14,14 L0,60 L-14,14 L-60,0 L-14,-14 Z" fill="#a78bfa" opacity="0.9"/>
    <!-- Small star top-right -->
    <path d="M40,-50 L45,-38 L57,-33 L45,-28 L40,-16 L35,-28 L23,-33 L35,-38 Z" fill="#c4b5fd" opacity="0.8" transform="scale(0.5)"/>
  </g>
</svg>
